<svg width="42" height="42" viewBox="0 0 42 42" fill="none" xmlns="http://www.w3.org/2000/svg">
<path d="M21 42C32.598 42 42 32.598 42 21C42 9.40202 32.598 0 21 0C9.40202 0 0 9.40202 0 21C0 32.598 9.40202 42 21 42Z" fill="#1969FF"/>
<path d="M19.7266 6.67818C20.4341 6.30519 21.5106 6.30519 22.2181 6.67818L29.4375 10.4842C29.8636 10.7088 30.0977 11.0436 30.1396 11.3891H30.1465V30.5201C30.1371 30.8971 29.9009 31.2715 29.4375 31.5158L22.2181 35.3218C21.5106 35.6948 20.4341 35.6948 19.7266 35.3218L12.5072 31.5158C12.0458 31.2725 11.8244 30.8955 11.8134 30.5201C11.8123 30.4816 11.8122 30.4499 11.8134 30.4238L11.8134 11.5179C11.8123 11.4914 11.8123 11.4649 11.8134 11.4385L11.8134 11.3891H11.8166C11.8487 11.0398 12.0721 10.7136 12.5072 10.4842L19.7266 6.67818ZM28.998 22.0254L22.2159 25.6126C21.5094 25.9863 20.4345 25.9863 19.728 25.6126L12.9609 22.0334V30.461L19.728 34.0213C20.1279 34.2353 20.5437 34.4437 20.9486 34.4528L20.9719 34.4531C21.376 34.4544 21.7684 34.249 22.1662 34.0544L28.998 30.4303V22.0254ZM10.6814 30.1055C10.6814 30.8389 10.7659 31.3209 10.9337 31.6605C11.0727 31.9419 11.2813 32.157 11.6622 32.4188L11.6839 32.4336C11.7675 32.4905 11.8596 32.5501 11.9717 32.6201L12.1039 32.7017L12.5098 32.9489L11.9276 33.9199L11.4733 33.6431L11.3969 33.5958C11.2656 33.514 11.1567 33.4437 11.0552 33.3746C9.9696 32.6362 9.56475 31.8312 9.55676 30.1565L9.55664 30.1055H10.6814ZM20.4258 16.9395C20.3733 16.9575 20.324 16.9785 20.2791 17.0022L13.0707 20.8205C13.0632 20.8245 13.0559 20.8285 13.0491 20.8324L13.043 20.8359L13.0543 20.8424L13.0707 20.8514L20.2791 24.6697C20.324 24.6934 20.3733 24.7144 20.4258 24.7324V16.9395ZM21.5742 16.9395V24.7324C21.6268 24.7144 21.676 24.6934 21.7209 24.6697L28.9293 20.8514C28.9368 20.8474 28.944 20.8434 28.9509 20.8395L28.957 20.8359L28.9457 20.8294L28.9293 20.8205L21.7209 17.0022C21.676 16.9785 21.6268 16.9575 21.5742 16.9395ZM28.998 12.7559L22.5176 16.1602L28.998 19.5645V12.7559ZM12.9609 12.7559V19.5645L19.4414 16.1602L12.9609 12.7559ZM21.7146 7.69564C21.3394 7.49729 20.6606 7.49729 20.2854 7.69564L13.0707 11.51C13.0632 11.514 13.0559 11.5179 13.0491 11.5219L13.043 11.5254L13.0543 11.5319L13.0707 11.5408L20.2854 15.3551C20.6606 15.5535 21.3394 15.5535 21.7146 15.3551L28.9292 11.5408C28.9368 11.5368 28.944 11.5329 28.9509 11.529L28.957 11.5254L28.9457 11.5189L28.9292 11.51L21.7146 7.69564ZM30.0724 8.08008L30.5267 8.3569L30.6031 8.4042C30.7344 8.48601 30.8433 8.55629 30.9448 8.62537C32.0304 9.36377 32.4353 10.1688 32.4432 11.8435L32.4434 11.8945H31.3186C31.3186 11.1611 31.2341 10.6791 31.0663 10.3395C30.9273 10.058 30.7187 9.84295 30.3378 9.58122L30.3161 9.56635C30.2325 9.5095 30.1404 9.44992 30.0283 9.37993L29.8961 9.29825L29.4902 9.05111L30.0724 8.08008Z" fill="white"/>
</svg>
