<svg width="34" height="34" viewBox="0 0 34 34" fill="none" xmlns="http://www.w3.org/2000/svg">
<path fill-rule="evenodd" clip-rule="evenodd" d="M16.4061 0.043457H17.5949C21.3498 0.043457 24.1531 0.718031 26.5217 1.98473C28.8901 3.25144 30.7491 5.11028 32.0158 7.47881C33.2824 9.84733 33.957 12.6507 33.957 16.4056V17.5944C33.957 21.3493 33.2824 24.1527 32.0158 26.5212C30.7491 28.8897 28.8901 30.7486 26.5217 32.0153C24.1531 33.2819 21.3498 33.9565 17.5949 33.9565H16.4061C12.6512 33.9565 9.84782 33.2819 7.47929 32.0153C5.11077 30.7486 3.25195 28.8897 1.98525 26.5212C0.718539 24.1527 0.0439453 21.3493 0.0439453 17.5944V16.4056C0.0439453 12.6507 0.718539 9.84733 1.98525 7.47881C3.25195 5.11028 5.11077 3.25144 7.47929 1.98473C9.84782 0.718031 12.6512 0.043457 16.4061 0.043457ZM17.0006 7.67391C22.1512 7.67391 26.3267 11.8493 26.3267 17C26.3267 19.1173 25.6212 21.0698 24.4323 22.6352C24.5609 22.9935 24.6311 23.3798 24.6311 23.7826C24.6311 25.6555 23.1127 27.1739 21.2397 27.1739C20.2878 27.1739 19.4275 26.7817 18.8114 26.15C18.2263 26.2656 17.6206 26.3261 17.0006 26.3261C11.8499 26.3261 7.67452 22.1506 7.67452 17C7.67452 11.8493 11.8499 7.67391 17.0006 7.67391ZM17.0006 9.36956C12.7864 9.36956 9.37017 12.7858 9.37017 17C9.37017 21.2142 12.7864 24.6304 17.0006 24.6304C17.3191 24.6304 17.6332 24.6109 17.9416 24.573C17.8804 24.3192 17.8484 24.0546 17.8484 23.7826C17.8484 21.9097 19.3668 20.3913 21.2397 20.3913C22.058 20.3913 22.8085 20.6811 23.3944 21.1636C24.1766 19.9679 24.6311 18.537 24.6311 17C24.6311 12.7858 21.2148 9.36956 17.0006 9.36956Z" fill="#F7C945"/>
</svg>
