<svg width="42" height="42" viewBox="0 0 42 42" fill="none" xmlns="http://www.w3.org/2000/svg">
<path d="M20.2373 5L5 13.8475V31.5424L17.1407 24.4644L14.0932 22.6949L7.99831 26.2339V15.617L17.1407 10.3085V17.3864L20.2373 19.1559V5Z" fill="#EB4F45"/>
<path d="M21.7119 5V19.1559L24.7102 17.3864V10.3085L33.9018 15.617V26.2339L27.8068 22.6949L24.7102 24.4644L36.9492 31.5424V13.8475L21.7119 5Z" fill="#EB4F45"/>
<path d="M30.117 16.2068L21.7119 21.0238V30.756V34.0001L30.117 29.134L27.3153 27.5119L24.5136 29.134V22.6458L24.8085 22.4984L25.3001 22.2035L30.117 19.4018V22.6458L32.5255 24.0221V14.8306L30.117 16.2068Z" fill="#EB4F45"/>
<path d="M9.42383 24.0221L11.7832 22.6458V19.4018L16.6001 22.2035L17.0916 22.4984L17.3865 22.6458V29.134L14.5848 27.5119L11.7832 29.134L20.2374 34.0001V30.756V21.0238L11.7832 16.2068L9.42383 14.8306V24.0221Z" fill="#EB4F45"/>
</svg>
