<svg width="33" height="33" viewBox="0 0 33 33" fill="none" xmlns="http://www.w3.org/2000/svg">
<path d="M16.2925 32.9984C25.2906 32.9984 32.5849 25.6114 32.5849 16.4992C32.5849 7.38693 25.2906 0 16.2925 0C7.29439 0 0 7.38693 0 16.4992C0 25.6114 7.29439 32.9984 16.2925 32.9984Z" fill="#EFF2F6"/>
<path fill-rule="evenodd" clip-rule="evenodd" d="M15.1363 26.4424C13.3106 25.3823 4.52427 20.2807 8.11786 7.55371C8.14106 7.64642 8.16533 7.74504 8.19093 7.8491C8.60727 9.54164 9.37815 12.6753 11.7568 15.3248C12.8628 16.7136 14.2735 17.8028 15.8771 18.4914C17.8544 19.3403 20.0314 19.5398 22.131 19.0655C23.1585 18.8333 24.1439 18.4451 25.0591 17.9182C23.375 23.2473 19.0857 25.7377 17.8721 26.4424L17.8716 26.4425C17.8255 26.4693 17.784 26.4934 17.7472 26.5151C17.4064 26.7739 16.9843 26.9269 16.5273 26.9269C16.145 26.9269 15.7872 26.8198 15.481 26.6335C15.4713 26.6355 15.4619 26.6373 15.4526 26.6391C15.4229 26.6087 15.3117 26.5442 15.1363 26.4424ZM25.4843 16.2125C25.9274 13.828 25.8537 10.9647 24.8905 7.55371C24.8673 7.64642 24.843 7.74504 24.8174 7.8491C24.2504 10.1541 23.0259 15.1322 17.9782 17.9197C19.2537 18.1967 20.5785 18.193 21.8719 17.9008C23.1718 17.6071 24.4009 17.0307 25.4843 16.2125ZM18.7208 13.8177C18.7208 15.2742 17.5653 16.4549 16.1401 16.4549C14.7149 16.4549 13.5595 15.2742 13.5595 13.8177C13.5595 12.3612 14.7149 11.1804 16.1401 11.1804C17.5653 11.1804 18.7208 12.3612 18.7208 13.8177Z" fill="#2F6EB6"/>
</svg>
