<svg width="42" height="42" viewBox="0 0 42 42" fill="none" xmlns="http://www.w3.org/2000/svg">
<circle cx="21" cy="21" r="21" fill="white"/>
<g clip-path="url(#clip0_12112_60530)">
<path d="M10.6602 20.1192C10.2461 20.7926 9.54089 21.1813 8.56068 21.2728V21.8638L7.77061 21.9461V21.2878C6.70504 21.231 5.95269 20.8234 5.5416 20.0711C4.10546 17.4542 7.66816 11.471 7.82108 11.2182L8.17788 10.6241L8.50665 11.234C10.034 14.0692 11.9154 18.0769 10.6602 20.1192Z" fill="#24BC48"/>
<path d="M15.4983 21.2345C15.2455 21.6421 14.828 21.8854 14.2495 21.9519V23.1625L13.7783 23.2096V22.5523C13.7244 22.549 13.6707 22.546 13.6172 22.5396V21.9644C12.9879 21.917 12.5422 21.6612 12.2891 21.2026C11.4228 19.6193 13.4286 16.1961 13.6579 15.8107L13.9457 15.3365L14.2082 15.8265C15.1315 17.5428 16.273 19.9731 15.4983 21.2345Z" fill="#239942"/>
<path d="M38.605 23.8924C38.5892 24.0283 38.5702 24.1641 38.5482 24.3C38.4717 24.8055 38.3698 25.305 38.2477 25.7949C38.213 25.9435 38.175 26.0886 38.1307 26.2311C38.0991 26.3584 38.0613 26.4807 38.0231 26.6071C37.8347 27.2359 37.6098 27.8533 37.3498 28.4561L36.4929 28.4403L34.6686 28.4054L32.6101 28.3675L25.8596 28.2401L23.7981 28.1991L22.394 28.1736L19.9912 26.6468L19.2796 26.1918L18.9159 25.961L17.1064 24.7601L17.3437 24.4597L20.1821 20.9056L21.7623 18.6928L24.2917 16.4802L25.8719 15.8481L26.5045 16.1643L28.4013 18.3766L29.35 19.9561L29.9823 20.9043L30.9308 19.6402L32.1958 18.3759L33.1443 18.06L34.0929 18.3759L35.3575 20.2722L36.9376 21.8518L37.9061 23.0338L38.605 23.8924Z" fill="#0B6C96"/>
<path d="M20.9365 26.0004L15.1629 37.006L14.7931 37.7106C14.4768 37.5812 14.1669 37.4452 13.8634 37.2966C13.6862 37.2146 13.5094 37.1259 13.3386 37.0345C13.2621 36.9932 13.1857 36.9553 13.1141 36.9142C8.5388 34.4393 5.1935 29.9733 4.24822 24.6889L4.12793 23.905C4.3652 23.8449 4.6244 23.7817 4.89939 23.7216C5.84714 23.5132 6.80557 23.3567 7.7704 23.2528V22.6786L8.56047 22.6628V23.178C10.1225 23.0579 11.8551 23.076 13.6164 23.3708V22.5556L14.2487 22.5431V23.4913C15.2115 23.6848 16.1537 23.9696 17.0626 24.3414C17.2334 24.076 17.4895 23.6808 17.8152 23.2004L18.4129 23.7353C18.182 24.0734 17.9732 24.3896 17.7931 24.6677C18.4855 24.9973 19.1489 25.3847 19.7761 25.8259C19.9563 25.6985 20.1398 25.5729 20.3263 25.4529L20.9365 26.0004Z" fill="#239942"/>
<path d="M38.1309 26.2312C38.0993 26.3585 38.0616 26.4808 38.0234 26.6072C37.6943 27.71 37.2537 28.7764 36.7083 29.7899C36.6387 29.9259 36.5658 30.0586 36.4868 30.1914C36.433 30.2933 36.3729 30.3903 36.313 30.4885C35.744 31.4468 35.0832 32.3476 34.3399 33.1782C34.1661 33.3741 33.9859 33.5669 33.8024 33.7534C30.7828 36.8475 26.6186 38.8231 22.0023 38.9871C21.7906 38.9968 21.5785 38.9999 21.3667 38.9999C21.3157 38.9999 21.2625 38.9999 21.2117 38.9968C20.0966 38.99 18.9847 38.8746 17.8919 38.6521C17.7276 38.6175 17.5632 38.5826 17.4019 38.5449C17.3037 38.5227 17.2059 38.4973 17.1077 38.472C15.9893 38.191 14.9024 37.7971 13.8636 37.2963C13.6865 37.2143 13.5096 37.1256 13.3389 37.0342L13.4874 36.2154L13.8572 34.1801L15.4373 31.3355L16.3857 29.756L18.9152 26.9114L19.4813 26.5891L20.2275 26.1624L21.1297 25.6475L23.0269 24.3832L25.8724 23.7511L28.0858 23.4349L32.1963 23.7511L35.358 24.6993L37.2552 25.6475L37.4388 25.7708L38.1309 26.2312Z" fill="#24BC48"/>
<path d="M36.4864 30.1914C36.4325 30.2933 36.3724 30.3904 36.3125 30.4885C35.7435 31.4468 35.0827 32.3476 34.3394 33.1782C34.1656 33.3741 33.9854 33.567 33.8019 33.7535C30.7823 36.8475 26.6181 38.8232 22.0018 38.9872C21.7901 38.9969 21.578 39 21.3662 39C21.3152 39 21.262 39 21.2112 38.9969C20.0961 38.9901 18.9842 38.8747 17.8915 38.6522C17.7271 38.6176 17.5627 38.5827 17.4014 38.5449L17.6511 37.9728L17.6891 37.799L18.2834 35.1281L19.5483 31.9676L22.0778 29.7553L23.6579 28.8071L26.1874 27.8589L29.0339 27.2271L31.2472 27.543L33.7766 28.1753L35.3568 29.4394L35.8281 29.7522L36.4864 30.1914Z" fill="#239942"/>
<path d="M21.7617 38.6048L22.078 36.3925L23.6589 33.864L26.1884 31.9676L29.3502 31.3356L31.8797 32.2838L33.1446 32.9158L33.7769 33.232L31.8797 35.1281L28.7179 37.0245L25.2398 38.2889L22.7103 38.6048H21.7617Z" fill="#24BC48"/>
<path d="M32.7141 8.45938C32.7111 8.45609 32.708 8.45304 32.708 8.4497C32.474 8.25073 32.2337 8.05459 31.9901 7.86377H31.987C31.964 7.84231 31.9397 7.82223 31.9144 7.80365C31.8794 7.77817 31.8448 7.7527 31.8099 7.72468C31.7334 7.68366 31.6549 7.64825 31.5729 7.61411C31.275 7.4909 30.9588 7.41824 30.637 7.39909C30.5769 7.39604 30.5167 7.39273 30.4566 7.39273C30.2955 7.39202 30.1347 7.40583 29.9761 7.43399C30.4692 7.73321 30.9463 8.05814 31.4052 8.40741C31.685 8.54649 31.9311 8.745 32.1262 8.98904C32.2179 9.06803 32.3063 9.14394 32.3948 9.22598C32.7363 9.52635 33.062 9.84224 33.3783 10.1711C36.2177 13.1518 37.9658 17.1844 37.9658 21.6156C37.9658 21.8999 37.9594 22.1845 37.9436 22.4688V22.4721C37.9342 22.6616 37.9217 22.8481 37.9059 23.0346C37.8901 23.2053 37.874 23.376 37.8549 23.5441C37.7844 24.1445 37.6809 24.7407 37.545 25.3297C37.5134 25.4783 37.4754 25.6237 37.4377 25.7692C37.4058 25.8923 37.3712 26.0156 37.3358 26.1358C37.1155 26.9249 36.8338 27.6956 36.4929 28.4406C36.3655 28.7313 36.2274 29.0158 36.0788 29.2941C35.9965 29.4487 35.9144 29.6036 35.8291 29.7526C35.7847 29.8318 35.7403 29.9108 35.693 29.9898C35.1324 30.9477 34.4767 31.8467 33.7359 32.6731C33.5618 32.8691 33.3791 33.0619 33.192 33.2515C30.3241 36.1623 26.3938 38.0241 22.0337 38.1938C21.8125 38.2062 21.591 38.2095 21.3664 38.2095C21.3254 38.2095 21.2844 38.2095 21.2431 38.2062C20.1326 38.2014 19.0255 38.083 17.9391 37.8529C17.8568 37.8371 17.7714 37.818 17.6893 37.7991C17.5109 37.7581 17.3384 37.7168 17.1643 37.6695C16.4837 37.4912 15.8151 37.2695 15.1629 37.0058C14.7615 36.8446 14.3629 36.6644 13.9773 36.4708C13.8129 36.3888 13.6485 36.3035 13.4872 36.216C13.4018 36.172 13.3195 36.1277 13.2374 36.0803C8.98787 33.6855 5.89233 29.4714 5.01969 24.5028C4.97229 24.2437 4.93431 23.9846 4.89939 23.7222C4.6244 23.7824 4.36419 23.8455 4.12793 23.9057L4.24822 24.6896C5.1935 29.974 8.53881 34.4399 13.1141 36.9146C13.1867 36.9556 13.2626 36.9936 13.3386 37.0349C13.5094 37.1263 13.6862 37.215 13.8634 37.297C14.1669 37.4455 14.4768 37.5816 14.7931 37.711C15.5452 38.0202 16.3187 38.2748 17.1075 38.4727C17.2056 38.4982 17.3035 38.5236 17.4016 38.5456C17.5629 38.5833 17.7273 38.6182 17.8917 38.6528C18.9844 38.8751 20.0962 38.9904 21.2112 38.997C21.2622 39.0001 21.3157 39.0001 21.3662 39.0001C21.578 39.0001 21.79 38.997 22.0018 38.9873C26.6181 38.823 30.7823 36.8474 33.8019 33.7536C33.9854 33.5671 34.1655 33.3742 34.3394 33.1784C35.0827 32.3476 35.7435 31.4466 36.3125 30.4881C36.3724 30.39 36.4325 30.2922 36.4863 30.191C36.5653 30.0583 36.6392 29.9256 36.7078 29.7895C36.9417 29.3565 37.1566 28.9109 37.3495 28.4559C37.6093 27.8532 37.8339 27.236 38.0221 26.6073C38.0603 26.48 38.0986 26.3577 38.1297 26.2313C38.174 26.0889 38.212 25.9437 38.2466 25.7952C38.37 25.3053 38.4712 24.8057 38.5471 24.3002C38.5692 24.1644 38.5882 24.0285 38.604 23.8926C38.6356 23.6873 38.6577 23.4817 38.6768 23.2733C38.7304 22.7264 38.7559 22.1779 38.7559 21.6174C38.7566 16.3638 36.4137 11.6451 32.7141 8.45938Z" fill="#131414"/>
<path d="M32.4304 9.53997C32.4255 9.43506 32.4138 9.33056 32.3955 9.22712C32.3201 8.74189 32.1221 8.28393 31.8203 7.89652C31.8042 7.87436 31.7854 7.84914 31.7666 7.82697C31.7632 7.82392 31.7602 7.82061 31.7602 7.81755C31.7 7.748 31.6398 7.67845 31.5736 7.61527C31.3741 7.41618 31.146 7.2479 30.8969 7.11594C30.8953 7.11409 30.893 7.11291 30.8906 7.11263C30.8842 7.10321 30.8717 7.10015 30.862 7.09378C30.4444 6.87552 29.98 6.76187 29.5087 6.7626C29.3477 6.76193 29.1869 6.77565 29.0283 6.80361C28.4781 6.89531 27.9656 7.14243 27.5512 7.51579C27.1369 7.88916 26.8381 8.37322 26.6899 8.91078C26.5418 9.4484 26.5506 10.0171 26.7153 10.5499C26.88 11.0826 27.1937 11.5572 27.6194 11.9176C28.0451 12.2779 28.565 12.5091 29.1178 12.5837C29.6707 12.6583 30.2333 12.5733 30.7394 12.3388C31.2455 12.1042 31.6739 11.7298 31.974 11.2599C32.2742 10.7898 32.4336 10.2438 32.4335 9.6862C32.4335 9.63803 32.4335 9.59067 32.4304 9.53997ZM29.5087 11.8188C28.9427 11.8188 28.3999 11.594 27.9996 11.1939C27.5994 10.7938 27.3745 10.2512 27.3745 9.68544C27.3745 9.11963 27.5994 8.577 27.9996 8.17694C28.3999 7.77685 28.9427 7.55209 29.5087 7.55209C29.8383 7.55055 30.1635 7.62749 30.4573 7.77653C30.7372 7.91545 30.9833 8.11386 31.1783 8.3579C31.4286 8.67181 31.5852 9.04996 31.63 9.44885C31.6747 9.8478 31.606 10.2512 31.4315 10.6128C31.2571 10.9743 30.9841 11.2794 30.644 11.4927C30.3038 11.7061 29.9103 11.8191 29.5087 11.8188Z" fill="#131414"/>
<path d="M20.44 26.326C20.2154 26.4809 19.9945 26.6422 19.7774 26.81C19.5592 26.6393 19.3347 26.4788 19.1102 26.326C15.7475 24.0566 11.7796 23.7091 8.56047 23.9661C8.29159 23.9883 8.02526 24.0138 7.7704 24.0426C6.84595 24.1462 5.92773 24.2993 5.01968 24.5012C4.74444 24.5646 4.48448 24.6285 4.24822 24.6879L4.12793 23.905C4.3652 23.8449 4.6244 23.7817 4.89939 23.7216C5.84714 23.5132 6.80557 23.3567 7.7704 23.2528C8.02653 23.2212 8.2921 23.196 8.56047 23.1764C10.1225 23.0564 11.8551 23.0745 13.6164 23.3692C13.7301 23.3881 13.844 23.4103 13.9579 23.4324L14.2487 23.4895C15.2115 23.6831 16.1537 23.9678 17.0626 24.3396C17.3062 24.4415 17.5527 24.5483 17.793 24.6652C18.4856 24.9955 19.149 25.3838 19.7761 25.8259C20.0006 25.9846 20.2218 26.1522 20.44 26.326Z" fill="#131414"/>
<path d="M38.6778 23.2729C38.6587 23.4813 38.6365 23.6869 38.6049 23.8922C38.5891 24.0281 38.5702 24.164 38.5481 24.2999C38.3615 24.0943 38.1245 23.8382 37.8556 23.5445C36.5372 22.1128 34.4724 19.837 33.625 18.7805C33.4132 18.5151 33.2203 18.3823 33.0495 18.3823C32.8535 18.3823 32.6259 18.5436 32.3856 18.7838C32.1452 19.0241 31.8924 19.34 31.6427 19.6528C31.3549 20.0133 31.0608 20.386 30.7351 20.7085C30.615 20.8288 30.2509 21.1954 29.7898 21.1258C29.249 21.0466 28.9518 20.4874 28.5028 19.6434C28.0601 18.809 27.4499 17.668 26.3843 16.5998C26.1756 16.3942 25.9322 16.3122 25.6198 16.3471C23.6625 16.5713 20.2889 20.974 18.4138 23.7333C18.1829 24.0713 17.9742 24.3875 17.794 24.6657C17.7087 24.7984 17.6296 24.9248 17.557 25.0417L17.1079 24.7615L16.8867 24.6224C16.9245 24.5592 16.9846 24.4644 17.0636 24.3421C17.2344 24.0767 17.4905 23.6816 17.8162 23.2011C19.5268 20.679 23.0967 15.8401 25.5311 15.5652C26.0783 15.5018 26.5684 15.6694 26.9415 16.0457C28.0955 17.1959 28.7342 18.3971 29.2021 19.2755C29.4361 19.715 29.7587 20.3218 29.9073 20.3471C29.9073 20.3471 29.9863 20.344 30.1793 20.1544C30.4701 19.8604 30.7514 19.5063 31.0233 19.1649C31.6653 18.3559 32.2722 17.5944 33.0469 17.5944H33.05C33.4708 17.5944 33.8755 17.8282 34.2453 18.2896C34.9663 19.1935 36.6548 21.0614 37.9446 22.471V22.4743C38.2099 22.7639 38.4597 23.0327 38.6778 23.2729Z" fill="#131414"/>
<path d="M20.3609 24.4314L19.6865 24.0172C19.7918 23.8462 22.2861 19.8136 23.9302 18.8285L24.338 19.5062C23.1078 20.2432 21.049 23.3112 20.3609 24.4314Z" fill="#131414"/>
<path d="M22.8112 8.97681L22.8076 9.76703L25.9694 9.78138L25.973 8.9911L22.8112 8.97681Z" fill="#131414"/>
<path d="M26.1925 10.7128L23.1836 11.6837L23.4265 12.4357L26.4353 11.4648L26.1925 10.7128Z" fill="#131414"/>
<path d="M23.5745 6.04578L23.1914 6.73702L25.957 8.26879L26.3402 7.57755L23.5745 6.04578Z" fill="#131414"/>
<path d="M25.6544 4.09998L25.041 4.59859L27.036 7.05061L27.6493 6.552L25.6544 4.09998Z" fill="#131414"/>
<path d="M28.7343 3.00903L27.9512 3.11765L28.3857 6.24818L29.1688 6.13957L28.7343 3.00903Z" fill="#131414"/>
<path d="M30.7825 3L30 6.06219L30.7659 6.25779L31.5485 3.19559L30.7825 3Z" fill="#131414"/>
<path d="M33.2833 4.06787L31.4199 6.62122L32.0586 7.08695L33.922 4.5336L33.2833 4.06787Z" fill="#131414"/>
<path d="M36.0787 29.2938C35.631 28.9637 35.1598 28.6667 34.6686 28.4055C33.0028 27.512 31.1483 27.0274 29.2581 26.9916C27.368 26.9559 25.4965 27.3702 23.7981 28.2001C20.1902 29.9668 17.6009 33.5034 17.1643 37.6692C17.136 37.9347 17.1169 38.2042 17.1074 38.472C17.2056 38.4974 17.3034 38.5229 17.4016 38.5448C17.5629 38.5825 17.7273 38.6174 17.8916 38.6521C17.898 38.3835 17.9138 38.1171 17.9391 37.8526C18.3754 33.2823 21.5836 29.5119 25.8596 28.2411C27.5215 27.746 29.2762 27.6462 30.9836 27.9497C32.6909 28.2532 34.3037 28.9515 35.6929 29.989C35.9047 30.147 36.1134 30.3146 36.3127 30.4883C36.3726 30.3903 36.4327 30.2925 36.4865 30.1913C36.5655 30.0586 36.6395 29.9258 36.708 29.7898C36.5056 29.6161 36.2936 29.4517 36.0787 29.2938Z" fill="#131414"/>
<path d="M33.7355 32.6725C32.3821 31.6494 30.7308 31.0969 29.0339 31.0994C24.9582 31.0994 21.6034 34.2286 21.2428 38.2071C21.2186 38.4441 21.2071 38.6822 21.2081 38.9204C21.2076 38.946 21.2086 38.9715 21.2112 38.9969C21.2622 38.9999 21.3157 39 21.3661 39C21.5779 39 21.79 38.9969 22.0018 38.9872C21.9992 38.9652 21.9982 38.9431 21.9987 38.921C21.9987 38.6744 22.0112 38.431 22.0334 38.1942C22.3991 34.6573 25.4008 31.8891 29.0339 31.8891C30.5299 31.8872 31.9871 32.3646 33.1917 33.2513C33.4049 33.4066 33.6086 33.5744 33.8018 33.7539C33.9853 33.5675 34.1655 33.3746 34.3393 33.1787C34.1469 32.9997 33.9454 32.8307 33.7355 32.6725Z" fill="#131414"/>
<path d="M37.546 25.3303C34.9622 23.7091 31.9689 22.8594 28.9183 22.8813C25.8677 22.9031 22.8869 23.7956 20.3265 25.4536C20.14 25.5737 19.9565 25.7 19.7763 25.8266C19.6086 25.9466 19.4412 26.0699 19.2798 26.1932L19.1091 26.326C16.0895 28.709 13.9459 32.1477 13.2376 36.0796C13.1902 36.3544 13.1491 36.6325 13.1143 36.914C13.1869 36.955 13.2628 36.9929 13.3388 37.0342C13.5096 37.1257 13.6864 37.2143 13.8636 37.2963C13.8921 37.0215 13.9301 36.7432 13.9775 36.4714C14.6098 32.5482 16.7473 29.1263 19.7763 26.8095C19.849 26.7557 19.9185 26.702 19.9914 26.6482C20.14 26.5377 20.2886 26.4302 20.4402 26.326C20.6049 26.2154 20.7693 26.1048 20.9367 26.0003C23.3982 24.4556 26.2506 23.6476 29.1569 23.6716C32.0632 23.6957 34.9018 24.551 37.3373 26.1364C37.5712 26.2849 37.799 26.4421 38.0233 26.6072C38.0616 26.4798 38.0998 26.3576 38.1309 26.2312C38.1752 26.0888 38.2132 25.9436 38.2479 25.795C38.0172 25.6338 37.7863 25.4789 37.546 25.3303Z" fill="#131414"/>
<path d="M8.56058 18.3771V23.9662C8.2917 23.9884 8.02537 24.0139 7.77051 24.0427V18.3771H8.56058Z" fill="#131414"/>
<path d="M8.50697 11.234L8.17794 10.6241L7.82114 11.2182C7.66822 11.471 4.10578 17.4542 5.54141 20.0711C5.9525 20.8234 6.70485 21.231 7.77042 21.2878C7.81476 21.2911 7.85911 21.2942 7.90651 21.2942C7.96029 21.2975 8.01075 21.2975 8.06147 21.2975C8.22834 21.299 8.39514 21.2904 8.561 21.272C9.5412 21.1806 10.2464 20.7918 10.6605 20.1185C11.9155 18.0769 10.0341 14.0692 8.50697 11.234ZM9.98747 19.7045C9.71554 20.1437 9.24836 20.403 8.56023 20.4787C8.34922 20.5021 8.13682 20.5106 7.92461 20.5042C7.87083 20.5042 7.82037 20.5009 7.76965 20.4978C7.00788 20.4469 6.50504 20.185 6.23616 19.6917C5.33191 18.0453 7.07108 14.1986 8.14609 12.2391C10.0973 16.0067 10.7171 18.5161 9.98747 19.7045Z" fill="#131414"/>
<path d="M14.2495 20.1472H13.6172V23.7503H14.2495V20.1472Z" fill="#131414"/>
<path d="M14.2085 15.8265L13.946 15.3365L13.6579 15.8107C13.4286 16.1961 11.4228 19.6193 12.2891 21.2026C12.5422 21.6612 12.9879 21.916 13.6172 21.9644C13.6694 21.9734 13.7222 21.9777 13.7752 21.9771H13.87C13.9969 21.9784 14.1238 21.9699 14.2495 21.9516C14.828 21.8852 15.2455 21.6418 15.4983 21.2342C16.2731 19.9731 15.1315 17.5428 14.2085 15.8265ZM14.9577 20.9025C14.8186 21.1237 14.5877 21.2661 14.2495 21.3198C14.0978 21.3433 13.9441 21.3518 13.7907 21.3453C13.7306 21.342 13.6704 21.3389 13.6169 21.3356C13.2374 21.2946 12.9844 21.1494 12.8452 20.8995C12.3354 19.9767 13.2785 17.8306 13.9204 16.6358C15.024 18.7947 15.3752 20.2262 14.9577 20.9025Z" fill="#131414"/>
<path d="M31.9915 7.86546C31.9915 7.86546 31.2037 7.23977 30.9094 7.11927C30.615 6.99877 30.6152 7.63108 30.6152 7.63108L31.5638 7.94724L31.9915 7.86546Z" fill="#131414"/>
<path d="M29.5082 12.0561C30.8179 12.0561 31.8797 10.9948 31.8797 9.68559C31.8797 8.37641 30.8179 7.31506 29.5082 7.31506C28.1984 7.31506 27.1367 8.37641 27.1367 9.68559C27.1367 10.9948 28.1984 12.0561 29.5082 12.0561Z" fill="#E07103"/>
</g>
<defs>
<clipPath id="clip0_12112_60530">
<rect width="35" height="36" fill="white" transform="translate(4 3)"/>
</clipPath>
</defs>
</svg>
