<svg width="28" height="28" viewBox="0 0 28 28" fill="none" xmlns="http://www.w3.org/2000/svg">
<path d="M4.56068 16.7332C6.0022 16.7332 7.15541 15.5772 7.15541 14.1323C7.15541 12.6585 5.97337 11.4737 4.50303 11.5026C2.97502 11.5315 1.82181 12.6874 1.85064 14.1323C1.85064 15.635 3.03268 16.7332 4.56068 16.7332ZM14.017 7.08123C15.4585 7.05233 16.6117 5.89641 16.6117 4.45151C16.6117 3.00661 15.3432 1.7929 13.9017 1.8218C12.4025 1.87959 11.2205 3.06441 11.2781 4.50931C11.307 5.98311 12.5178 7.11013 14.017 7.08123ZM23.5022 16.5309C24.9437 16.5887 26.1546 15.4906 26.2122 14.0457C26.2699 12.5719 25.1167 11.3292 23.6752 11.3003C22.1472 11.2714 20.9363 12.3696 20.9074 13.8434C20.8786 15.3461 21.9742 16.502 23.5022 16.5309ZM14.1612 26.2117C15.6027 26.2117 16.7559 25.0558 16.7847 23.6398C16.8135 22.2238 15.6315 21.0101 14.2188 20.9812C12.6908 20.9523 11.4511 22.1371 11.4511 23.6109C11.4511 25.0269 12.6908 26.1828 14.1612 26.2117ZM23.6175 18.3515C22.349 18.3226 21.2534 17.9469 20.3308 16.9932C19.2641 15.924 17.9668 15.7795 17.0154 16.6176C16.0063 17.4845 15.9486 18.8138 16.9577 20.0275C18.0532 21.3568 18.8893 22.7439 18.4569 24.5645C18.0532 26.2695 16.6982 27.6277 15.0261 27.9167C13.1809 28.2635 11.3358 27.5121 10.3844 25.9516C9.37534 24.3333 9.43299 22.6861 10.4421 21.0679C10.6727 20.6922 10.9898 20.3743 11.2493 20.0275C12.1719 18.8716 12.143 17.5712 11.1052 16.7043C10.1249 15.8662 8.82756 15.9818 7.84733 16.9932C6.63646 18.2937 5.13729 18.7849 3.40747 18.3804C1.59117 17.9469 0.293809 16.502 0.034337 14.6525C-0.196305 12.9186 0.75509 11.0692 2.28309 10.2311C3.95525 9.33527 5.94454 9.53756 7.38605 10.7513C7.55904 10.8958 7.73201 11.0981 7.905 11.2425C8.88522 12.1384 10.2402 12.1384 11.134 11.2714C11.9989 10.4334 12.0566 9.13299 11.2493 8.12156C10.5574 7.28352 9.83662 6.53217 9.60598 5.40515C9.17352 3.35339 10.1249 1.30163 11.9989 0.434687C13.9305 -0.461151 16.2081 0.0590115 17.4478 1.7062C18.7163 3.35338 18.6875 5.63633 17.3325 7.25462C17.1019 7.5147 16.8712 7.80368 16.6406 8.06376C15.8621 9.10409 15.9486 10.3756 16.8424 11.2136C17.7649 12.0517 19.12 12.0517 20.0425 11.0692C21.0228 10.0577 22.1471 9.45087 23.5887 9.45087C26.0392 9.45087 27.9997 11.4159 27.9997 13.9012C28.0285 16.3575 26.0392 18.3226 23.6175 18.3515Z" fill="#191F27"/>
<path d="M14.1612 25.3449C15.1414 25.3449 15.891 24.5935 15.9198 23.611C15.9198 22.6285 15.1126 21.7904 14.1324 21.8193C13.2098 21.8482 12.3449 22.6863 12.3161 23.5532C12.3161 24.5068 13.2098 25.3738 14.1612 25.3449ZM14.19 26.2118C12.6908 26.2118 11.48 25.0559 11.48 23.611C11.48 22.1372 12.7197 20.9524 14.2477 20.9813C15.6604 21.0102 16.8136 22.195 16.8136 23.6399C16.7847 25.0559 15.6027 26.2118 14.19 26.2118Z" fill="white"/>
<path d="M23.589 15.664C24.5692 15.6929 25.3476 14.9415 25.3765 13.959C25.4053 12.9764 24.5981 12.1384 23.6178 12.1095C22.6376 12.1095 21.7727 12.9475 21.7727 13.8723C21.7727 14.8837 22.5511 15.664 23.589 15.664ZM23.5025 16.5309C21.9745 16.4731 20.879 15.3461 20.9078 13.8434C20.9366 12.3696 22.1475 11.2715 23.6755 11.3004C25.1458 11.3293 26.299 12.6008 26.2125 14.0457C26.1549 15.4906 24.944 16.5887 23.5025 16.5309Z" fill="white"/>
<path d="M15.7468 4.48062C15.7468 3.49809 14.9684 2.71784 13.9881 2.71784C12.9791 2.71784 12.143 3.52698 12.143 4.48062C12.143 5.40535 13.0944 6.3012 14.017 6.2723C14.9684 6.2434 15.7468 5.43425 15.7468 4.48062ZM14.017 7.08144C12.5178 7.11034 11.3069 5.98332 11.2781 4.50952C11.2493 3.06462 12.4313 1.8798 13.9017 1.82201C15.3432 1.76421 16.6117 3.00682 16.6117 4.45172C16.6117 5.89662 15.4585 7.05254 14.017 7.08144Z" fill="white"/>
<path d="M4.53183 12.3406C3.5516 12.3406 2.68669 13.1498 2.68669 14.1034C2.68669 14.9992 3.66692 15.8951 4.64715 15.8951C5.54089 15.8951 6.29047 15.0859 6.29047 14.1612C6.3193 13.1498 5.54088 12.3406 4.53183 12.3406ZM4.56066 16.7331C3.03265 16.7331 1.85061 15.635 1.85061 14.1612C1.82178 12.7163 3.00383 11.5604 4.503 11.5315C5.97335 11.5026 7.15538 12.6585 7.15538 14.1612C7.15538 15.5772 6.00217 16.7331 4.56066 16.7331Z" fill="white"/>
<path d="M14.1611 25.3449C13.2097 25.3449 12.3159 24.4779 12.3159 23.5532C12.3159 22.6574 13.1808 21.8193 14.1322 21.8193C15.1125 21.7904 15.9485 22.6285 15.9197 23.611C15.9197 24.6224 15.1701 25.3449 14.1611 25.3449Z" fill="#378241"/>
<path d="M23.5888 15.664C22.5797 15.6352 21.7725 14.8838 21.7725 13.9013C21.7725 12.9765 22.6374 12.1385 23.6176 12.1385C24.5978 12.1385 25.4051 13.0054 25.3762 13.988C25.3474 14.9416 24.569 15.6929 23.5888 15.664Z" fill="#378241"/>
<path d="M15.7468 4.48049C15.7468 5.46302 14.9684 6.24327 14.017 6.27217C13.0945 6.30107 12.1431 5.40523 12.1431 4.48049C12.1431 3.52686 12.9791 2.71771 13.9882 2.71771C14.9684 2.71771 15.7468 3.49796 15.7468 4.48049Z" fill="#378241"/>
<path d="M4.53166 12.3406C5.54072 12.3406 6.31914 13.1208 6.29031 14.1611C6.29031 15.1148 5.54072 15.895 4.64699 15.895C3.66676 15.895 2.68652 14.9992 2.68652 14.1034C2.68652 13.1786 3.55143 12.3406 4.53166 12.3406Z" fill="#378241"/>
</svg>
