<svg width="50" height="50" viewBox="0 0 50 50" fill="none" xmlns="http://www.w3.org/2000/svg">
<circle cx="25" cy="25" r="25" fill="white"/>
<path d="M41.7559 24.3745H16.3081C15.9122 24.3741 15.5203 24.2944 15.1547 24.1401C14.7891 23.9857 14.457 23.7597 14.1774 23.4749C13.8977 23.1901 13.6761 22.8522 13.5249 22.4804C13.3738 22.1085 13.2963 21.7101 13.2967 21.3077C13.2989 20.4973 13.617 19.7207 14.1814 19.1481C14.7458 18.5754 15.5105 18.2534 16.3081 18.2526H21.1994C21.363 18.2526 21.5199 18.1866 21.6358 18.0692C21.7516 17.9518 21.8169 17.7925 21.8174 17.6263C21.8169 17.4606 21.7521 17.3018 21.6369 17.1845C21.5218 17.0672 21.3657 17.0009 21.2027 17H8.23912C7.11564 17.0026 6.03889 17.4573 5.24447 18.2646C4.45002 19.0719 4.00258 20.1661 4 21.3077C4.00301 22.4493 4.45061 23.5432 5.24495 24.3504C6.03928 25.1576 7.11575 25.6124 8.23912 25.6155H33.6884C34.0847 25.6162 34.477 25.6961 34.8427 25.8509C35.2086 26.0056 35.5409 26.2321 35.8206 26.5174C36.1 26.8026 36.3219 27.1411 36.4727 27.5134C36.6235 27.8857 36.7008 28.2846 36.6999 28.6873C36.6985 29.4983 36.3809 30.2757 35.8164 30.8491C35.2519 31.4224 34.4866 31.7449 33.6884 31.7458H28.7973C28.6336 31.7462 28.4769 31.8126 28.3614 31.9303C28.2457 32.048 28.1808 32.2074 28.1808 32.3737C28.1808 32.5398 28.2457 32.6991 28.3614 32.8166C28.4771 32.934 28.6338 33 28.7973 33H41.7607C42.8841 32.9969 43.9605 32.5421 44.755 31.7349C45.5492 30.9277 45.9969 29.8338 46 28.6922C45.9994 27.5481 45.5523 26.4509 44.7567 25.6414C43.9611 24.8319 42.8818 24.3763 41.7559 24.3745ZM8.23912 24.3745C7.4397 24.3732 6.67351 24.0495 6.10887 23.4745C5.54421 22.8994 5.22728 22.1201 5.2277 21.3077C5.23029 20.4974 5.54856 19.7211 6.11289 19.1486C6.67721 18.576 7.44169 18.2539 8.23912 18.2526H9.26955C8.87351 18.6531 8.5593 19.1291 8.34497 19.6535C8.13063 20.1778 8.02042 20.74 8.02065 21.3077C8.02062 21.8772 8.13169 22.441 8.34747 22.9666C8.56324 23.4921 8.87941 23.969 9.2777 24.3696L8.23912 24.3745ZM12.2581 24.3745C11.8622 24.3741 11.4703 24.2944 11.1047 24.1401C10.7391 23.9857 10.407 23.7597 10.1274 23.4749C9.84775 23.1901 9.62605 22.8522 9.47496 22.4804C9.32384 22.1085 9.2463 21.7101 9.24672 21.3077C9.24888 20.497 9.56722 19.7202 10.132 19.1475C10.6968 18.5748 11.4619 18.253 12.2598 18.2526H13.3212C12.9234 18.6522 12.6074 19.128 12.3913 19.6523C12.1753 20.1767 12.0635 20.7393 12.0625 21.3077C12.0625 21.8772 12.1735 22.441 12.3893 22.9666C12.6051 23.4921 12.9213 23.969 13.3196 24.3696L12.2581 24.3745ZM37.9325 28.6823C37.9322 28.1131 37.821 27.5496 37.6053 27.0244C37.3897 26.4991 37.0734 26.0225 36.6755 25.6221H37.7385C38.5369 25.6235 39.3019 25.9463 39.8664 26.5199C40.4309 27.0935 40.7485 27.8711 40.7499 28.6823C40.7499 29.4942 40.4329 30.2729 39.8681 30.8473C39.3033 31.4217 38.5375 31.7449 37.7385 31.7458H36.6755C37.074 31.346 37.3902 30.8697 37.6059 30.3447C37.8216 29.8196 37.9328 29.2563 37.9325 28.6873V28.6823ZM41.7559 31.7458H40.7255C41.124 31.3458 41.4405 30.8693 41.6562 30.3439C41.8722 29.8186 41.9828 29.2549 41.9826 28.6856C41.9823 28.1164 41.8711 27.5529 41.6554 27.0277C41.4397 26.5024 41.1235 26.0258 40.7255 25.6255H41.7559C42.5543 25.6263 43.3202 25.9489 43.885 26.5226C44.4497 27.0963 44.7677 27.8741 44.7688 28.6856C44.7679 29.4972 44.4503 30.2753 43.8853 30.8491C43.3205 31.4228 42.5546 31.7453 41.7559 31.7458Z" fill="#463A6D"/>
</svg>
