<svg width="49" height="49" viewBox="0 0 49 49" fill="none" xmlns="http://www.w3.org/2000/svg">
<path d="M24.5092 1.16651C19.1578 1.16388 13.9527 2.935 9.68956 6.20919C5.42641 9.48338 2.33977 14.0805 0.901425 19.2978C-0.536908 24.5152 -0.247805 30.0658 1.72455 35.1011C3.69691 40.1364 7.24399 44.3794 11.8236 47.1818C12.7557 47.7543 13.825 48.0569 14.9152 48.0569H14.995C15.7916 48.0613 16.5811 47.9058 17.3178 47.5993C18.0546 47.2928 18.7239 46.8414 19.2872 46.2713C19.8504 45.7013 20.2963 45.0236 20.5991 44.278C20.902 43.5322 21.0556 42.7331 21.0513 41.9268V30.6322C21.0501 30.5695 21.0249 30.5098 20.9811 30.4656C20.9373 30.4212 20.8783 30.3957 20.8163 30.3945H17.1328C16.6695 30.4118 16.2076 30.3345 15.7745 30.167C15.3415 29.9994 14.9462 29.7452 14.6124 29.4197C14.2786 29.0939 14.0131 28.7037 13.8318 28.2719C13.6504 27.84 13.5569 27.3755 13.5569 26.9064C13.5569 26.437 13.6504 25.9727 13.8318 25.5408C14.0131 25.1089 14.2786 24.7186 14.6124 24.3929C14.9462 24.0673 15.3415 23.8131 15.7745 23.6456C16.2076 23.4781 16.6695 23.4007 17.1328 23.4181H31.8622C32.3256 23.4007 32.7875 23.4781 33.2206 23.6456C33.6536 23.8131 34.0489 24.0673 34.3827 24.3929C34.7166 24.7186 34.9821 25.1089 35.1633 25.5408C35.3446 25.9727 35.4381 26.437 35.4381 26.9064C35.4381 27.3755 35.3446 27.84 35.1633 28.2719C34.9821 28.7037 34.7166 29.0939 34.3827 29.4197C34.0489 29.7452 33.6536 29.9994 33.2206 30.167C32.7875 30.3345 32.3256 30.4118 31.8622 30.3945H28.188C28.1261 30.3957 28.067 30.4212 28.0234 30.4656C27.9796 30.5098 27.9544 30.5695 27.9532 30.6322V41.9268C27.9644 43.5534 28.6083 45.1099 29.7453 46.259C30.8825 47.4083 32.4214 48.0576 34.0283 48.0665H34.1082C35.2001 48.0658 36.2704 47.7578 37.1996 47.1771C41.7724 44.3718 45.3131 40.1292 47.2808 35.0969C49.2486 30.0643 49.5356 24.5184 48.0981 19.3054C46.6604 14.0924 43.5773 9.4987 39.319 6.22526C35.0607 2.95185 29.8611 1.17855 24.5139 1.17603L24.5092 1.16651ZM7.12525 30.8701C6.34986 30.8711 5.59162 30.6391 4.9465 30.2037C4.30139 29.7682 3.79843 29.1487 3.50126 28.4239C3.20412 27.6991 3.12611 26.9012 3.27715 26.1312C3.4282 25.3615 3.80152 24.6544 4.34979 24.0994C4.89808 23.5444 5.59671 23.1666 6.35726 23.0137C7.1178 22.8608 7.90605 22.9398 8.62224 23.2405C9.33843 23.5413 9.95038 24.0504 10.3806 24.7034C10.8108 25.3563 11.0399 26.1238 11.039 26.9086C11.0366 27.9552 10.626 28.9584 9.89662 29.7003C9.16725 30.4421 8.17799 30.8624 7.14404 30.8701H7.12525ZM24.5092 19.0667C23.3066 19.0676 22.1307 18.7075 21.1303 18.0319C20.1299 17.3563 19.3499 16.3955 18.889 15.2711C18.4281 14.1467 18.3071 12.9093 18.5411 11.7152C18.7752 10.5212 19.3538 9.42429 20.2039 8.56319C21.054 7.70211 22.1373 7.11554 23.3168 6.87773C24.4963 6.63989 25.7189 6.76144 26.8302 7.22706C27.9414 7.69271 28.891 8.48145 29.5594 9.49354C30.2275 10.5056 30.5844 11.6955 30.5844 12.9129C30.5744 14.5402 29.9312 16.0979 28.7937 17.2482C27.6565 18.3984 26.1169 19.0484 24.5092 19.0571V19.0667ZM41.8229 30.8701C41.0477 30.8701 40.2899 30.6374 39.6455 30.2013C39.0008 29.7652 38.4987 29.1455 38.2021 28.4207C37.9058 27.6956 37.8284 26.898 37.98 26.1285C38.1316 25.3589 38.5053 24.6522 39.0537 24.0977C39.6021 23.5432 40.3009 23.1659 41.0612 23.0134C41.8217 22.8609 42.6098 22.9401 43.3257 23.241C44.0417 23.5419 44.6533 24.051 45.0831 24.7038C45.5132 25.3567 45.7422 26.124 45.7412 26.9086C45.7388 27.9594 45.3251 28.9663 44.5905 29.7087C43.856 30.4513 42.8609 30.8688 41.8229 30.8701Z" fill="white"/>
</svg>
