<svg width="154" height="154" viewBox="0 0 154 154" fill="none" xmlns="http://www.w3.org/2000/svg">
<circle cx="77" cy="77" r="77" fill="white"/>
<path d="M121.873 73.6806L117.837 73.2822V68.303H114.339V70.1619C114.339 74.0125 115.886 75.3403 117.77 75.9378H114.339V80.5187C114.339 84.9669 116.559 86.7594 120.864 86.7594C125.169 86.7594 127.389 84.9669 127.389 80.5187V79.9212C127.456 74.61 124.564 73.9461 121.873 73.6806ZM123.958 83.6391H117.837V76.0042C118.51 76.2034 119.249 76.3362 119.922 76.4026L123.958 77.0001V83.6391ZM132.232 68.303C131.156 68.303 130.416 69.0333 130.416 70.0955C130.416 71.1578 131.156 71.888 132.232 71.888C133.309 71.888 134.049 71.1578 134.049 70.0955C134.116 69.0333 133.376 68.303 132.232 68.303ZM140.641 73.6142V70.4938H137.21C137.21 74.942 139.43 76.7345 143.735 76.7345H145.148V73.6142H140.641ZM140.641 76.3362H137.21V80.5187C137.21 84.9669 139.43 86.7594 143.735 86.7594H145.148V83.6391H140.641V76.3362ZM130.551 86.7594H134.049V73.6142H130.551V86.7594Z" fill="#EABC4C"/>
<path d="M72.363 73.6806L68.3269 73.2822V68.303H64.8289V70.1619C64.8289 74.0125 66.3761 75.3403 68.2596 75.9378H64.8289V86.7594H68.3269V76.0042C68.9996 76.2034 69.7395 76.3362 70.4122 76.4026L74.4483 77.0001V86.7594H77.9463V79.9212C77.9463 74.61 75.0537 73.9461 72.363 73.6806ZM57.833 83.6391H53.6623V73.6142H50.1644V80.5187C50.1644 84.9669 52.3842 86.7594 56.6894 86.7594H61.2637V73.6142H57.833V83.6391ZM46.1282 73.6142H42.6303V80.5187C42.6303 84.9669 44.8501 86.7594 49.1553 86.7594H50.568V83.6391H46.061V73.6142H46.1282ZM105.056 73.6142H98.5305V75.2739C98.5305 79.7221 100.75 81.5146 105.056 81.5146H111.581V79.8548C111.581 75.3403 109.361 73.6142 105.056 73.6142ZM108.15 78.6598H105.056H101.961V76.5353H108.083V78.6598H108.15ZM83.0587 68.303C81.9824 68.303 81.2425 69.0333 81.2425 70.0955C81.2425 71.1578 81.9824 71.888 83.0587 71.888C84.135 71.888 84.875 71.1578 84.875 70.0955C84.875 69.0333 84.135 68.303 83.0587 68.303ZM81.3097 86.7594H84.8077V73.6142H81.3097V86.7594ZM91.4673 76.3362H87.9693V80.5187C87.9693 84.9669 90.1892 86.7594 94.4944 86.7594H95.907V83.6391H91.4673V76.3362ZM91.4673 70.4939H87.9693C87.9693 74.942 90.1892 76.7345 94.4944 76.7345H95.907V73.6142H91.4673V70.4939ZM101.961 81.0499H98.4632C98.4632 85.0333 100.683 86.7594 104.988 86.7594H110.841V83.6391H101.894V81.0499H101.961ZM30.8583 64.386C27.6294 64.386 25.0059 66.9752 25.0059 70.1619H17.9427L23.7951 64.386H16.6646C13.4357 64.386 10.8122 66.9752 10.8122 70.1619H10.7449C7.51605 70.1619 4.89258 72.7511 4.89258 75.9378H10.8122V80.2532C10.8122 86.0291 15.5883 90.6764 21.3734 90.6764H32.1364V70.0955L37.9887 64.3196L30.8583 64.386ZM24.7368 79.6557C23.8623 78.7926 23.8623 77.3984 24.7368 76.5353L27.8984 79.6557C27.024 80.5187 25.6113 80.5187 24.7368 79.6557Z" fill="#191A34"/>
</svg>
