<svg width="258" height="258" viewBox="0 0 258 258" fill="none" xmlns="http://www.w3.org/2000/svg">
<circle cx="129" cy="129" r="118.672" stroke="url(#paint0_linear_1480_2617)" stroke-opacity="0.3" stroke-width="10.6562"/>
<path d="M129 8.875C195.343 8.875 249.125 62.6568 249.125 129C249.125 195.343 195.343 249.125 129 249.125C62.6568 249.125 8.875 195.343 8.875 129C8.875 98.466 20.2672 70.5929 39.0331 49.3991" stroke="#2DEA8F" stroke-width="16.4688" stroke-linecap="square"/>
<path d="M129 8.875C195.343 8.875 249.125 62.6568 249.125 129C249.125 195.343 195.343 249.125 129 249.125C62.6568 249.125 8.875 195.343 8.875 129C8.875 98.466 20.2672 70.5929 39.0331 49.3991" stroke="url(#paint1_linear_1480_2617)" stroke-width="16.4688" stroke-linecap="square"/>
<path d="M89.1267 128.202C90.0213 133.761 92.8327 136.54 97.5609 136.54C101.267 136.54 103.855 134.847 105.324 131.461C106.858 128.074 107.56 122.803 107.433 115.647C106.346 118.267 104.462 120.343 101.778 121.877C99.1583 123.346 96.0913 124.081 92.5771 124.081C86.1876 124.081 81.1399 122.164 77.434 118.33C73.7281 114.433 71.8751 108.874 71.8751 101.654C71.8751 97.1173 72.8016 93.0919 74.6545 89.5777C76.5075 86.0634 79.223 83.3479 82.8011 81.431C86.4432 79.4503 90.788 78.4599 95.8357 78.4599C102.672 78.4599 108.008 79.8976 111.841 82.7728C115.675 85.6481 118.327 89.5776 119.796 94.5615C121.266 99.4814 122.001 105.424 122.001 112.388C122.001 124.656 120.116 133.953 116.346 140.278C112.64 146.54 106.378 149.671 97.5609 149.671C92.7049 149.671 88.5197 148.712 85.0055 146.796C81.5552 144.815 78.8716 142.195 76.9547 138.937C75.1018 135.678 74.0475 132.1 73.7919 128.202H89.1267ZM106.187 102.421C106.187 99.4814 105.356 97.1173 103.695 95.3282C102.034 93.4752 99.6055 92.5488 96.4108 92.5488C93.5355 92.5488 91.2672 93.3475 89.606 94.9448C88.0086 96.5422 87.2099 98.8744 87.2099 101.941C87.2099 105.008 88.0405 107.372 89.7018 109.034C91.3631 110.631 93.6313 111.43 96.5066 111.43C99.2541 111.43 101.554 110.663 103.407 109.13C105.26 107.532 106.187 105.296 106.187 102.421ZM131.144 114.401C131.144 125.007 133.284 133.41 137.565 139.607C141.846 145.805 148.683 148.904 158.075 148.904C167.404 148.904 174.209 145.805 178.49 139.607C182.835 133.41 185.007 125.007 185.007 114.401C185.007 103.858 182.835 95.5199 178.49 89.386C174.209 83.1881 167.404 80.0892 158.075 80.0892C148.683 80.0892 141.846 83.1881 137.565 89.386C133.284 95.5199 131.144 103.858 131.144 114.401ZM168.714 114.401C168.714 120.471 167.979 125.167 166.51 128.49C165.104 131.748 162.292 133.378 158.075 133.378C153.794 133.378 150.919 131.748 149.45 128.49C147.98 125.167 147.245 120.471 147.245 114.401C147.245 108.395 147.98 103.762 149.45 100.504C150.919 97.245 153.794 95.6157 158.075 95.6157C162.292 95.6157 165.104 97.245 166.51 100.504C167.979 103.698 168.714 108.331 168.714 114.401Z" fill="#2DEA8F"/>
<path d="M89.1267 128.202C90.0213 133.761 92.8327 136.54 97.5609 136.54C101.267 136.54 103.855 134.847 105.324 131.461C106.858 128.074 107.56 122.803 107.433 115.647C106.346 118.267 104.462 120.343 101.778 121.877C99.1583 123.346 96.0913 124.081 92.5771 124.081C86.1876 124.081 81.1399 122.164 77.434 118.33C73.7281 114.433 71.8751 108.874 71.8751 101.654C71.8751 97.1173 72.8016 93.0919 74.6545 89.5777C76.5075 86.0634 79.223 83.3479 82.8011 81.431C86.4432 79.4503 90.788 78.4599 95.8357 78.4599C102.672 78.4599 108.008 79.8976 111.841 82.7728C115.675 85.6481 118.327 89.5776 119.796 94.5615C121.266 99.4814 122.001 105.424 122.001 112.388C122.001 124.656 120.116 133.953 116.346 140.278C112.64 146.54 106.378 149.671 97.5609 149.671C92.7049 149.671 88.5197 148.712 85.0055 146.796C81.5552 144.815 78.8716 142.195 76.9547 138.937C75.1018 135.678 74.0475 132.1 73.7919 128.202H89.1267ZM106.187 102.421C106.187 99.4814 105.356 97.1173 103.695 95.3282C102.034 93.4752 99.6055 92.5488 96.4108 92.5488C93.5355 92.5488 91.2672 93.3475 89.606 94.9448C88.0086 96.5422 87.2099 98.8744 87.2099 101.941C87.2099 105.008 88.0405 107.372 89.7018 109.034C91.3631 110.631 93.6313 111.43 96.5066 111.43C99.2541 111.43 101.554 110.663 103.407 109.13C105.26 107.532 106.187 105.296 106.187 102.421ZM131.144 114.401C131.144 125.007 133.284 133.41 137.565 139.607C141.846 145.805 148.683 148.904 158.075 148.904C167.404 148.904 174.209 145.805 178.49 139.607C182.835 133.41 185.007 125.007 185.007 114.401C185.007 103.858 182.835 95.5199 178.49 89.386C174.209 83.1881 167.404 80.0892 158.075 80.0892C148.683 80.0892 141.846 83.1881 137.565 89.386C133.284 95.5199 131.144 103.858 131.144 114.401ZM168.714 114.401C168.714 120.471 167.979 125.167 166.51 128.49C165.104 131.748 162.292 133.378 158.075 133.378C153.794 133.378 150.919 131.748 149.45 128.49C147.98 125.167 147.245 120.471 147.245 114.401C147.245 108.395 147.98 103.762 149.45 100.504C150.919 97.245 153.794 95.6157 158.075 95.6157C162.292 95.6157 165.104 97.245 166.51 100.504C167.979 103.698 168.714 108.331 168.714 114.401Z" fill="url(#paint2_linear_1480_2617)"/>
<path d="M74.9827 177.108C74.2697 177.108 73.629 176.984 73.0607 176.737C72.5027 176.478 72.0635 176.127 71.7432 175.683C71.4229 175.228 71.2575 174.706 71.2472 174.117H72.7507C72.8024 174.623 73.009 175.052 73.3707 175.403C73.7427 175.745 74.28 175.915 74.9827 175.915C75.6544 175.915 76.1814 175.75 76.5637 175.419C76.9564 175.078 77.1527 174.644 77.1527 174.117C77.1527 173.704 77.039 173.368 76.8117 173.109C76.5844 172.851 76.3002 172.655 75.9592 172.521C75.6182 172.386 75.1584 172.242 74.5797 172.087C73.8667 171.901 73.2932 171.715 72.8592 171.529C72.4355 171.343 72.0687 171.053 71.7587 170.661C71.459 170.258 71.3092 169.72 71.3092 169.049C71.3092 168.459 71.459 167.938 71.7587 167.483C72.0584 167.028 72.4769 166.677 73.0142 166.429C73.5619 166.181 74.187 166.057 74.8897 166.057C75.9024 166.057 76.729 166.31 77.3697 166.817C78.0207 167.323 78.3875 167.995 78.4702 168.832H76.9202C76.8685 168.418 76.6515 168.057 76.2692 167.747C75.8869 167.426 75.3805 167.266 74.7502 167.266C74.1612 167.266 73.6807 167.421 73.3087 167.731C72.9367 168.031 72.7507 168.454 72.7507 169.002C72.7507 169.395 72.8592 169.715 73.0762 169.963C73.3035 170.211 73.5774 170.402 73.8977 170.537C74.2284 170.66 74.6882 170.805 75.2772 170.97C75.9902 171.167 76.5637 171.363 76.9977 171.56C77.4317 171.746 77.8037 172.04 78.1137 172.443C78.4237 172.836 78.5787 173.373 78.5787 174.055C78.5787 174.582 78.4392 175.078 78.1602 175.543C77.8812 176.008 77.4679 176.385 76.9202 176.674C76.3725 176.964 75.7267 177.108 74.9827 177.108ZM88.9662 172.428C88.9662 172.696 88.9507 172.98 88.9197 173.28H82.1307C82.1824 174.117 82.4666 174.773 82.9832 175.249C83.5102 175.714 84.1457 175.946 84.8897 175.946C85.4994 175.946 86.0057 175.807 86.4087 175.527C86.8221 175.238 87.1114 174.856 87.2767 174.38H88.7957C88.5684 175.197 88.1137 175.863 87.4317 176.38C86.7497 176.886 85.9024 177.139 84.8897 177.139C84.0837 177.139 83.3604 176.959 82.7197 176.597C82.0894 176.235 81.5934 175.724 81.2317 175.063C80.8701 174.391 80.6892 173.616 80.6892 172.738C80.6892 171.859 80.8649 171.089 81.2162 170.428C81.5676 169.767 82.0584 169.26 82.6887 168.909C83.3294 168.547 84.0631 168.366 84.8897 168.366C85.6957 168.366 86.4087 168.542 87.0287 168.894C87.6487 169.245 88.1241 169.731 88.4547 170.351C88.7957 170.96 88.9662 171.653 88.9662 172.428ZM87.5092 172.133C87.5092 171.596 87.3904 171.136 87.1527 170.753C86.9151 170.361 86.5896 170.066 86.1762 169.87C85.7732 169.663 85.3237 169.56 84.8277 169.56C84.1147 169.56 83.5051 169.787 82.9987 170.242C82.5027 170.697 82.2186 171.327 82.1462 172.133H87.5092ZM90.8629 172.738C90.8629 171.859 91.0386 171.095 91.3899 170.444C91.7413 169.782 92.2269 169.271 92.8469 168.909C93.4773 168.547 94.1954 168.366 95.0014 168.366C96.0451 168.366 96.9028 168.62 97.5744 169.126C98.2564 169.632 98.7059 170.335 98.9229 171.234H97.4039C97.2593 170.717 96.9751 170.309 96.5514 170.009C96.1381 169.71 95.6214 169.56 95.0014 169.56C94.1954 169.56 93.5444 169.839 93.0484 170.397C92.5524 170.945 92.3044 171.725 92.3044 172.738C92.3044 173.761 92.5524 174.551 93.0484 175.109C93.5444 175.667 94.1954 175.946 95.0014 175.946C95.6214 175.946 96.1381 175.801 96.5514 175.512C96.9648 175.223 97.2489 174.809 97.4039 174.272H98.9229C98.6956 175.14 98.2409 175.837 97.5589 176.365C96.8769 176.881 96.0244 177.139 95.0014 177.139C94.1954 177.139 93.4773 176.959 92.8469 176.597C92.2269 176.235 91.7413 175.724 91.3899 175.063C91.0386 174.401 90.8629 173.626 90.8629 172.738ZM108.9 168.506V177H107.489V175.745C107.221 176.179 106.843 176.52 106.358 176.768C105.882 177.005 105.355 177.124 104.777 177.124C104.115 177.124 103.521 176.99 102.994 176.721C102.467 176.442 102.049 176.029 101.739 175.481C101.439 174.933 101.289 174.267 101.289 173.482V168.506H102.684V173.296C102.684 174.133 102.896 174.778 103.32 175.233C103.743 175.677 104.322 175.9 105.056 175.9C105.81 175.9 106.404 175.667 106.838 175.202C107.272 174.737 107.489 174.06 107.489 173.172V168.506H108.9ZM113.254 169.886C113.502 169.4 113.853 169.023 114.308 168.754C114.773 168.485 115.336 168.351 115.997 168.351V169.808H115.625C114.044 169.808 113.254 170.666 113.254 172.381V177H111.843V168.506H113.254V169.886ZM118.916 167.127C118.647 167.127 118.42 167.034 118.234 166.848C118.048 166.662 117.955 166.434 117.955 166.165C117.955 165.897 118.048 165.67 118.234 165.484C118.42 165.298 118.647 165.205 118.916 165.205C119.174 165.205 119.391 165.298 119.567 165.484C119.753 165.67 119.846 165.897 119.846 166.165C119.846 166.434 119.753 166.662 119.567 166.848C119.391 167.034 119.174 167.127 118.916 167.127ZM119.598 168.506V177H118.187V168.506H119.598ZM124.284 169.669V174.675C124.284 175.088 124.372 175.383 124.548 175.559C124.723 175.724 125.028 175.806 125.462 175.806H126.501V177H125.23C124.444 177 123.855 176.819 123.463 176.458C123.07 176.096 122.874 175.502 122.874 174.675V169.669H121.773V168.506H122.874V166.367H124.284V168.506H126.501V169.669H124.284ZM136.088 168.506L130.973 180.999H129.516L131.19 176.907L127.764 168.506H129.33L131.996 175.388L134.631 168.506H136.088ZM146.187 177.108C145.474 177.108 144.833 176.984 144.265 176.737C143.707 176.478 143.268 176.127 142.948 175.683C142.627 175.228 142.462 174.706 142.452 174.117H143.955C144.007 174.623 144.213 175.052 144.575 175.403C144.947 175.745 145.484 175.915 146.187 175.915C146.859 175.915 147.386 175.75 147.768 175.419C148.161 175.078 148.357 174.644 148.357 174.117C148.357 173.704 148.243 173.368 148.016 173.109C147.789 172.851 147.505 172.655 147.164 172.521C146.823 172.386 146.363 172.242 145.784 172.087C145.071 171.901 144.498 171.715 144.064 171.529C143.64 171.343 143.273 171.053 142.963 170.661C142.663 170.258 142.514 169.72 142.514 169.049C142.514 168.459 142.663 167.938 142.963 167.483C143.263 167.028 143.681 166.677 144.219 166.429C144.766 166.181 145.391 166.057 146.094 166.057C147.107 166.057 147.933 166.31 148.574 166.817C149.225 167.323 149.592 167.995 149.675 168.832H148.125C148.073 168.418 147.856 168.057 147.474 167.747C147.091 167.426 146.585 167.266 145.955 167.266C145.366 167.266 144.885 167.421 144.513 167.731C144.141 168.031 143.955 168.454 143.955 169.002C143.955 169.395 144.064 169.715 144.281 169.963C144.508 170.211 144.782 170.402 145.102 170.537C145.433 170.66 145.893 170.805 146.482 170.97C147.195 171.167 147.768 171.363 148.202 171.56C148.636 171.746 149.008 172.04 149.318 172.443C149.628 172.836 149.783 173.373 149.783 174.055C149.783 174.582 149.644 175.078 149.365 175.543C149.086 176.008 148.672 176.385 148.125 176.674C147.577 176.964 146.931 177.108 146.187 177.108ZM151.894 172.738C151.894 171.859 152.069 171.095 152.421 170.444C152.772 169.782 153.258 169.271 153.878 168.909C154.508 168.547 155.226 168.366 156.032 168.366C157.076 168.366 157.933 168.62 158.605 169.126C159.287 169.632 159.737 170.335 159.954 171.234H158.435C158.29 170.717 158.006 170.309 157.582 170.009C157.169 169.71 156.652 169.56 156.032 169.56C155.226 169.56 154.575 169.839 154.079 170.397C153.583 170.945 153.335 171.725 153.335 172.738C153.335 173.761 153.583 174.551 154.079 175.109C154.575 175.667 155.226 175.946 156.032 175.946C156.652 175.946 157.169 175.801 157.582 175.512C157.995 175.223 158.28 174.809 158.435 174.272H159.954C159.726 175.14 159.272 175.837 158.59 176.365C157.908 176.881 157.055 177.139 156.032 177.139C155.226 177.139 154.508 176.959 153.878 176.597C153.258 176.235 152.772 175.724 152.421 175.063C152.069 174.401 151.894 173.626 151.894 172.738ZM166.102 177.139C165.306 177.139 164.583 176.959 163.932 176.597C163.291 176.235 162.785 175.724 162.413 175.063C162.051 174.391 161.87 173.616 161.87 172.738C161.87 171.87 162.056 171.105 162.428 170.444C162.811 169.772 163.327 169.26 163.978 168.909C164.629 168.547 165.358 168.366 166.164 168.366C166.97 168.366 167.698 168.547 168.349 168.909C169 169.26 169.512 169.767 169.884 170.428C170.266 171.089 170.457 171.859 170.457 172.738C170.457 173.616 170.261 174.391 169.868 175.063C169.486 175.724 168.964 176.235 168.303 176.597C167.642 176.959 166.908 177.139 166.102 177.139ZM166.102 175.9C166.608 175.9 167.084 175.781 167.528 175.543C167.972 175.305 168.329 174.949 168.597 174.474C168.876 173.998 169.016 173.42 169.016 172.738C169.016 172.056 168.882 171.477 168.613 171.001C168.344 170.526 167.993 170.175 167.559 169.948C167.125 169.71 166.655 169.591 166.148 169.591C165.632 169.591 165.156 169.71 164.722 169.948C164.299 170.175 163.958 170.526 163.699 171.001C163.441 171.477 163.312 172.056 163.312 172.738C163.312 173.43 163.436 174.014 163.684 174.489C163.942 174.964 164.283 175.321 164.707 175.559C165.131 175.786 165.596 175.9 166.102 175.9ZM174.284 169.886C174.532 169.4 174.884 169.023 175.338 168.754C175.803 168.485 176.367 168.351 177.028 168.351V169.808H176.656C175.075 169.808 174.284 170.666 174.284 172.381V177H172.874V168.506H174.284V169.886ZM186.968 172.428C186.968 172.696 186.952 172.98 186.921 173.28H180.132C180.184 174.117 180.468 174.773 180.985 175.249C181.512 175.714 182.147 175.946 182.891 175.946C183.501 175.946 184.007 175.807 184.41 175.527C184.824 175.238 185.113 174.856 185.278 174.38H186.797C186.57 175.197 186.115 175.863 185.433 176.38C184.751 176.886 183.904 177.139 182.891 177.139C182.085 177.139 181.362 176.959 180.721 176.597C180.091 176.235 179.595 175.724 179.233 175.063C178.872 174.391 178.691 173.616 178.691 172.738C178.691 171.859 178.867 171.089 179.218 170.428C179.569 169.767 180.06 169.26 180.69 168.909C181.331 168.547 182.065 168.366 182.891 168.366C183.697 168.366 184.41 168.542 185.03 168.894C185.65 169.245 186.126 169.731 186.456 170.351C186.797 170.96 186.968 171.653 186.968 172.428ZM185.511 172.133C185.511 171.596 185.392 171.136 185.154 170.753C184.917 170.361 184.591 170.066 184.178 169.87C183.775 169.663 183.325 169.56 182.829 169.56C182.116 169.56 181.507 169.787 181 170.242C180.504 170.697 180.22 171.327 180.148 172.133H185.511Z" fill="#828282"/>
<defs>
<linearGradient id="paint0_linear_1480_2617" x1="5" y1="5" x2="379.279" y2="135.519" gradientUnits="userSpaceOnUse">
<stop stop-color="#4EECAC"/>
<stop offset="0.723958" stop-color="#8DC7ED"/>
<stop offset="1" stop-color="#8285F0"/>
</linearGradient>
<linearGradient id="paint1_linear_1480_2617" x1="8.875" y1="8.875" x2="371.458" y2="135.316" gradientUnits="userSpaceOnUse">
<stop stop-color="#4EECAC"/>
<stop offset="0.723958" stop-color="#8DC7ED"/>
<stop offset="1" stop-color="#8285F0"/>
</linearGradient>
<linearGradient id="paint2_linear_1480_2617" x1="67.9687" y1="43" x2="256.805" y2="98.2088" gradientUnits="userSpaceOnUse">
<stop stop-color="#4EECAC"/>
<stop offset="0.723958" stop-color="#8DC7ED"/>
<stop offset="1" stop-color="#8285F0"/>
</linearGradient>
</defs>
</svg>
