<svg width="259" height="114" viewBox="0 0 259 114" fill="none" xmlns="http://www.w3.org/2000/svg">
<path d="M37.5982 71.1166L26.8065 75.8218V75.3469C24.7345 75.8649 22.4035 76.1671 20.2452 76.2966C10.0578 76.2103 2.02884 70.8576 1.89934 64.5553V62.2243C5.22317 67.0589 12.0435 70.3396 20.2452 70.2101C23.0079 70.3396 25.8569 69.908 28.231 69.2605L29.1807 66.9294C26.3749 67.7928 23.2669 68.3539 20.2452 68.3539C10.0578 68.3539 2.02884 63.0444 1.89934 56.6126V54.7133C5.22317 59.2026 12.0435 62.4401 20.2452 62.2243C23.9575 62.4401 27.5404 61.6631 30.6052 60.3249L31.08 57.9939C28.1015 59.5479 24.2597 60.4544 20.2884 60.3249C10.101 60.4544 2.072 55.1449 1.9425 48.5836V46.6842C5.26634 51.2599 12.0867 54.5406 20.2884 54.6701C24.9504 54.5406 29.3534 53.2888 32.9794 51.3894L33.4542 48.5836C30.1735 51.0009 25.382 52.5981 20.2884 52.8139C10.101 52.5981 2.072 47.2454 1.9425 40.5977C2.02884 34.2522 10.101 28.9427 20.2884 28.8564C26.3317 28.9427 31.9865 31.0579 35.3104 34.5112L35.6557 35.0724H38.0299L37.6846 34.5112C34.3607 29.9787 27.6699 27.0002 20.2884 27.0002C8.97868 26.9571 0 33.1299 0 40.5546V41.0294V64.9869C0.388501 72.2389 9.15135 78.1528 20.202 78.1528C27.4972 78.196 34.1017 75.3038 37.5982 71.1166Z" fill="white"/>
<path d="M33.1936 87.649L36.9923 71.5046L26.0711 76.253L32.7188 48.2809H19.9414L23.2652 34.5107H64.0578L60.734 48.2809H47.4386L44.5896 55.8783L59.3095 49.7054L33.1936 87.649ZM39.8413 68.2239L37.9419 77.7206L53.6115 54.0221L40.7909 59.7201L46.4889 46.4247H59.3095L61.6836 36.4532H24.6466L22.2724 46.4247H35.0929L28.9201 72.9723L39.8413 68.2239Z" fill="#FABF2C"/>
<path d="M91.1245 43.7496V43.7928C91.1677 45.3036 90.6928 46.4691 89.7432 47.3325C88.7935 48.1958 87.4985 48.6275 85.815 48.6275C84.1315 48.6275 82.7502 48.0663 81.7142 46.9871C80.6782 45.908 80.1602 44.4834 80.1602 42.7568V39.9509C80.1602 38.2243 80.6782 36.7998 81.671 35.7206C82.707 34.6414 84.0452 34.0803 85.6855 34.0803C87.4122 34.0803 88.7503 34.5119 89.7432 35.3321C90.736 36.1954 91.2108 37.3609 91.1677 38.8718V38.9149H88.405C88.405 38.0084 88.1892 37.3178 87.7575 36.8861C87.3258 36.4544 86.6352 36.2386 85.7287 36.2386C84.8653 36.2386 84.2178 36.5839 83.743 37.2746C83.2682 37.9653 83.0092 38.8286 83.0092 39.9078V42.7568C83.0092 43.8359 83.2682 44.7425 83.743 45.4331C84.261 46.1238 84.9517 46.4691 85.8582 46.4691C86.7215 46.4691 87.3258 46.2533 87.7575 45.8216C88.1892 45.39 88.405 44.6993 88.405 43.7928H91.1245V43.7496ZM106.751 42.6273C106.751 44.354 106.19 45.8216 105.111 46.944C104.031 48.0663 102.607 48.6275 100.837 48.6275C99.0672 48.6275 97.6858 48.0663 96.5635 46.944C95.4843 45.8216 94.9232 44.354 94.9232 42.6273V40.0805C94.9232 38.3538 95.4843 36.9293 96.5635 35.7638C97.6427 34.6414 99.0672 34.0371 100.794 34.0371C102.564 34.0371 103.988 34.5983 105.067 35.7638C106.19 36.8861 106.708 38.3538 106.708 40.0805V42.6273H106.751ZM103.902 40.0373C103.902 38.9149 103.643 38.0516 103.082 37.3178C102.521 36.6271 101.787 36.2386 100.794 36.2386C99.8442 36.2386 99.0672 36.5839 98.5492 37.3178C98.0312 38.0085 97.729 38.9149 97.729 40.0373V42.5841C97.729 43.7065 97.988 44.6129 98.5492 45.3468C99.0672 46.0375 99.8442 46.426 100.794 46.426C101.787 46.426 102.521 46.0806 103.082 45.3468C103.643 44.6561 103.902 43.7065 103.902 42.5841V40.0373ZM114.089 48.4116H111.24V34.2529H114.089V48.4116ZM130.449 48.4116H127.6L121.902 38.8718H121.859V48.4116H119.01V34.2529H121.859L127.557 43.7928H127.6V34.2529H130.449V48.4116ZM144.738 36.4544H140.68V48.4116H137.831V36.4544H133.86V34.2529H144.738V36.4544ZM156.479 42.1956H151.213V46.2533H157.472V48.4116H148.407V34.2529H157.472V36.4544H151.256V39.9941H156.522V42.1956H156.479ZM164.378 46.2533H170.724V48.4116H161.529V34.2529H164.378V46.2533ZM182.811 42.1956H177.544V46.2533H183.803V48.4116H174.738V34.2529H183.803V36.4544H177.587V39.9941H182.854V42.1956H182.811ZM198.739 46.5123C198.307 47.0735 197.66 47.5915 196.753 48.0231C195.89 48.4548 194.768 48.6706 193.386 48.6706C191.66 48.6706 190.278 48.1526 189.199 47.0735C188.12 45.9943 187.559 44.613 187.559 42.8863V39.9078C187.559 38.1811 188.077 36.7998 189.156 35.7206C190.192 34.6414 191.573 34.0803 193.214 34.0803C194.94 34.0803 196.279 34.5119 197.185 35.3321C198.092 36.1523 198.566 37.2314 198.523 38.6128V38.6559H195.847C195.847 37.9221 195.631 37.3178 195.199 36.8861C194.768 36.4544 194.12 36.2386 193.3 36.2386C192.437 36.2386 191.746 36.5839 191.185 37.2314C190.667 37.9221 190.408 38.7854 190.408 39.8214V42.7999C190.408 43.8791 190.667 44.7425 191.228 45.4331C191.789 46.1238 192.523 46.426 193.43 46.426C194.12 46.426 194.638 46.3396 195.027 46.2101C195.415 46.0806 195.717 45.908 195.933 45.6921V42.9295H193.214V40.9438H198.782V46.5123H198.739ZM206.077 42.7568V48.4116H203.228V34.2529H208.149C209.747 34.2529 211.042 34.6414 211.948 35.3753C212.855 36.1091 213.329 37.1451 213.329 38.4401C213.329 39.1739 213.157 39.7783 212.768 40.3395C212.38 40.8575 211.819 41.2891 211.085 41.6345C211.905 41.8935 212.509 42.282 212.898 42.8863C213.243 43.4475 213.459 44.1813 213.459 45.0446V46.0806C213.459 46.4691 213.502 46.9008 213.632 47.3325C213.718 47.7641 213.934 48.0663 214.193 48.2821V48.498H211.258C210.999 48.2821 210.826 47.9368 210.74 47.462C210.653 46.9871 210.61 46.5123 210.61 46.0806V45.0878C210.61 44.3971 210.437 43.836 210.049 43.4475C209.66 43.059 209.099 42.8431 208.408 42.8431H206.077V42.7568ZM206.077 40.5984H208.106C208.883 40.5984 209.488 40.4258 209.876 40.0805C210.265 39.7351 210.48 39.2603 210.48 38.5696C210.48 37.9221 210.265 37.4041 209.876 37.0156C209.488 36.6271 208.926 36.4544 208.149 36.4544H206.077V40.5984ZM225.373 45.39H220.797L219.848 48.4548H216.869L221.661 34.2961H224.553L229.301 48.4548H226.323L225.373 45.39ZM221.488 43.1453H224.682L223.128 38.1379H223.085L221.488 43.1453ZM235.604 43.2748V48.4116H232.755V34.2529H238.194C239.834 34.2529 241.086 34.6846 242.035 35.5048C242.985 36.3249 243.417 37.4473 243.417 38.7854C243.417 40.1236 242.942 41.246 242.035 42.0661C241.086 42.8863 239.834 43.318 238.194 43.318H235.604V43.2748ZM235.604 41.1164H238.194C238.971 41.1164 239.575 40.9006 240.007 40.4689C240.395 40.0373 240.611 39.4761 240.611 38.8286C240.611 38.138 240.395 37.5768 240.007 37.1451C239.618 36.7134 239.014 36.4976 238.194 36.4976H235.604V41.1164ZM259 48.4116H256.151V42.5409H250.367V48.4116H247.518V34.2529H250.367V40.3395H256.151V34.2529H259V48.4116Z" fill="white"/>
<path d="M85.3431 71.5484H83.5732V62.2244H80.3789V60.7135H88.5374V62.2244H85.3431V71.5484ZM97.2139 71.5484H95.4441V66.4979C95.4441 65.8504 95.3146 65.3755 95.0556 65.0734C94.7966 64.7712 94.4081 64.5985 93.8469 64.5985C93.1131 64.5985 92.5951 64.8144 92.2498 65.246C91.9044 65.6777 91.7318 66.4115 91.7318 67.4475V71.5052H90.0051V59.9797H91.7318V62.915C91.7318 63.3899 91.6886 63.8647 91.6454 64.4259H91.7749C91.9908 64.0374 92.3361 63.7352 92.7678 63.5194C93.1994 63.3035 93.6743 63.174 94.2354 63.174C96.2211 63.174 97.2139 64.1669 97.2139 66.1957V71.5484ZM103.214 71.6779C101.919 71.6779 100.926 71.2894 100.236 70.5555C99.5018 69.8217 99.1564 68.7857 99.1564 67.4907C99.1564 66.1525 99.5018 65.1165 100.149 64.3395C100.797 63.5625 101.746 63.174 102.912 63.174C103.991 63.174 104.854 63.5194 105.459 64.1669C106.106 64.8144 106.408 65.7209 106.408 66.8864V67.836H100.926C100.969 68.613 101.185 69.2605 101.574 69.649C101.962 70.0807 102.567 70.2965 103.3 70.2965C103.775 70.2965 104.25 70.2534 104.639 70.167C105.07 70.0807 105.502 69.908 105.977 69.6922V71.1167C105.545 71.3325 105.113 71.462 104.682 71.5484C104.293 71.6347 103.775 71.6779 103.214 71.6779ZM102.912 64.5122C102.351 64.5122 101.919 64.6849 101.574 65.0302C101.228 65.3755 101.056 65.8935 100.969 66.5842H104.682C104.682 65.8935 104.509 65.3755 104.207 65.0302C103.905 64.6849 103.473 64.5122 102.912 64.5122ZM116.423 64.6417H114.437V71.5484H112.668V64.6417H111.329V63.8215L112.668 63.3035V62.7855C112.668 61.8359 112.883 61.102 113.358 60.6272C113.833 60.1524 114.524 59.9365 115.43 59.9365C116.035 59.9365 116.639 60.0228 117.243 60.2387L116.768 61.5769C116.337 61.4474 115.948 61.361 115.517 61.361C115.128 61.361 114.826 61.4905 114.653 61.7064C114.481 61.9654 114.394 62.3107 114.394 62.7855V63.3035H116.38V64.6417H116.423ZM123.632 71.5484L123.373 70.4692H123.287C123.028 70.8577 122.682 71.1599 122.251 71.3757C121.819 71.5915 121.301 71.721 120.74 71.721C119.747 71.721 119.013 71.462 118.495 70.9872C117.977 70.5124 117.761 69.7354 117.761 68.7425V63.3467H119.531V68.3972C119.531 69.0447 119.661 69.4764 119.92 69.8217C120.179 70.1239 120.567 70.2965 121.128 70.2965C121.862 70.2965 122.38 70.0807 122.725 69.649C123.071 69.2174 123.243 68.4835 123.243 67.4475V63.3467H125.013V71.5484H123.632ZM130.539 70.2534C130.97 70.2534 131.402 70.167 131.834 70.0375V71.3325C131.661 71.4189 131.402 71.5052 131.1 71.5484C130.798 71.5915 130.495 71.6347 130.15 71.6347C128.51 71.6347 127.69 70.7714 127.69 69.0447V64.6417H126.567V63.8647L127.776 63.2172L128.38 61.4905H129.459V63.3035H131.79V64.6417H129.459V69.0447C129.459 69.4764 129.546 69.7785 129.762 69.9944C129.891 70.167 130.193 70.2534 130.539 70.2534ZM139.215 71.5484L138.956 70.4692H138.87C138.611 70.8577 138.265 71.1599 137.834 71.3757C137.402 71.5915 136.884 71.721 136.323 71.721C135.33 71.721 134.596 71.462 134.078 70.9872C133.603 70.5124 133.344 69.7354 133.344 68.7425V63.3467H135.114V68.3972C135.114 69.0447 135.244 69.4764 135.503 69.8217C135.762 70.1239 136.15 70.2965 136.711 70.2965C137.445 70.2965 137.963 70.0807 138.309 69.649C138.654 69.2174 138.827 68.4835 138.827 67.4475V63.3467H140.596V71.5484H139.215ZM147.244 63.174C147.59 63.174 147.892 63.2172 148.107 63.2604L147.935 64.9007C147.676 64.8575 147.417 64.8144 147.158 64.8144C146.467 64.8144 145.906 65.0302 145.474 65.505C145.043 65.9799 144.827 66.541 144.827 67.2749V71.5484H143.1V63.3467H144.481L144.697 64.7712H144.784C145.043 64.2964 145.431 63.9079 145.863 63.6057C146.251 63.3467 146.726 63.174 147.244 63.174ZM152.899 71.6779C151.604 71.6779 150.611 71.2894 149.921 70.5555C149.187 69.8217 148.841 68.7857 148.841 67.4907C148.841 66.1525 149.187 65.1165 149.834 64.3395C150.482 63.5625 151.431 63.174 152.597 63.174C153.676 63.174 154.539 63.5194 155.144 64.1669C155.791 64.8144 156.093 65.7209 156.093 66.8864V67.836H150.611C150.654 68.613 150.87 69.2605 151.259 69.649C151.647 70.0807 152.252 70.2965 152.985 70.2965C153.46 70.2965 153.935 70.2534 154.324 70.167C154.755 70.0807 155.187 69.908 155.662 69.6922V71.1167C155.23 71.3325 154.798 71.462 154.367 71.5484C153.935 71.6347 153.46 71.6779 152.899 71.6779ZM152.597 64.5122C152.036 64.5122 151.604 64.6849 151.259 65.0302C150.913 65.3755 150.741 65.8935 150.654 66.5842H154.367C154.367 65.8935 154.194 65.3755 153.892 65.0302C153.547 64.6849 153.115 64.5122 152.597 64.5122ZM169.259 67.4044C169.259 68.7425 168.914 69.7785 168.223 70.5555C167.533 71.2894 166.583 71.6779 165.374 71.6779C164.597 71.6779 163.95 71.5052 163.345 71.1599C162.741 70.8145 162.309 70.2965 162.007 69.649C161.705 69.0015 161.532 68.2677 161.532 67.4044C161.532 66.0662 161.878 65.0302 162.568 64.2964C163.259 63.5625 164.209 63.174 165.461 63.174C166.626 63.174 167.576 63.5625 168.266 64.3395C168.957 65.1165 169.259 66.1094 169.259 67.4044ZM163.302 67.4044C163.302 69.3037 163.993 70.2534 165.417 70.2534C166.799 70.2534 167.489 69.3037 167.489 67.4044C167.489 65.5482 166.799 64.5985 165.417 64.5985C164.684 64.5985 164.166 64.8575 163.82 65.3324C163.475 65.8072 163.302 66.4979 163.302 67.4044ZM175.389 64.6417H173.403V71.5484H171.633V64.6417H170.295V63.8215L171.633 63.3035V62.7855C171.633 61.8359 171.849 61.102 172.324 60.6272C172.799 60.1524 173.49 59.9365 174.396 59.9365C175 59.9365 175.605 60.0228 176.209 60.2387L175.734 61.5769C175.303 61.4474 174.914 61.361 174.482 61.361C174.094 61.361 173.792 61.4905 173.619 61.7064C173.446 61.9222 173.36 62.3107 173.36 62.7855V63.3035H175.346V64.6417H175.389ZM187.648 71.5484H185.878V66.4979C185.878 65.8504 185.749 65.4187 185.533 65.0734C185.317 64.7712 184.929 64.5985 184.411 64.5985C183.72 64.5985 183.245 64.8144 182.943 65.246C182.641 65.6777 182.468 66.4115 182.468 67.4475V71.5484H180.742V63.3467H182.123L182.382 64.4259H182.468C182.684 64.0374 183.029 63.7352 183.461 63.5194C183.893 63.3035 184.368 63.2172 184.886 63.2172C186.137 63.2172 187.001 63.6489 187.389 64.5122H187.519C187.778 64.1237 188.123 63.7784 188.555 63.5625C188.986 63.3467 189.504 63.2172 190.066 63.2172C191.058 63.2172 191.749 63.4762 192.224 63.951C192.656 64.4259 192.915 65.2029 192.915 66.1957V71.5484H191.188V66.4979C191.188 65.8504 191.058 65.4187 190.843 65.0734C190.584 64.7712 190.238 64.5985 189.72 64.5985C189.03 64.5985 188.555 64.8144 188.253 65.246C187.95 65.6777 187.778 66.3252 187.778 67.1885V71.5484H187.648ZM202.498 67.4044C202.498 68.7425 202.152 69.7785 201.462 70.5555C200.771 71.2894 199.821 71.6779 198.613 71.6779C197.836 71.6779 197.188 71.5052 196.584 71.1599C195.979 70.8145 195.548 70.2965 195.246 69.649C194.943 69.0015 194.771 68.2677 194.771 67.4044C194.771 66.0662 195.116 65.0302 195.807 64.2964C196.497 63.5625 197.447 63.174 198.699 63.174C199.864 63.174 200.814 63.5625 201.505 64.3395C202.152 65.1165 202.498 66.1094 202.498 67.4044ZM196.541 67.4044C196.541 69.3037 197.231 70.2534 198.656 70.2534C200.037 70.2534 200.728 69.3037 200.728 67.4044C200.728 65.5482 200.037 64.5985 198.656 64.5985C197.922 64.5985 197.404 64.8575 197.059 65.3324C196.713 65.8072 196.541 66.4979 196.541 67.4044ZM211.735 71.5484H209.965V66.4979C209.965 65.8504 209.836 65.3755 209.577 65.0734C209.318 64.7712 208.929 64.5985 208.368 64.5985C207.634 64.5985 207.073 64.8144 206.771 65.246C206.469 65.6777 206.253 66.4115 206.253 67.4475V71.5484H204.526V63.3467H205.908L206.167 64.4259H206.253C206.512 64.0374 206.857 63.7352 207.289 63.5194C207.721 63.3035 208.239 63.2172 208.8 63.2172C210.786 63.2172 211.735 64.21 211.735 66.2389V71.5484ZM217.735 71.6779C216.44 71.6779 215.448 71.2894 214.757 70.5555C214.023 69.8217 213.678 68.7857 213.678 67.4907C213.678 66.1525 214.023 65.1165 214.671 64.3395C215.318 63.5625 216.268 63.174 217.433 63.174C218.512 63.174 219.376 63.5194 219.98 64.1669C220.628 64.8144 220.93 65.7209 220.93 66.8864V67.836H215.448C215.491 68.613 215.707 69.2605 216.095 69.649C216.484 70.0807 217.088 70.2965 217.822 70.2965C218.297 70.2965 218.771 70.2534 219.16 70.167C219.548 70.0807 220.023 69.908 220.498 69.6922V71.1167C220.066 71.3325 219.635 71.462 219.203 71.5484C218.771 71.6347 218.297 71.6779 217.735 71.6779ZM217.39 64.5122C216.829 64.5122 216.397 64.6849 216.052 65.0302C215.707 65.3755 215.534 65.8935 215.448 66.5842H219.16C219.16 65.8935 218.987 65.3755 218.685 65.0302C218.383 64.6849 217.951 64.5122 217.39 64.5122ZM221.361 63.3467H223.261L224.944 68.0087C225.203 68.6562 225.376 69.3037 225.462 69.8649H225.505C225.549 69.6059 225.635 69.2605 225.764 68.872C225.894 68.4835 226.498 66.6274 227.664 63.3467H229.563L226.067 72.6275C225.419 74.311 224.383 75.1744 222.872 75.1744C222.484 75.1744 222.095 75.1312 221.75 75.0449V73.6635C222.009 73.7067 222.311 73.7499 222.656 73.7499C223.477 73.7499 224.081 73.275 224.426 72.2822L224.728 71.5052L221.361 63.3467Z" fill="white"/>
</svg>
