<svg width="300" height="301" viewBox="0 0 300 301" fill="none" xmlns="http://www.w3.org/2000/svg">
<path fill-rule="evenodd" clip-rule="evenodd" d="M150.001 47.3877C100.311 47.3877 59.8906 87.8081 59.8906 137.498C59.8906 187.187 100.311 227.608 150.001 227.608C199.69 227.608 240.111 187.187 240.111 137.498C240.111 87.8081 199.69 47.3877 150.001 47.3877ZM231.486 133.263C230.599 116.148 224.431 100.426 214.573 87.6764C208.217 91.4849 200.995 94.6781 193.166 97.1789C196.083 108.128 197.838 120.356 198.162 133.263H231.486ZM194.278 112.217C195.428 119.548 196.091 127.278 196.201 135.263H196.201C196.091 127.278 195.428 119.548 194.278 112.217ZM154.198 97.0022C153.55 97.0199 152.901 97.0331 152.251 97.0424V97.0427C152.901 97.0334 153.55 97.0199 154.198 97.0022ZM169.748 66.9165C164.97 61.2089 159.706 57.6114 154.251 56.3796V95C164.146 94.723 173.743 93.4605 182.636 91.3069C179.249 81.3153 174.826 72.9823 169.748 66.9165ZM145.751 56.3921V94.9975C135.856 94.709 126.26 93.4465 117.366 91.3042C120.753 81.3138 125.175 72.9819 130.253 66.9186C135.031 61.2121 140.296 57.618 145.751 56.3921ZM147.751 101.543V101.543C135.781 101.363 124.156 99.8177 113.506 97.0277C113.506 97.0277 113.506 97.0278 113.506 97.0278C124.156 99.8178 135.781 101.363 147.751 101.543ZM145.751 103.501C135.038 103.206 124.615 101.83 114.924 99.4508C112.265 109.639 110.645 121.105 110.339 133.263H145.751V103.501ZM145.751 141.733V170.52C134.953 170.816 124.446 172.217 114.685 174.624C112.176 164.671 110.64 153.532 110.34 141.733H145.751ZM117.061 182.803C126.039 180.605 135.744 179.314 145.751 179.035V218.632C140.208 217.383 134.865 213.695 130.03 207.835C124.891 201.607 120.436 193.05 117.061 182.803ZM154.251 218.63V179.038C164.259 179.327 173.964 180.608 182.94 182.803C179.565 193.05 175.11 201.603 169.972 207.829C165.137 213.686 159.794 217.376 154.251 218.63ZM185.317 174.636C175.553 172.219 165.046 170.829 154.251 170.535V141.748H189.661C189.361 153.545 187.826 164.673 185.317 174.636ZM163.471 173.066C171.559 173.776 179.388 175.121 186.751 177.068C186.751 177.068 186.751 177.068 186.751 177.067C179.388 175.121 171.559 173.776 163.471 173.066ZM154.251 133.263V103.501C164.952 103.206 175.386 101.83 185.077 99.4508C187.737 109.638 189.357 121.093 189.662 133.263H154.251ZM163.625 100.953C171.564 100.245 179.259 98.9236 186.496 97.0277C186.496 97.0278 186.496 97.0279 186.496 97.0279C179.259 98.9238 171.564 100.245 163.625 100.953ZM190.703 89.049C197.381 86.9237 203.518 84.2595 208.941 81.1298C199.51 71.2713 187.645 63.763 174.322 59.5901C181.018 66.8785 186.617 77.0415 190.703 89.049ZM109.314 89.0463C113.4 77.0408 118.998 66.8789 125.694 59.5975C112.361 63.7608 100.495 71.2682 91.0635 81.1269C96.4884 84.2463 102.634 86.9106 109.314 89.0463ZM68.5306 133.263C69.4159 116.149 75.5711 100.428 85.4257 87.6796C91.7713 91.4998 98.9947 94.6929 106.834 97.1823C103.916 108.128 102.15 120.343 101.837 133.263H68.5306ZM107.4 103.304C105.214 113.17 103.944 123.951 103.801 135.263H103.8C103.943 123.951 105.214 113.17 107.4 103.304ZM104.379 151.452C105.177 160.979 106.782 170.001 109.051 178.253C109.051 178.253 109.05 178.253 109.05 178.253C106.781 170.001 105.177 160.979 104.379 151.452ZM68.5299 141.748C69.3944 158.561 75.3606 174.037 84.9357 186.652C91.3399 182.735 98.6664 179.46 106.623 176.914C103.844 166.204 102.161 154.302 101.853 141.748H68.5299ZM125.682 215.41C112.085 211.157 99.9962 203.419 90.4697 193.248C95.9547 190.021 102.198 187.271 109.002 185.074C113.115 197.464 118.825 207.949 125.682 215.41ZM176.356 209.81C181.747 202.647 186.307 193.353 189.691 182.573C189.691 182.573 189.691 182.573 189.691 182.573C186.306 193.353 181.747 202.647 176.356 209.81ZM209.517 193.237C200 203.419 187.911 211.16 174.302 215.413C181.16 207.951 186.871 197.465 190.985 185.073C197.797 187.269 204.032 190.018 209.517 193.237ZM231.485 141.748C230.607 158.561 224.641 174.037 215.08 186.651C208.676 182.735 201.349 179.46 193.393 176.914C196.172 166.204 197.855 154.302 198.163 141.748H231.485ZM190.966 178.253C194.146 166.688 196.021 153.608 196.201 139.748H196.201C196.021 153.608 194.146 166.688 190.966 178.253C190.966 178.253 190.966 178.253 190.966 178.253Z" fill="black"/>
<path fill-rule="evenodd" clip-rule="evenodd" d="M150.001 47.3877C100.311 47.3877 59.8906 87.8081 59.8906 137.498C59.8906 187.187 100.311 227.608 150.001 227.608C199.69 227.608 240.111 187.187 240.111 137.498C240.111 87.8081 199.69 47.3877 150.001 47.3877ZM231.486 133.263C230.599 116.148 224.431 100.426 214.573 87.6764C208.217 91.4849 200.995 94.6781 193.166 97.1789C196.083 108.128 197.838 120.356 198.162 133.263H231.486ZM194.278 112.217C195.428 119.548 196.091 127.278 196.201 135.263H196.201C196.091 127.278 195.428 119.548 194.278 112.217ZM154.198 97.0022C153.55 97.0199 152.901 97.0331 152.251 97.0424V97.0427C152.901 97.0334 153.55 97.0199 154.198 97.0022ZM169.748 66.9165C164.97 61.2089 159.706 57.6114 154.251 56.3796V95C164.146 94.723 173.743 93.4605 182.636 91.3069C179.249 81.3153 174.826 72.9823 169.748 66.9165ZM145.751 56.3921V94.9975C135.856 94.709 126.26 93.4465 117.366 91.3042C120.753 81.3138 125.175 72.9819 130.253 66.9186C135.031 61.2121 140.296 57.618 145.751 56.3921ZM147.751 101.543V101.543C135.781 101.363 124.156 99.8177 113.506 97.0277C113.506 97.0277 113.506 97.0278 113.506 97.0278C124.156 99.8178 135.781 101.363 147.751 101.543ZM145.751 103.501C135.038 103.206 124.615 101.83 114.924 99.4508C112.265 109.639 110.645 121.105 110.339 133.263H145.751V103.501ZM145.751 141.733V170.52C134.953 170.816 124.446 172.217 114.685 174.624C112.176 164.671 110.64 153.532 110.34 141.733H145.751ZM117.061 182.803C126.039 180.605 135.744 179.314 145.751 179.035V218.632C140.208 217.383 134.865 213.695 130.03 207.835C124.891 201.607 120.436 193.05 117.061 182.803ZM154.251 218.63V179.038C164.259 179.327 173.964 180.608 182.94 182.803C179.565 193.05 175.11 201.603 169.972 207.829C165.137 213.686 159.794 217.376 154.251 218.63ZM185.317 174.636C175.553 172.219 165.046 170.829 154.251 170.535V141.748H189.661C189.361 153.545 187.826 164.673 185.317 174.636ZM163.471 173.066C171.559 173.776 179.388 175.121 186.751 177.068C186.751 177.068 186.751 177.068 186.751 177.067C179.388 175.121 171.559 173.776 163.471 173.066ZM154.251 133.263V103.501C164.952 103.206 175.386 101.83 185.077 99.4508C187.737 109.638 189.357 121.093 189.662 133.263H154.251ZM163.625 100.953C171.564 100.245 179.259 98.9236 186.496 97.0277C186.496 97.0278 186.496 97.0279 186.496 97.0279C179.259 98.9238 171.564 100.245 163.625 100.953ZM190.703 89.049C197.381 86.9237 203.518 84.2595 208.941 81.1298C199.51 71.2713 187.645 63.763 174.322 59.5901C181.018 66.8785 186.617 77.0415 190.703 89.049ZM109.314 89.0463C113.4 77.0408 118.998 66.8789 125.694 59.5975C112.361 63.7608 100.495 71.2682 91.0635 81.1269C96.4884 84.2463 102.634 86.9106 109.314 89.0463ZM68.5306 133.263C69.4159 116.149 75.5711 100.428 85.4257 87.6796C91.7713 91.4998 98.9947 94.6929 106.834 97.1823C103.916 108.128 102.15 120.343 101.837 133.263H68.5306ZM107.4 103.304C105.214 113.17 103.944 123.951 103.801 135.263H103.8C103.943 123.951 105.214 113.17 107.4 103.304ZM104.379 151.452C105.177 160.979 106.782 170.001 109.051 178.253C109.051 178.253 109.05 178.253 109.05 178.253C106.781 170.001 105.177 160.979 104.379 151.452ZM68.5299 141.748C69.3944 158.561 75.3606 174.037 84.9357 186.652C91.3399 182.735 98.6664 179.46 106.623 176.914C103.844 166.204 102.161 154.302 101.853 141.748H68.5299ZM125.682 215.41C112.085 211.157 99.9962 203.419 90.4697 193.248C95.9547 190.021 102.198 187.271 109.002 185.074C113.115 197.464 118.825 207.949 125.682 215.41ZM176.356 209.81C181.747 202.647 186.307 193.353 189.691 182.573C189.691 182.573 189.691 182.573 189.691 182.573C186.306 193.353 181.747 202.647 176.356 209.81ZM209.517 193.237C200 203.419 187.911 211.16 174.302 215.413C181.16 207.951 186.871 197.465 190.985 185.073C197.797 187.269 204.032 190.018 209.517 193.237ZM231.485 141.748C230.607 158.561 224.641 174.037 215.08 186.651C208.676 182.735 201.349 179.46 193.393 176.914C196.172 166.204 197.855 154.302 198.163 141.748H231.485ZM190.966 178.253C194.146 166.688 196.021 153.608 196.201 139.748H196.201C196.021 153.608 194.146 166.688 190.966 178.253C190.966 178.253 190.966 178.253 190.966 178.253Z" fill="url(#paint0_linear)"/>
<path d="M185.665 250.223C180.46 250.148 175.465 250.193 170.47 250.268C169.15 250.283 167.845 250.268 166.525 250.163C166.33 250.148 166.15 250.163 165.955 250.178C165.145 250.253 164.71 249.908 164.665 249.083C164.62 248.048 164.665 209.453 164.8 208.418C165.07 206.378 165.61 204.398 166.09 202.388C167.11 198.083 168.685 193.958 170.56 189.968C171.19 188.648 171.445 187.358 171.22 185.933C171.07 185.003 171.1 184.073 171.295 183.158C171.52 182.093 171.505 181.028 171.385 179.963C171.295 179.138 171.295 178.313 171.475 177.503C171.745 176.303 171.7 175.103 171.535 173.903C171.43 173.168 171.415 172.418 171.535 171.698C171.685 170.828 171.61 169.958 171.565 169.073C171.43 166.223 171.07 163.388 171.175 160.538C171.235 158.693 171.46 156.878 171.895 155.078C171.985 154.718 171.97 154.373 171.91 154.013C171.505 151.823 171.205 149.633 171.085 147.413C170.92 144.473 171.055 141.548 171.22 138.623C171.295 137.393 171.415 136.163 171.775 134.978C171.97 134.318 172.255 133.688 172.645 133.133C173.335 132.158 174.355 132.023 175.255 132.803C175.48 132.998 175.675 133.238 175.87 133.463C176.95 134.798 177.79 136.253 178.51 137.813C179.2 139.298 179.92 140.768 180.475 142.328C180.745 143.108 180.625 143.153 181.57 142.913C184.315 142.223 187.06 142.238 189.775 142.988C190.27 143.123 190.375 142.898 190.54 142.553C191.83 139.763 193.255 137.048 195.1 134.573C195.55 133.973 196.03 133.418 196.615 132.968C198.025 131.873 199.225 132.263 199.705 134.003C200.005 135.068 200.065 136.163 200.14 137.258C200.32 140.033 200.125 142.793 199.825 145.553C199.6 147.623 199.225 149.678 198.835 151.718C198.64 152.708 198.655 153.623 198.775 154.598C199.225 158.393 199.45 162.188 199.15 165.998C199.045 167.258 198.925 168.503 198.805 169.763C198.73 170.513 198.82 171.233 198.97 171.968C199.18 173.048 199.24 174.143 199.21 175.238C199.165 176.963 199.18 178.688 199.18 180.413C199.18 180.878 199.255 181.343 199.315 181.808C199.42 182.603 199.465 183.398 199.33 184.178C199.12 185.393 199.27 186.563 199.615 187.748C200.41 190.403 201.46 192.968 202.39 195.563C203.425 198.428 204.19 201.368 204.79 204.353C205.09 205.793 205.465 207.233 205.765 208.673C205.96 209.648 206.11 248.168 206.11 249.158C206.125 250.058 205.825 250.358 204.955 250.358C198.505 250.313 191.98 250.388 185.665 250.223Z" fill="black"/>
<path d="M166.809 248.693C166.854 246.008 167.334 205.898 167.904 203.363C168.819 199.253 170.364 195.353 172.044 191.513C172.944 189.473 173.214 187.373 173.019 185.183C172.974 184.658 172.974 184.148 173.079 183.623C173.364 182.288 173.364 180.953 173.199 179.618C173.109 178.898 173.199 178.193 173.379 177.503C173.649 176.393 173.694 175.283 173.544 174.158C173.484 173.663 173.424 173.168 173.439 172.688C173.529 169.673 173.184 166.673 173.034 163.658C172.989 162.803 173.034 161.933 173.034 161.033C173.349 161.168 173.409 161.423 173.544 161.603C175.059 163.673 177.624 163.898 179.469 162.128C180.174 161.453 180.684 160.658 181.029 159.743C181.134 159.473 181.194 159.233 181.569 159.263C181.794 159.278 181.974 159.113 182.034 158.858C182.094 158.558 181.974 158.318 181.719 158.153C181.059 157.718 180.369 157.313 179.619 157.043C177.789 156.368 176.034 155.528 174.189 154.943C173.904 154.853 173.769 154.763 173.859 154.433C174.324 152.633 174.744 150.818 175.464 149.093C175.809 148.283 176.244 147.533 176.784 146.828C176.994 146.558 177.354 146.183 177.054 145.898C176.709 145.568 176.364 145.988 176.064 146.213C175.434 146.693 174.984 147.353 174.414 148.088C174.039 144.683 173.994 141.428 174.429 138.203C174.639 138.143 174.714 138.218 174.759 138.323C175.449 139.823 176.139 141.308 176.799 142.808C176.994 143.228 177.099 143.693 177.264 144.128C177.354 144.353 177.429 144.593 177.564 144.803C177.669 144.968 177.849 145.073 178.059 144.968C178.224 144.893 178.314 144.743 178.284 144.563C178.254 144.353 178.194 144.128 178.149 143.918C177.594 141.713 176.484 139.748 175.509 137.738C175.464 137.633 175.404 137.543 175.329 137.468C174.849 136.838 174.309 136.868 173.919 137.588C173.634 138.128 173.544 138.728 173.469 139.328C173.109 142.418 173.214 145.508 173.619 148.598C173.694 149.183 173.664 149.723 173.394 150.263C173.184 150.668 173.064 151.133 172.899 151.598C172.704 151.298 172.659 151.013 172.644 150.728C172.389 147.083 172.209 143.453 172.494 139.808C172.614 138.353 172.749 136.913 173.139 135.503C173.289 134.978 173.484 134.453 173.799 134.003C174.054 133.643 174.204 133.613 174.534 133.913C174.699 134.063 174.834 134.243 174.954 134.408C175.764 135.518 176.484 136.673 176.979 137.963C177.234 138.623 177.549 139.268 177.894 139.898C178.524 141.068 178.839 142.343 179.289 143.573C179.379 143.813 179.274 143.918 179.139 144.068C178.989 144.233 178.824 144.413 178.974 144.653C179.139 144.908 179.364 144.878 179.634 144.803C181.329 144.308 183.084 144.188 184.839 144.188C186.684 144.173 188.499 144.383 190.269 144.923C190.539 144.998 190.794 145.088 191.079 145.058C191.709 144.998 191.934 144.638 191.664 144.038C191.544 143.768 191.559 143.588 191.679 143.363C193.074 140.633 194.409 137.873 196.284 135.413C196.689 134.888 197.109 134.378 197.634 133.973C197.994 133.703 198.129 133.733 198.264 134.183C198.384 134.573 198.459 134.978 198.504 135.398C198.804 138.608 198.669 141.803 198.264 144.998C198.069 146.543 197.949 148.103 197.619 149.708C197.259 149.243 197.064 148.808 197.139 148.238C197.349 146.498 197.559 144.758 197.754 143.018C197.889 141.818 197.979 140.618 197.859 139.403C197.829 139.073 197.784 138.743 197.679 138.443C197.424 137.633 196.929 137.498 196.269 138.053C196.119 138.173 195.984 138.308 195.879 138.473C194.634 140.243 193.539 142.118 192.864 144.188C192.789 144.428 192.714 144.668 192.744 144.908C192.774 145.178 193.029 145.253 193.224 145.073C193.479 144.818 193.599 144.473 193.734 144.143C194.394 142.538 195.279 141.068 196.194 139.598C196.329 139.373 196.449 139.118 196.704 138.968C197.064 139.883 196.794 143.618 196.089 147.188C195.804 147.128 195.654 146.873 195.474 146.693C195.069 146.303 194.634 145.988 194.109 145.808C193.929 145.748 193.719 145.688 193.569 145.868C193.404 146.078 193.569 146.228 193.689 146.363C194.184 146.948 194.634 147.578 195.069 148.208C196.314 150.023 196.734 152.108 197.154 154.208C197.244 154.628 196.959 154.703 196.674 154.823C194.589 155.723 192.534 156.713 190.539 157.778C190.134 158.003 189.729 158.228 189.339 158.483C189.054 158.663 188.754 158.888 188.964 159.278C189.144 159.623 189.459 159.548 189.759 159.443C189.834 159.413 189.924 159.428 190.029 159.413C190.119 159.758 190.179 160.103 190.299 160.433C190.704 161.663 191.424 162.623 192.624 163.163C193.794 163.688 194.919 163.508 195.954 162.773C196.539 162.353 196.989 161.798 197.394 161.198C197.649 161.303 197.544 161.528 197.529 161.678C197.394 164.423 197.439 167.153 197.229 169.898C197.169 170.588 197.184 171.263 197.319 171.938C197.784 174.383 197.769 176.843 197.649 179.318C197.604 180.248 197.634 181.178 197.829 182.093C197.979 182.768 197.964 183.458 197.874 184.133C197.739 185.063 197.799 185.978 197.979 186.908C198.129 187.703 198.144 188.543 198.384 189.338C198.579 189.998 198.759 190.658 199.014 191.288C200.859 196.013 202.419 200.828 203.469 205.793C203.814 207.398 204.279 208.973 204.534 210.608C204.699 211.688 204.654 249.083 203.694 249.068C202.794 249.068 201.879 249.053 200.979 249.023C199.974 249.008 200.139 211.568 200.079 210.578C200.004 209.423 199.914 208.283 199.674 207.158C199.554 206.618 199.464 206.078 199.209 205.583C199.119 205.388 199.029 205.118 198.759 205.193C198.504 205.253 198.519 205.538 198.519 205.748C198.519 206.303 198.519 206.843 198.579 207.398C198.699 208.568 198.624 209.753 198.654 210.938C198.669 211.403 198.474 249.038 198.069 249.023C196.404 248.993 194.724 248.978 193.059 248.978C186.369 248.963 179.679 249.053 172.989 248.843C172.884 248.843 172.764 248.828 172.659 248.843C172.344 248.873 172.224 211.193 172.224 210.878C172.269 209.348 172.284 207.803 172.314 206.273C172.329 205.673 172.374 205.073 172.404 204.473C172.419 204.308 172.404 204.113 172.194 204.083C171.999 204.053 171.909 204.203 171.834 204.353C171.624 204.773 171.489 205.223 171.384 205.673C171.054 207.083 170.829 208.523 170.724 209.978C170.694 210.278 170.664 210.578 170.649 210.878C170.634 211.178 170.484 248.828 170.169 248.828C169.044 248.678 167.979 248.693 166.809 248.693Z" fill="white"/>
<path d="M179.562 159.413C179.562 160.118 179.022 160.658 178.317 160.643C177.657 160.628 177.117 160.088 177.117 159.428C177.117 158.753 177.702 158.168 178.377 158.183C179.037 158.213 179.562 158.753 179.562 159.413Z" fill="#FAFAFA"/>
<path d="M193.84 159.623C193.825 160.268 193.3 160.733 192.655 160.703C192.04 160.658 191.62 160.163 191.65 159.548C191.68 158.918 192.145 158.468 192.745 158.468C193.39 158.453 193.87 158.963 193.84 159.623Z" fill="#FAFBFB"/>
<path d="M182.261 162.653C182.201 161.738 182.351 160.943 183.281 160.583C184.166 160.238 184.886 160.538 185.531 161.258C185.921 160.883 186.296 160.508 186.866 160.418C187.886 160.253 188.696 160.793 188.801 161.813C188.846 162.248 188.921 162.533 189.371 162.638C189.566 162.683 189.746 162.848 189.926 162.983C191.276 164.048 191.261 165.698 189.851 166.703C189.536 166.928 189.356 167.168 189.251 167.528C189.071 168.158 188.756 168.743 188.411 169.298C187.496 170.828 185.576 171.323 184.061 170.393C182.981 169.733 182.231 168.803 182.036 167.543C181.961 167.063 181.751 166.868 181.346 166.673C180.041 166.058 179.696 164.483 180.581 163.358C181.001 162.818 181.571 162.638 182.261 162.653Z" fill="#020101"/>
<path d="M188.381 166.253C187.721 166.208 187.016 165.968 186.536 165.278C186.461 165.173 186.386 165.053 186.296 164.948C185.966 164.588 185.666 164.573 185.306 164.888C185.021 165.143 184.766 165.443 184.481 165.683C183.596 166.433 182.621 166.388 181.631 165.923C181.016 165.638 180.821 165.038 181.091 164.393C181.331 163.838 181.766 163.403 182.516 163.688C182.846 163.808 183.206 163.883 183.536 163.973C183.671 164.018 183.791 164.048 183.941 164.003C184.136 163.943 184.301 163.838 184.331 163.628C184.361 163.388 184.226 163.298 184.001 163.238C183.611 163.133 183.311 162.908 183.161 162.518C183.011 162.128 183.011 161.753 183.341 161.453C183.656 161.168 184.031 161.108 184.406 161.303C184.751 161.483 185.036 161.708 185.231 162.068C185.501 162.563 185.741 162.548 186.071 162.098C186.221 161.903 186.326 161.678 186.521 161.513C186.896 161.213 187.391 161.228 187.721 161.543C188.036 161.858 188.066 162.218 187.766 162.653C187.616 162.878 187.421 163.073 187.256 163.298C187.166 163.418 187.121 163.553 187.226 163.673C187.316 163.778 187.451 163.823 187.601 163.808C187.886 163.778 188.141 163.643 188.306 163.433C188.546 163.133 188.816 163.193 189.116 163.313C189.791 163.613 190.151 164.288 190.016 164.978C189.836 165.788 189.296 166.238 188.381 166.253Z" fill="#FDFDFD"/>
<path d="M182.906 167.153C183.281 166.973 183.521 167.078 183.701 167.453C183.821 167.723 184.001 167.978 184.196 168.203C184.946 169.028 186.041 169.088 186.896 168.398C187.301 168.068 187.631 167.678 187.871 167.213C187.931 167.108 188.021 167.048 188.141 167.093C188.261 167.138 188.276 167.258 188.231 167.363C187.946 168.038 187.676 168.743 187.106 169.238C186.311 169.943 185.276 170.003 184.391 169.418C183.596 168.863 183.071 168.128 182.906 167.153Z" fill="#F6F7F7"/>
<path d="M185.828 165.788C186.203 166.223 186.578 166.613 187.088 166.793C186.983 167.243 186.698 167.468 186.458 167.723C185.768 168.413 185.048 168.368 184.448 167.603C184.313 167.438 184.178 167.258 184.148 167.018C184.448 166.823 184.748 166.643 185.033 166.433C185.288 166.223 185.528 166.013 185.828 165.788Z" fill="#E28072"/>
<path d="M184.781 162.608C184.781 162.728 184.706 162.833 184.616 162.878C184.331 163.028 184.091 162.878 183.866 162.713C183.656 162.563 183.551 162.338 183.626 162.068C183.671 161.903 183.806 161.798 183.986 161.798C184.301 161.783 184.781 162.278 184.781 162.608Z" fill="#181515"/>
<path d="M186.654 162.938C186.474 162.953 186.324 162.908 186.309 162.698C186.294 162.338 186.639 161.933 186.984 161.918C187.224 161.903 187.404 162.008 187.419 162.278C187.434 162.623 187.074 162.923 186.654 162.938Z" fill="#1D1A1A"/>
<path d="M148.423 250.223C143.218 250.148 138.223 250.193 133.228 250.268C131.908 250.283 130.603 250.268 129.283 250.163C129.088 250.148 128.908 250.163 128.713 250.178C127.903 250.253 127.468 249.908 127.423 249.083C127.378 248.048 127.423 209.453 127.558 208.418C127.828 206.378 128.368 204.398 128.848 202.388C129.868 198.083 131.443 193.958 133.318 189.968C133.948 188.648 134.203 187.358 133.978 185.933C133.828 185.003 133.858 184.073 134.053 183.158C134.278 182.093 134.263 181.028 134.143 179.963C134.053 179.138 134.053 178.313 134.233 177.503C134.503 176.303 134.458 175.103 134.293 173.903C134.188 173.168 134.173 172.418 134.293 171.698C134.443 170.828 134.368 169.958 134.323 169.073C134.188 166.223 133.828 163.388 133.933 160.538C133.993 158.693 134.218 156.878 134.653 155.078C134.743 154.718 134.728 154.373 134.668 154.013C134.263 151.823 133.963 149.633 133.843 147.413C133.678 144.473 133.813 141.548 133.978 138.623C134.053 137.393 134.173 136.163 134.533 134.978C134.728 134.318 135.013 133.688 135.403 133.133C136.093 132.158 137.113 132.023 138.013 132.803C138.238 132.998 138.433 133.238 138.628 133.463C139.708 134.798 140.548 136.253 141.268 137.813C141.958 139.298 142.678 140.768 143.233 142.328C143.503 143.108 143.383 143.153 144.328 142.913C147.073 142.223 149.818 142.238 152.533 142.988C153.028 143.123 153.133 142.898 153.298 142.553C154.588 139.763 156.013 137.048 157.858 134.573C158.308 133.973 158.788 133.418 159.373 132.968C160.783 131.873 161.983 132.263 162.463 134.003C162.763 135.068 162.823 136.163 162.898 137.258C163.078 140.033 162.883 142.793 162.583 145.553C162.358 147.623 161.983 149.678 161.593 151.718C161.398 152.708 161.413 153.623 161.533 154.598C161.983 158.393 162.208 162.188 161.908 165.998C161.803 167.258 161.683 168.503 161.563 169.763C161.488 170.513 161.578 171.233 161.728 171.968C161.938 173.048 161.998 174.143 161.968 175.238C161.923 176.963 161.938 178.688 161.938 180.413C161.938 180.878 162.013 181.343 162.073 181.808C162.178 182.603 162.223 183.398 162.088 184.178C161.878 185.393 162.028 186.563 162.373 187.748C163.168 190.403 164.218 192.968 165.148 195.563C166.183 198.428 166.948 201.368 167.548 204.353C167.848 205.793 168.223 207.233 168.523 208.673C168.718 209.648 168.868 248.168 168.868 249.158C168.883 250.058 168.583 250.358 167.713 250.358C161.263 250.313 154.738 250.388 148.423 250.223Z" fill="black"/>
<path d="M129.566 248.693C129.611 246.008 130.091 205.898 130.661 203.363C131.576 199.253 133.121 195.353 134.801 191.513C135.701 189.473 135.971 187.373 135.776 185.183C135.731 184.658 135.731 184.148 135.836 183.623C136.121 182.288 136.121 180.953 135.956 179.618C135.866 178.898 135.956 178.193 136.136 177.503C136.406 176.393 136.451 175.283 136.301 174.158C136.241 173.663 136.181 173.168 136.196 172.688C136.286 169.673 135.941 166.673 135.791 163.658C135.746 162.803 135.791 161.933 135.791 161.033C136.106 161.168 136.166 161.423 136.301 161.603C137.816 163.673 140.381 163.898 142.226 162.128C142.931 161.453 143.441 160.658 143.786 159.743C143.891 159.473 143.951 159.233 144.326 159.263C144.551 159.278 144.731 159.113 144.791 158.858C144.851 158.558 144.731 158.318 144.476 158.153C143.816 157.718 143.126 157.313 142.376 157.043C140.546 156.368 138.791 155.528 136.946 154.943C136.661 154.853 136.526 154.763 136.616 154.433C137.081 152.633 137.501 150.818 138.221 149.093C138.566 148.283 139.001 147.533 139.541 146.828C139.751 146.558 140.111 146.183 139.811 145.898C139.466 145.568 139.121 145.988 138.821 146.213C138.191 146.693 137.741 147.353 137.171 148.088C136.796 144.683 136.751 141.428 137.186 138.203C137.396 138.143 137.471 138.218 137.516 138.323C138.206 139.823 138.896 141.308 139.556 142.808C139.751 143.228 139.856 143.693 140.021 144.128C140.111 144.353 140.186 144.593 140.321 144.803C140.426 144.968 140.606 145.073 140.816 144.968C140.981 144.893 141.071 144.743 141.041 144.563C141.011 144.353 140.951 144.128 140.906 143.918C140.351 141.713 139.241 139.748 138.266 137.738C138.221 137.633 138.161 137.543 138.086 137.468C137.606 136.838 137.066 136.868 136.676 137.588C136.391 138.128 136.301 138.728 136.226 139.328C135.866 142.418 135.971 145.508 136.376 148.598C136.451 149.183 136.421 149.723 136.151 150.263C135.941 150.668 135.821 151.133 135.656 151.598C135.461 151.298 135.416 151.013 135.401 150.728C135.146 147.083 134.966 143.453 135.251 139.808C135.371 138.353 135.506 136.913 135.896 135.503C136.046 134.978 136.241 134.453 136.556 134.003C136.811 133.643 136.961 133.613 137.291 133.913C137.456 134.063 137.591 134.243 137.711 134.408C138.521 135.518 139.241 136.673 139.736 137.963C139.991 138.623 140.306 139.268 140.651 139.898C141.281 141.068 141.596 142.343 142.046 143.573C142.136 143.813 142.031 143.918 141.896 144.068C141.746 144.233 141.581 144.413 141.731 144.653C141.896 144.908 142.121 144.878 142.391 144.803C144.086 144.308 145.841 144.188 147.596 144.188C149.441 144.173 151.256 144.383 153.026 144.923C153.296 144.998 153.551 145.088 153.836 145.058C154.466 144.998 154.691 144.638 154.421 144.038C154.301 143.768 154.316 143.588 154.436 143.363C155.831 140.633 157.166 137.873 159.041 135.413C159.446 134.888 159.866 134.378 160.391 133.973C160.751 133.703 160.886 133.733 161.021 134.183C161.141 134.573 161.216 134.978 161.261 135.398C161.561 138.608 161.426 141.803 161.021 144.998C160.826 146.543 160.706 148.103 160.376 149.708C160.016 149.243 159.821 148.808 159.896 148.238C160.106 146.498 160.316 144.758 160.511 143.018C160.646 141.818 160.736 140.618 160.616 139.403C160.586 139.073 160.541 138.743 160.436 138.443C160.181 137.633 159.686 137.498 159.026 138.053C158.876 138.173 158.741 138.308 158.636 138.473C157.391 140.243 156.296 142.118 155.621 144.188C155.546 144.428 155.471 144.668 155.501 144.908C155.531 145.178 155.786 145.253 155.981 145.073C156.236 144.818 156.356 144.473 156.491 144.143C157.151 142.538 158.036 141.068 158.951 139.598C159.086 139.373 159.206 139.118 159.461 138.968C159.821 139.883 159.551 143.618 158.846 147.188C158.561 147.128 158.411 146.873 158.231 146.693C157.826 146.303 157.391 145.988 156.866 145.808C156.686 145.748 156.476 145.688 156.326 145.868C156.161 146.078 156.326 146.228 156.446 146.363C156.941 146.948 157.391 147.578 157.826 148.208C159.071 150.023 159.491 152.108 159.911 154.208C160.001 154.628 159.716 154.703 159.431 154.823C157.346 155.723 155.291 156.713 153.296 157.778C152.891 158.003 152.486 158.228 152.096 158.483C151.811 158.663 151.511 158.888 151.721 159.278C151.901 159.623 152.216 159.548 152.516 159.443C152.591 159.413 152.681 159.428 152.786 159.413C152.876 159.758 152.936 160.103 153.056 160.433C153.461 161.663 154.181 162.623 155.381 163.163C156.551 163.688 157.676 163.508 158.711 162.773C159.296 162.353 159.746 161.798 160.151 161.198C160.406 161.303 160.301 161.528 160.286 161.678C160.151 164.423 160.196 167.153 159.986 169.898C159.926 170.588 159.941 171.263 160.076 171.938C160.541 174.383 160.526 176.843 160.406 179.318C160.361 180.248 160.391 181.178 160.586 182.093C160.736 182.768 160.721 183.458 160.631 184.133C160.496 185.063 160.556 185.978 160.736 186.908C160.886 187.703 160.901 188.543 161.141 189.338C161.336 189.998 161.516 190.658 161.771 191.288C163.616 196.013 165.176 200.828 166.226 205.793C166.571 207.398 167.036 208.973 167.291 210.608C167.456 211.688 167.411 249.083 166.451 249.068C165.551 249.068 164.636 249.053 163.736 249.023C162.731 249.008 162.896 211.568 162.836 210.578C162.761 209.423 162.671 208.283 162.431 207.158C162.311 206.618 162.221 206.078 161.966 205.583C161.876 205.388 161.786 205.118 161.516 205.193C161.261 205.253 161.276 205.538 161.276 205.748C161.276 206.303 161.276 206.843 161.336 207.398C161.456 208.568 161.381 209.753 161.411 210.938C161.426 211.403 161.231 249.038 160.826 249.023C159.161 248.993 157.481 248.978 155.816 248.978C149.126 248.963 142.436 249.053 135.746 248.843C135.641 248.843 135.521 248.828 135.416 248.843C135.101 248.873 134.981 211.193 134.981 210.878C135.026 209.348 135.041 207.803 135.071 206.273C135.086 205.673 135.131 205.073 135.161 204.473C135.176 204.308 135.161 204.113 134.951 204.083C134.756 204.053 134.666 204.203 134.591 204.353C134.381 204.773 134.246 205.223 134.141 205.673C133.811 207.083 133.586 208.523 133.481 209.978C133.451 210.278 133.421 210.578 133.406 210.878C133.391 211.178 133.241 248.828 132.926 248.828C131.801 248.678 130.736 248.693 129.566 248.693Z" fill="white"/>
<path d="M142.32 159.413C142.32 160.118 141.78 160.658 141.075 160.643C140.415 160.628 139.875 160.088 139.875 159.428C139.875 158.753 140.46 158.168 141.135 158.183C141.795 158.213 142.305 158.753 142.32 159.413Z" fill="#FAFAFA"/>
<path d="M156.598 159.623C156.583 160.268 156.058 160.733 155.413 160.703C154.798 160.658 154.378 160.163 154.408 159.548C154.438 158.918 154.903 158.468 155.503 158.468C156.133 158.453 156.628 158.963 156.598 159.623Z" fill="#FAFBFB"/>
<path d="M145.019 162.653C144.959 161.738 145.109 160.943 146.039 160.583C146.924 160.238 147.644 160.538 148.289 161.258C148.679 160.883 149.054 160.508 149.624 160.418C150.644 160.253 151.454 160.793 151.559 161.813C151.604 162.248 151.679 162.533 152.129 162.638C152.324 162.683 152.504 162.848 152.684 162.983C154.034 164.048 154.019 165.698 152.609 166.703C152.294 166.928 152.114 167.168 152.009 167.528C151.829 168.158 151.514 168.743 151.169 169.298C150.254 170.828 148.334 171.323 146.819 170.393C145.739 169.733 144.989 168.803 144.794 167.543C144.719 167.063 144.509 166.868 144.104 166.673C142.799 166.058 142.454 164.483 143.339 163.358C143.759 162.818 144.329 162.638 145.019 162.653Z" fill="#020101"/>
<path d="M151.124 166.253C150.464 166.208 149.759 165.968 149.279 165.278C149.204 165.173 149.129 165.053 149.039 164.948C148.709 164.588 148.409 164.573 148.049 164.888C147.764 165.143 147.509 165.443 147.224 165.683C146.339 166.433 145.364 166.388 144.374 165.923C143.759 165.638 143.564 165.038 143.834 164.393C144.074 163.838 144.509 163.403 145.259 163.688C145.589 163.808 145.949 163.883 146.279 163.973C146.414 164.018 146.534 164.048 146.684 164.003C146.879 163.943 147.044 163.838 147.074 163.628C147.104 163.388 146.969 163.298 146.744 163.238C146.354 163.133 146.054 162.908 145.904 162.518C145.754 162.128 145.754 161.753 146.084 161.453C146.399 161.168 146.774 161.108 147.149 161.303C147.494 161.483 147.779 161.708 147.974 162.068C148.244 162.563 148.484 162.548 148.814 162.098C148.964 161.903 149.069 161.678 149.264 161.513C149.639 161.213 150.134 161.228 150.464 161.543C150.779 161.858 150.809 162.218 150.509 162.653C150.359 162.878 150.164 163.073 149.999 163.298C149.909 163.418 149.864 163.553 149.969 163.673C150.059 163.778 150.194 163.823 150.344 163.808C150.629 163.778 150.884 163.643 151.049 163.433C151.289 163.133 151.559 163.193 151.859 163.313C152.534 163.613 152.894 164.288 152.759 164.978C152.594 165.788 152.054 166.238 151.124 166.253Z" fill="#FDFDFD"/>
<path d="M145.664 167.153C146.039 166.973 146.279 167.078 146.459 167.453C146.579 167.723 146.759 167.978 146.954 168.203C147.704 169.028 148.799 169.088 149.654 168.398C150.059 168.068 150.389 167.678 150.629 167.213C150.689 167.108 150.779 167.048 150.899 167.093C151.019 167.138 151.034 167.258 150.989 167.363C150.704 168.038 150.434 168.743 149.864 169.238C149.069 169.943 148.034 170.003 147.149 169.418C146.354 168.863 145.829 168.128 145.664 167.153Z" fill="#F6F7F7"/>
<path d="M148.575 165.788C148.95 166.223 149.325 166.613 149.835 166.793C149.73 167.243 149.445 167.468 149.205 167.723C148.515 168.413 147.795 168.368 147.195 167.603C147.06 167.438 146.925 167.258 146.895 167.018C147.195 166.823 147.495 166.643 147.78 166.433C148.05 166.223 148.29 166.013 148.575 165.788Z" fill="#E28072"/>
<path d="M147.539 162.608C147.539 162.728 147.464 162.833 147.374 162.878C147.089 163.028 146.849 162.878 146.624 162.713C146.414 162.563 146.309 162.338 146.384 162.068C146.429 161.903 146.564 161.798 146.744 161.798C147.059 161.783 147.539 162.278 147.539 162.608Z" fill="#181515"/>
<path d="M149.396 162.938C149.216 162.953 149.066 162.908 149.051 162.698C149.036 162.338 149.381 161.933 149.726 161.918C149.966 161.903 150.146 162.008 150.161 162.278C150.191 162.623 149.831 162.923 149.396 162.938Z" fill="#1D1A1A"/>
<path d="M111.177 250.223C105.972 250.148 100.977 250.193 95.982 250.268C94.662 250.283 93.357 250.268 92.037 250.163C91.842 250.148 91.662 250.163 91.467 250.178C90.657 250.253 90.222 249.908 90.177 249.083C90.132 248.048 90.177 209.453 90.312 208.418C90.582 206.378 91.122 204.398 91.602 202.388C92.622 198.083 94.197 193.958 96.072 189.968C96.702 188.648 96.957 187.358 96.732 185.933C96.582 185.003 96.612 184.073 96.807 183.158C97.032 182.093 97.017 181.028 96.897 179.963C96.807 179.138 96.807 178.313 96.987 177.503C97.257 176.303 97.212 175.103 97.047 173.903C96.942 173.168 96.927 172.418 97.047 171.698C97.197 170.828 97.122 169.958 97.077 169.073C96.942 166.223 96.582 163.388 96.687 160.538C96.747 158.693 96.972 156.878 97.407 155.078C97.497 154.718 97.482 154.373 97.422 154.013C97.017 151.823 96.717 149.633 96.597 147.413C96.432 144.473 96.567 141.548 96.732 138.623C96.807 137.393 96.927 136.163 97.287 134.978C97.482 134.318 97.767 133.688 98.157 133.133C98.847 132.158 99.867 132.023 100.767 132.803C100.992 132.998 101.187 133.238 101.382 133.463C102.462 134.798 103.302 136.253 104.022 137.813C104.712 139.298 105.432 140.768 105.987 142.328C106.257 143.108 106.137 143.153 107.082 142.913C109.827 142.223 112.572 142.238 115.287 142.988C115.782 143.123 115.887 142.898 116.052 142.553C117.342 139.763 118.767 137.048 120.612 134.573C121.062 133.973 121.542 133.418 122.127 132.968C123.537 131.873 124.737 132.263 125.217 134.003C125.517 135.068 125.577 136.163 125.652 137.258C125.832 140.033 125.637 142.793 125.337 145.553C125.112 147.623 124.737 149.678 124.347 151.718C124.152 152.708 124.167 153.623 124.287 154.598C124.737 158.393 124.962 162.188 124.662 165.998C124.557 167.258 124.437 168.503 124.317 169.763C124.242 170.513 124.332 171.233 124.482 171.968C124.692 173.048 124.752 174.143 124.722 175.238C124.677 176.963 124.692 178.688 124.692 180.413C124.692 180.878 124.767 181.343 124.827 181.808C124.932 182.603 124.977 183.398 124.842 184.178C124.632 185.393 124.782 186.563 125.127 187.748C125.922 190.403 126.972 192.968 127.902 195.563C128.937 198.428 129.702 201.368 130.302 204.353C130.602 205.793 130.977 207.233 131.277 208.673C131.472 209.648 131.622 248.168 131.622 249.158C131.637 250.058 131.337 250.358 130.467 250.358C124.002 250.313 117.477 250.388 111.177 250.223Z" fill="black"/>
<path d="M92.3203 248.693C92.3653 246.008 92.8453 205.898 93.4153 203.363C94.3303 199.253 95.8753 195.353 97.5553 191.513C98.4553 189.473 98.7253 187.373 98.5303 185.183C98.4853 184.658 98.4853 184.148 98.5903 183.623C98.8753 182.288 98.8753 180.953 98.7103 179.618C98.6203 178.898 98.7103 178.193 98.8903 177.503C99.1603 176.393 99.2053 175.283 99.0553 174.158C98.9953 173.663 98.9353 173.168 98.9503 172.688C99.0403 169.673 98.6953 166.673 98.5453 163.658C98.5003 162.803 98.5453 161.933 98.5453 161.033C98.8603 161.168 98.9203 161.423 99.0553 161.603C100.57 163.673 103.135 163.898 104.98 162.128C105.685 161.453 106.195 160.658 106.54 159.743C106.645 159.473 106.705 159.233 107.08 159.263C107.305 159.278 107.485 159.113 107.545 158.858C107.605 158.558 107.485 158.318 107.23 158.153C106.57 157.718 105.88 157.313 105.13 157.043C103.3 156.368 101.545 155.528 99.7003 154.943C99.4153 154.853 99.2803 154.763 99.3703 154.433C99.8353 152.633 100.255 150.818 100.975 149.093C101.32 148.283 101.755 147.533 102.295 146.828C102.505 146.558 102.865 146.183 102.565 145.898C102.22 145.568 101.875 145.988 101.575 146.213C100.945 146.693 100.495 147.353 99.9253 148.088C99.5503 144.683 99.5053 141.428 99.9403 138.203C100.15 138.143 100.225 138.218 100.27 138.323C100.96 139.823 101.65 141.308 102.31 142.808C102.505 143.228 102.61 143.693 102.775 144.128C102.865 144.353 102.94 144.593 103.075 144.803C103.18 144.968 103.36 145.073 103.57 144.968C103.735 144.893 103.825 144.743 103.795 144.563C103.765 144.353 103.705 144.128 103.66 143.918C103.105 141.713 101.995 139.748 101.02 137.738C100.975 137.633 100.915 137.543 100.84 137.468C100.36 136.838 99.8203 136.868 99.4303 137.588C99.1453 138.128 99.0553 138.728 98.9803 139.328C98.6203 142.418 98.7253 145.508 99.1303 148.598C99.2053 149.183 99.1753 149.723 98.9053 150.263C98.6953 150.668 98.5753 151.133 98.4103 151.598C98.2153 151.298 98.1703 151.013 98.1553 150.728C97.9003 147.083 97.7203 143.453 98.0053 139.808C98.1253 138.353 98.2603 136.913 98.6503 135.503C98.8003 134.978 98.9953 134.453 99.3103 134.003C99.5653 133.643 99.7153 133.613 100.045 133.913C100.21 134.063 100.345 134.243 100.465 134.408C101.275 135.518 101.995 136.673 102.49 137.963C102.745 138.623 103.06 139.268 103.405 139.898C104.035 141.068 104.35 142.343 104.8 143.573C104.89 143.813 104.785 143.918 104.65 144.068C104.5 144.233 104.335 144.413 104.485 144.653C104.65 144.908 104.875 144.878 105.145 144.803C106.84 144.308 108.595 144.188 110.35 144.188C112.195 144.173 114.01 144.383 115.78 144.923C116.05 144.998 116.305 145.088 116.59 145.058C117.22 144.998 117.445 144.638 117.175 144.038C117.055 143.768 117.07 143.588 117.19 143.363C118.585 140.633 119.92 137.873 121.795 135.413C122.2 134.888 122.62 134.378 123.145 133.973C123.505 133.703 123.64 133.733 123.775 134.183C123.895 134.573 123.97 134.978 124.015 135.398C124.315 138.608 124.18 141.803 123.775 144.998C123.58 146.543 123.46 148.103 123.13 149.708C122.77 149.243 122.575 148.808 122.65 148.238C122.86 146.498 123.07 144.758 123.265 143.018C123.4 141.818 123.49 140.618 123.37 139.403C123.34 139.073 123.295 138.743 123.19 138.443C122.935 137.633 122.44 137.498 121.78 138.053C121.63 138.173 121.495 138.308 121.39 138.473C120.145 140.243 119.05 142.118 118.375 144.188C118.3 144.428 118.225 144.668 118.255 144.908C118.285 145.178 118.54 145.253 118.735 145.073C118.99 144.818 119.11 144.473 119.245 144.143C119.905 142.538 120.79 141.068 121.705 139.598C121.84 139.373 121.96 139.118 122.215 138.968C122.575 139.883 122.305 143.618 121.6 147.188C121.315 147.128 121.165 146.873 120.985 146.693C120.58 146.303 120.145 145.988 119.62 145.808C119.44 145.748 119.23 145.688 119.08 145.868C118.915 146.078 119.08 146.228 119.2 146.363C119.695 146.948 120.145 147.578 120.58 148.208C121.825 150.023 122.245 152.108 122.665 154.208C122.755 154.628 122.47 154.703 122.185 154.823C120.1 155.723 118.045 156.713 116.05 157.778C115.645 158.003 115.24 158.228 114.85 158.483C114.565 158.663 114.265 158.888 114.475 159.278C114.655 159.623 114.97 159.548 115.27 159.443C115.345 159.413 115.435 159.428 115.54 159.413C115.63 159.758 115.69 160.103 115.81 160.433C116.215 161.663 116.935 162.623 118.135 163.163C119.305 163.688 120.43 163.508 121.465 162.773C122.05 162.353 122.5 161.798 122.905 161.198C123.16 161.303 123.055 161.528 123.04 161.678C122.905 164.423 122.95 167.153 122.74 169.898C122.68 170.588 122.695 171.263 122.83 171.938C123.295 174.383 123.28 176.843 123.16 179.318C123.115 180.248 123.145 181.178 123.34 182.093C123.49 182.768 123.475 183.458 123.385 184.133C123.25 185.063 123.31 185.978 123.49 186.908C123.64 187.703 123.655 188.543 123.895 189.338C124.09 189.998 124.27 190.658 124.525 191.288C126.37 196.013 127.93 200.828 128.98 205.793C129.325 207.398 129.79 208.973 130.045 210.608C130.21 211.688 130.165 249.083 129.205 249.068C128.305 249.068 127.39 249.053 126.49 249.023C125.485 249.008 125.65 211.568 125.59 210.578C125.515 209.423 125.425 208.283 125.185 207.158C125.065 206.618 124.975 206.078 124.72 205.583C124.63 205.388 124.54 205.118 124.27 205.193C124.015 205.253 124.03 205.538 124.03 205.748C124.03 206.303 124.03 206.843 124.09 207.398C124.21 208.568 124.135 209.753 124.165 210.938C124.18 211.403 123.985 249.038 123.58 249.023C121.915 248.993 120.235 248.978 118.57 248.978C111.88 248.963 105.19 249.053 98.5003 248.843C98.3953 248.843 98.2753 248.828 98.1703 248.843C97.8553 248.873 97.7353 211.193 97.7353 210.878C97.7803 209.348 97.7953 207.803 97.8253 206.273C97.8403 205.673 97.8853 205.073 97.9153 204.473C97.9303 204.308 97.9153 204.113 97.7053 204.083C97.5103 204.053 97.4203 204.203 97.3453 204.353C97.1353 204.773 97.0003 205.223 96.8953 205.673C96.5653 207.083 96.3403 208.523 96.2353 209.978C96.2053 210.278 96.1753 210.578 96.1603 210.878C96.1453 211.178 95.9953 248.828 95.6803 248.828C94.5403 248.678 93.4753 248.693 92.3203 248.693Z" fill="white"/>
<path d="M105.074 159.413C105.074 160.118 104.534 160.658 103.829 160.643C103.169 160.628 102.629 160.088 102.629 159.428C102.629 158.753 103.214 158.168 103.889 158.183C104.534 158.213 105.059 158.753 105.074 159.413Z" fill="#FAFAFA"/>
<path d="M119.352 159.623C119.337 160.268 118.812 160.733 118.167 160.703C117.552 160.658 117.132 160.163 117.162 159.548C117.192 158.918 117.657 158.468 118.257 158.468C118.887 158.453 119.367 158.963 119.352 159.623Z" fill="#FAFBFB"/>
<path d="M107.773 162.653C107.713 161.738 107.863 160.943 108.793 160.583C109.678 160.238 110.398 160.538 111.043 161.258C111.433 160.883 111.808 160.508 112.378 160.418C113.398 160.253 114.208 160.793 114.313 161.813C114.358 162.248 114.433 162.533 114.883 162.638C115.078 162.683 115.258 162.848 115.438 162.983C116.788 164.048 116.773 165.698 115.363 166.703C115.048 166.928 114.868 167.168 114.763 167.528C114.583 168.158 114.268 168.743 113.923 169.298C113.008 170.828 111.088 171.323 109.573 170.393C108.493 169.733 107.743 168.803 107.548 167.543C107.473 167.063 107.263 166.868 106.858 166.673C105.553 166.058 105.208 164.483 106.093 163.358C106.498 162.818 107.083 162.638 107.773 162.653Z" fill="#020101"/>
<path d="M113.877 166.253C113.217 166.208 112.512 165.968 112.032 165.278C111.957 165.173 111.882 165.053 111.792 164.948C111.462 164.588 111.162 164.573 110.802 164.888C110.517 165.143 110.262 165.443 109.977 165.683C109.092 166.433 108.117 166.388 107.127 165.923C106.512 165.638 106.317 165.038 106.587 164.393C106.827 163.838 107.262 163.403 108.012 163.688C108.342 163.808 108.702 163.883 109.032 163.973C109.167 164.018 109.287 164.048 109.437 164.003C109.632 163.943 109.797 163.838 109.827 163.628C109.857 163.388 109.722 163.298 109.497 163.238C109.107 163.133 108.807 162.908 108.657 162.518C108.507 162.128 108.507 161.753 108.837 161.453C109.152 161.168 109.527 161.108 109.902 161.303C110.247 161.483 110.532 161.708 110.727 162.068C110.997 162.563 111.237 162.548 111.567 162.098C111.717 161.903 111.822 161.678 112.017 161.513C112.392 161.213 112.887 161.228 113.217 161.543C113.532 161.858 113.562 162.218 113.262 162.653C113.112 162.878 112.917 163.073 112.752 163.298C112.662 163.418 112.617 163.553 112.722 163.673C112.812 163.778 112.947 163.823 113.097 163.808C113.382 163.778 113.637 163.643 113.802 163.433C114.042 163.133 114.312 163.193 114.612 163.313C115.287 163.613 115.647 164.288 115.512 164.978C115.347 165.788 114.792 166.238 113.877 166.253Z" fill="#FDFDFD"/>
<path d="M108.418 167.153C108.793 166.973 109.033 167.078 109.213 167.453C109.333 167.723 109.513 167.978 109.708 168.203C110.458 169.028 111.553 169.088 112.408 168.398C112.813 168.068 113.143 167.678 113.383 167.213C113.443 167.108 113.533 167.048 113.653 167.093C113.773 167.138 113.788 167.258 113.743 167.363C113.458 168.038 113.188 168.743 112.618 169.238C111.823 169.943 110.788 170.003 109.903 169.418C109.093 168.863 108.583 168.128 108.418 167.153Z" fill="#F6F7F7"/>
<path d="M111.328 165.788C111.703 166.223 112.078 166.613 112.588 166.793C112.483 167.243 112.198 167.468 111.958 167.723C111.268 168.413 110.548 168.368 109.948 167.603C109.813 167.438 109.678 167.258 109.648 167.018C109.948 166.823 110.248 166.643 110.533 166.433C110.788 166.223 111.043 166.013 111.328 165.788Z" fill="#E28072"/>
<path d="M110.277 162.608C110.277 162.728 110.202 162.833 110.112 162.878C109.827 163.028 109.587 162.878 109.362 162.713C109.152 162.563 109.047 162.338 109.122 162.068C109.167 161.903 109.302 161.798 109.482 161.798C109.812 161.783 110.292 162.278 110.277 162.608Z" fill="#181515"/>
<path d="M112.15 162.938C111.97 162.953 111.82 162.908 111.805 162.698C111.79 162.338 112.135 161.933 112.48 161.918C112.72 161.903 112.9 162.008 112.915 162.278C112.945 162.623 112.57 162.923 112.15 162.938Z" fill="#1D1A1A"/>
<path d="M202.798 251.663C197.593 251.588 192.598 251.633 187.603 251.708C186.283 251.723 184.978 251.708 183.658 251.603C183.463 251.588 183.283 251.603 183.088 251.618C182.278 251.693 181.843 251.348 181.798 250.523C181.753 249.488 181.798 248.438 181.933 247.403C182.203 245.363 182.743 243.383 183.223 241.373C184.243 237.068 185.818 232.943 187.693 228.953C188.323 227.633 188.578 226.343 188.353 224.918C188.203 223.988 188.233 223.058 188.428 222.143C188.653 221.078 188.638 220.013 188.518 218.948C188.428 218.123 188.428 217.298 188.608 216.488C188.878 215.288 188.833 214.088 188.668 212.888C188.563 212.153 188.548 211.403 188.668 210.683C188.818 209.813 188.743 208.943 188.698 208.058C188.563 205.208 188.203 202.373 188.308 199.523C188.368 197.678 188.593 195.863 189.028 194.063C189.118 193.703 189.103 193.358 189.043 192.998C188.638 190.808 188.338 188.618 188.218 186.398C188.053 183.458 188.188 180.533 188.353 177.608C188.428 176.378 188.548 175.148 188.908 173.963C189.103 173.303 189.388 172.673 189.778 172.118C190.468 171.143 191.488 171.008 192.388 171.788C192.613 171.983 192.808 172.223 193.003 172.448C194.083 173.783 194.923 175.238 195.643 176.798C196.333 178.283 197.053 179.753 197.608 181.313C197.878 182.093 197.758 182.138 198.703 181.898C201.448 181.208 204.193 181.223 206.908 181.973C207.403 182.108 207.508 181.883 207.673 181.538C208.963 178.748 210.388 176.033 212.233 173.558C212.683 172.958 213.163 172.403 213.748 171.953C215.158 170.858 216.358 171.248 216.838 172.988C217.138 174.053 217.198 175.148 217.273 176.243C217.453 179.018 217.258 181.778 216.958 184.538C216.733 186.608 216.358 188.663 215.968 190.703C215.773 191.693 215.788 192.608 215.908 193.583C216.358 197.378 216.583 201.173 216.283 204.983C216.178 206.243 216.058 207.488 215.938 208.748C215.863 209.498 215.953 210.218 216.103 210.953C216.313 212.033 216.373 213.128 216.343 214.223C216.298 215.948 216.313 217.673 216.313 219.398C216.313 219.863 216.388 220.328 216.448 220.793C216.553 221.588 216.598 222.383 216.463 223.163C216.253 224.378 216.403 225.548 216.748 226.733C217.543 229.388 218.593 231.953 219.523 234.548C220.558 237.413 221.323 240.353 221.923 243.338C222.223 244.778 222.598 246.218 222.898 247.658C223.093 248.633 223.243 249.608 223.243 250.598C223.258 251.498 222.958 251.798 222.088 251.798C215.623 251.753 209.098 251.828 202.798 251.663Z" fill="black"/>
<path d="M183.926 250.133C183.971 247.448 184.451 244.898 185.021 242.348C185.936 238.238 187.481 234.338 189.161 230.498C190.061 228.458 190.331 226.358 190.136 224.168C190.091 223.643 190.091 223.133 190.196 222.608C190.481 221.273 190.481 219.938 190.316 218.603C190.226 217.883 190.316 217.178 190.496 216.488C190.766 215.378 190.811 214.268 190.661 213.143C190.601 212.648 190.541 212.153 190.556 211.673C190.646 208.658 190.301 205.658 190.151 202.643C190.106 201.788 190.151 200.918 190.151 200.018C190.466 200.153 190.526 200.408 190.661 200.588C192.176 202.658 194.741 202.883 196.586 201.113C197.291 200.438 197.801 199.643 198.146 198.728C198.251 198.458 198.311 198.218 198.686 198.248C198.911 198.263 199.091 198.098 199.151 197.843C199.211 197.543 199.091 197.303 198.836 197.138C198.176 196.703 197.486 196.298 196.736 196.028C194.906 195.353 193.151 194.513 191.306 193.928C191.021 193.838 190.886 193.748 190.976 193.418C191.441 191.618 191.861 189.803 192.581 188.078C192.926 187.268 193.361 186.518 193.901 185.813C194.111 185.543 194.471 185.168 194.171 184.883C193.826 184.553 193.481 184.973 193.181 185.198C192.551 185.678 192.101 186.338 191.531 187.073C191.156 183.668 191.111 180.413 191.546 177.188C191.756 177.128 191.831 177.203 191.876 177.308C192.566 178.808 193.256 180.293 193.916 181.793C194.111 182.213 194.216 182.678 194.381 183.113C194.471 183.338 194.546 183.578 194.681 183.788C194.786 183.953 194.966 184.058 195.176 183.953C195.341 183.878 195.431 183.728 195.401 183.548C195.371 183.338 195.311 183.113 195.266 182.903C194.711 180.698 193.601 178.733 192.626 176.723C192.581 176.618 192.521 176.528 192.446 176.453C191.966 175.823 191.426 175.853 191.036 176.573C190.751 177.113 190.661 177.713 190.586 178.313C190.226 181.403 190.331 184.493 190.736 187.583C190.811 188.168 190.781 188.708 190.511 189.248C190.301 189.653 190.181 190.118 190.016 190.583C189.821 190.283 189.776 189.998 189.761 189.713C189.506 186.068 189.326 182.438 189.611 178.793C189.731 177.338 189.866 175.898 190.256 174.488C190.406 173.963 190.601 173.438 190.916 172.988C191.171 172.628 191.321 172.598 191.651 172.898C191.816 173.048 191.951 173.228 192.071 173.393C192.881 174.503 193.601 175.658 194.096 176.948C194.351 177.608 194.666 178.253 195.011 178.883C195.641 180.053 195.956 181.328 196.406 182.558C196.496 182.798 196.391 182.903 196.256 183.053C196.106 183.218 195.941 183.398 196.091 183.638C196.256 183.893 196.481 183.863 196.751 183.788C198.446 183.293 200.201 183.173 201.956 183.173C203.801 183.158 205.616 183.368 207.386 183.908C207.656 183.983 207.911 184.073 208.196 184.043C208.826 183.983 209.051 183.623 208.781 183.023C208.661 182.753 208.676 182.573 208.796 182.348C210.191 179.618 211.526 176.858 213.401 174.398C213.806 173.873 214.226 173.363 214.751 172.958C215.111 172.688 215.246 172.718 215.381 173.168C215.501 173.558 215.576 173.963 215.621 174.383C215.921 177.593 215.786 180.788 215.381 183.983C215.186 185.528 215.066 187.088 214.736 188.693C214.376 188.228 214.181 187.793 214.256 187.223C214.466 185.483 214.676 183.743 214.871 182.003C215.006 180.803 215.096 179.603 214.976 178.388C214.946 178.058 214.901 177.728 214.796 177.428C214.541 176.618 214.046 176.483 213.386 177.038C213.236 177.158 213.101 177.293 212.996 177.458C211.751 179.228 210.656 181.103 209.981 183.173C209.906 183.413 209.831 183.653 209.861 183.893C209.891 184.163 210.146 184.238 210.341 184.058C210.596 183.803 210.716 183.458 210.851 183.128C211.511 181.523 212.396 180.053 213.311 178.583C213.446 178.358 213.566 178.103 213.821 177.953C214.181 178.868 213.911 182.603 213.206 186.173C212.921 186.113 212.771 185.858 212.591 185.678C212.186 185.288 211.751 184.973 211.226 184.793C211.046 184.733 210.836 184.673 210.686 184.853C210.521 185.063 210.686 185.213 210.806 185.348C211.301 185.933 211.751 186.563 212.186 187.193C213.431 189.008 213.851 191.093 214.271 193.193C214.361 193.613 214.076 193.688 213.791 193.808C211.706 194.708 209.651 195.698 207.656 196.763C207.251 196.988 206.846 197.213 206.456 197.468C206.171 197.648 205.871 197.873 206.081 198.263C206.261 198.608 206.576 198.533 206.876 198.428C206.951 198.398 207.041 198.413 207.146 198.398C207.236 198.743 207.296 199.088 207.416 199.418C207.821 200.648 208.541 201.608 209.741 202.148C210.911 202.673 212.036 202.493 213.071 201.758C213.656 201.338 214.106 200.783 214.511 200.183C214.766 200.288 214.661 200.513 214.646 200.663C214.511 203.408 214.556 206.138 214.346 208.883C214.286 209.573 214.301 210.248 214.436 210.923C214.901 213.368 214.886 215.828 214.766 218.303C214.721 219.233 214.751 220.163 214.946 221.078C215.096 221.753 215.081 222.443 214.991 223.118C214.856 224.048 214.916 224.963 215.096 225.893C215.246 226.688 215.261 227.528 215.501 228.323C215.696 228.983 215.876 229.643 216.131 230.273C217.976 234.998 219.536 239.813 220.586 244.778C220.931 246.383 221.396 247.958 221.651 249.593C221.816 250.673 221.771 250.508 220.811 250.508C219.911 250.508 218.996 250.493 218.096 250.463C217.091 250.448 217.256 250.568 217.196 249.563C217.121 248.408 217.031 247.268 216.791 246.143C216.671 245.603 216.581 245.063 216.326 244.568C216.236 244.373 216.146 244.103 215.876 244.178C215.621 244.238 215.636 244.523 215.636 244.733C215.636 245.288 215.636 245.828 215.696 246.383C215.816 247.568 215.741 248.738 215.771 249.923C215.786 250.388 215.591 250.463 215.186 250.463C213.521 250.433 211.841 250.418 210.176 250.418C203.486 250.403 196.796 250.493 190.106 250.283C190.001 250.283 189.881 250.268 189.776 250.283C189.461 250.313 189.341 250.193 189.341 249.863C189.386 248.333 189.401 246.788 189.431 245.258C189.446 244.658 189.491 244.058 189.521 243.458C189.536 243.293 189.521 243.098 189.311 243.068C189.116 243.038 189.026 243.188 188.951 243.338C188.741 243.758 188.606 244.208 188.501 244.658C188.171 246.068 187.946 247.508 187.841 248.963C187.811 249.263 187.781 249.563 187.766 249.863C187.751 250.163 187.601 250.268 187.286 250.268C186.161 250.118 185.096 250.133 183.926 250.133Z" fill="white"/>
<path d="M196.679 198.413C196.679 199.118 196.139 199.658 195.434 199.643C194.774 199.628 194.234 199.088 194.234 198.428C194.234 197.753 194.819 197.168 195.494 197.183C196.154 197.198 196.679 197.738 196.679 198.413Z" fill="#FAFAFA"/>
<path d="M210.973 198.608C210.958 199.253 210.433 199.718 209.788 199.688C209.173 199.643 208.753 199.148 208.783 198.533C208.813 197.903 209.278 197.453 209.878 197.453C210.508 197.453 210.988 197.963 210.973 198.608Z" fill="#FAFBFB"/>
<path d="M199.394 201.638C199.334 200.723 199.484 199.928 200.414 199.568C201.299 199.223 202.019 199.523 202.664 200.243C203.054 199.868 203.429 199.493 203.999 199.403C205.019 199.238 205.829 199.778 205.934 200.798C205.979 201.233 206.054 201.518 206.504 201.623C206.699 201.668 206.879 201.833 207.059 201.968C208.409 203.033 208.394 204.683 206.984 205.688C206.669 205.913 206.489 206.153 206.384 206.513C206.204 207.143 205.889 207.728 205.544 208.283C204.629 209.813 202.709 210.308 201.194 209.378C200.114 208.718 199.364 207.803 199.169 206.528C199.094 206.048 198.884 205.853 198.479 205.658C197.174 205.043 196.829 203.468 197.714 202.343C198.119 201.818 198.704 201.623 199.394 201.638Z" fill="#020101"/>
<path d="M205.499 205.238C204.839 205.193 204.134 204.953 203.654 204.263C203.579 204.158 203.504 204.038 203.414 203.933C203.084 203.573 202.784 203.558 202.424 203.873C202.139 204.128 201.884 204.428 201.599 204.668C200.714 205.418 199.739 205.373 198.749 204.908C198.134 204.623 197.939 204.023 198.209 203.378C198.449 202.823 198.884 202.388 199.634 202.673C199.964 202.793 200.324 202.868 200.654 202.958C200.789 203.003 200.909 203.033 201.059 202.988C201.254 202.928 201.419 202.823 201.449 202.613C201.479 202.373 201.344 202.283 201.119 202.223C200.729 202.118 200.429 201.893 200.279 201.503C200.129 201.113 200.129 200.738 200.459 200.438C200.774 200.153 201.149 200.093 201.524 200.288C201.869 200.468 202.154 200.693 202.349 201.053C202.619 201.548 202.859 201.533 203.189 201.083C203.339 200.888 203.444 200.663 203.639 200.498C204.014 200.198 204.509 200.213 204.839 200.528C205.154 200.843 205.184 201.203 204.884 201.638C204.734 201.863 204.539 202.058 204.374 202.283C204.284 202.403 204.239 202.538 204.344 202.658C204.434 202.763 204.569 202.808 204.719 202.793C205.004 202.763 205.259 202.628 205.424 202.418C205.664 202.118 205.934 202.178 206.234 202.298C206.909 202.598 207.269 203.273 207.134 203.963C206.969 204.773 206.414 205.238 205.499 205.238Z" fill="#FDFDFD"/>
<path d="M200.023 206.154C200.398 205.974 200.638 206.079 200.818 206.454C200.938 206.724 201.118 206.979 201.313 207.204C202.063 208.029 203.158 208.089 204.013 207.399C204.418 207.069 204.748 206.679 204.988 206.214C205.048 206.109 205.138 206.049 205.258 206.094C205.378 206.139 205.393 206.259 205.348 206.364C205.063 207.039 204.793 207.744 204.223 208.239C203.428 208.944 202.393 209.004 201.508 208.419C200.713 207.864 200.188 207.129 200.023 206.154Z" fill="#F6F7F7"/>
<path d="M202.95 204.773C203.325 205.208 203.7 205.598 204.21 205.778C204.105 206.228 203.82 206.453 203.58 206.708C202.89 207.398 202.17 207.353 201.57 206.588C201.435 206.423 201.3 206.243 201.27 206.003C201.57 205.808 201.87 205.628 202.155 205.418C202.41 205.223 202.665 205.013 202.95 204.773Z" fill="#E28072"/>
<path d="M201.898 201.593C201.898 201.713 201.823 201.818 201.733 201.863C201.448 202.013 201.208 201.863 200.983 201.698C200.773 201.548 200.668 201.323 200.743 201.053C200.788 200.888 200.923 200.783 201.103 200.783C201.433 200.783 201.913 201.263 201.898 201.593Z" fill="#181515"/>
<path d="M203.771 201.938C203.591 201.953 203.441 201.908 203.426 201.698C203.411 201.338 203.756 200.933 204.101 200.918C204.341 200.903 204.521 201.008 204.536 201.278C204.566 201.608 204.191 201.923 203.771 201.938Z" fill="#1D1A1A"/>
<path d="M131.802 251.663C126.597 251.588 121.602 251.633 116.607 251.708C115.287 251.723 113.982 251.708 112.662 251.603C112.467 251.588 112.287 251.603 112.092 251.618C111.282 251.693 110.847 251.348 110.802 250.523C110.757 249.488 110.802 248.438 110.937 247.403C111.207 245.363 111.747 243.383 112.227 241.373C113.247 237.068 114.822 232.943 116.697 228.953C117.327 227.633 117.582 226.343 117.357 224.918C117.207 223.988 117.237 223.058 117.432 222.143C117.657 221.078 117.642 220.013 117.522 218.948C117.432 218.123 117.432 217.298 117.612 216.488C117.882 215.288 117.837 214.088 117.672 212.888C117.567 212.153 117.552 211.403 117.672 210.683C117.822 209.813 117.747 208.943 117.702 208.058C117.567 205.208 117.207 202.373 117.312 199.523C117.372 197.678 117.597 195.863 118.032 194.063C118.122 193.703 118.107 193.358 118.047 192.998C117.642 190.808 117.342 188.618 117.222 186.398C117.057 183.458 117.192 180.533 117.357 177.608C117.432 176.378 117.552 175.148 117.912 173.963C118.107 173.303 118.392 172.673 118.782 172.118C119.472 171.143 120.492 171.008 121.392 171.788C121.617 171.983 121.812 172.223 122.007 172.448C123.087 173.783 123.927 175.238 124.647 176.798C125.337 178.283 126.057 179.753 126.612 181.313C126.882 182.093 126.762 182.138 127.707 181.898C130.452 181.208 133.197 181.223 135.912 181.973C136.407 182.108 136.512 181.883 136.677 181.538C137.967 178.748 139.392 176.033 141.237 173.558C141.687 172.958 142.167 172.403 142.752 171.953C144.162 170.858 145.362 171.248 145.842 172.988C146.142 174.053 146.202 175.148 146.277 176.243C146.457 179.018 146.262 181.778 145.962 184.538C145.737 186.608 145.362 188.663 144.972 190.703C144.777 191.693 144.792 192.608 144.912 193.583C145.362 197.378 145.587 201.173 145.287 204.983C145.182 206.243 145.062 207.488 144.942 208.748C144.867 209.498 144.957 210.218 145.107 210.953C145.317 212.033 145.377 213.128 145.347 214.223C145.302 215.948 145.317 217.673 145.317 219.398C145.317 219.863 145.392 220.328 145.452 220.793C145.557 221.588 145.602 222.383 145.467 223.163C145.257 224.378 145.407 225.548 145.752 226.733C146.547 229.388 147.597 231.953 148.527 234.548C149.562 237.413 150.327 240.353 150.927 243.338C151.227 244.778 151.602 246.218 151.902 247.658C152.097 248.633 152.247 249.608 152.247 250.598C152.262 251.498 151.962 251.798 151.092 251.798C144.627 251.753 138.102 251.828 131.802 251.663Z" fill="black"/>
<path d="M112.945 250.133C112.99 247.448 113.47 244.898 114.04 242.348C114.955 238.238 116.5 234.338 118.18 230.498C119.08 228.458 119.35 226.358 119.155 224.168C119.11 223.643 119.11 223.133 119.215 222.608C119.5 221.273 119.5 219.938 119.335 218.603C119.245 217.883 119.335 217.178 119.515 216.488C119.785 215.378 119.83 214.268 119.68 213.143C119.62 212.648 119.56 212.153 119.575 211.673C119.665 208.658 119.32 205.658 119.17 202.643C119.125 201.788 119.17 200.918 119.17 200.018C119.485 200.153 119.545 200.408 119.68 200.588C121.195 202.658 123.76 202.883 125.605 201.113C126.31 200.438 126.82 199.643 127.165 198.728C127.27 198.458 127.33 198.218 127.705 198.248C127.93 198.263 128.11 198.098 128.17 197.843C128.23 197.543 128.11 197.303 127.855 197.138C127.195 196.703 126.505 196.298 125.755 196.028C123.925 195.353 122.17 194.513 120.325 193.928C120.04 193.838 119.905 193.748 119.995 193.418C120.46 191.618 120.88 189.803 121.6 188.078C121.945 187.268 122.38 186.518 122.92 185.813C123.13 185.543 123.49 185.168 123.19 184.883C122.845 184.553 122.5 184.973 122.2 185.198C121.57 185.678 121.12 186.338 120.55 187.073C120.175 183.668 120.13 180.413 120.565 177.188C120.775 177.128 120.85 177.203 120.895 177.308C121.585 178.808 122.275 180.293 122.935 181.793C123.13 182.213 123.235 182.678 123.4 183.113C123.49 183.338 123.565 183.578 123.7 183.788C123.805 183.953 123.985 184.058 124.195 183.953C124.36 183.878 124.45 183.728 124.42 183.548C124.39 183.338 124.33 183.113 124.285 182.903C123.73 180.698 122.62 178.733 121.645 176.723C121.6 176.618 121.54 176.528 121.465 176.453C120.985 175.823 120.445 175.853 120.055 176.573C119.77 177.113 119.68 177.713 119.605 178.313C119.245 181.403 119.35 184.493 119.755 187.583C119.83 188.168 119.8 188.708 119.53 189.248C119.32 189.653 119.2 190.118 119.035 190.583C118.84 190.283 118.795 189.998 118.78 189.713C118.525 186.068 118.345 182.438 118.63 178.793C118.75 177.338 118.885 175.898 119.275 174.488C119.425 173.963 119.62 173.438 119.935 172.988C120.19 172.628 120.34 172.598 120.67 172.898C120.835 173.048 120.97 173.228 121.09 173.393C121.9 174.503 122.62 175.658 123.115 176.948C123.37 177.608 123.685 178.253 124.03 178.883C124.66 180.053 124.975 181.328 125.425 182.558C125.515 182.798 125.41 182.903 125.275 183.053C125.125 183.218 124.96 183.398 125.11 183.638C125.275 183.893 125.5 183.863 125.77 183.788C127.465 183.293 129.22 183.173 130.975 183.173C132.82 183.158 134.635 183.368 136.405 183.908C136.675 183.983 136.93 184.073 137.215 184.043C137.845 183.983 138.07 183.623 137.8 183.023C137.68 182.753 137.695 182.573 137.815 182.348C139.21 179.618 140.545 176.858 142.42 174.398C142.825 173.873 143.245 173.363 143.77 172.958C144.13 172.688 144.265 172.718 144.4 173.168C144.52 173.558 144.595 173.963 144.64 174.383C144.94 177.593 144.805 180.788 144.4 183.983C144.205 185.528 144.085 187.088 143.755 188.693C143.395 188.228 143.2 187.793 143.275 187.223C143.485 185.483 143.695 183.743 143.89 182.003C144.025 180.803 144.115 179.603 143.995 178.388C143.965 178.058 143.92 177.728 143.815 177.428C143.56 176.618 143.065 176.483 142.405 177.038C142.255 177.158 142.12 177.293 142.015 177.458C140.77 179.228 139.675 181.103 139 183.173C138.925 183.413 138.85 183.653 138.88 183.893C138.91 184.163 139.165 184.238 139.36 184.058C139.615 183.803 139.735 183.458 139.87 183.128C140.53 181.523 141.415 180.053 142.33 178.583C142.465 178.358 142.585 178.103 142.84 177.953C143.2 178.868 142.93 182.603 142.225 186.173C141.94 186.113 141.79 185.858 141.61 185.678C141.205 185.288 140.77 184.973 140.245 184.793C140.065 184.733 139.855 184.673 139.705 184.853C139.54 185.063 139.705 185.213 139.825 185.348C140.32 185.933 140.77 186.563 141.205 187.193C142.45 189.008 142.87 191.093 143.29 193.193C143.38 193.613 143.095 193.688 142.81 193.808C140.725 194.708 138.67 195.698 136.675 196.763C136.27 196.988 135.865 197.213 135.475 197.468C135.19 197.648 134.89 197.873 135.1 198.263C135.28 198.608 135.595 198.533 135.895 198.428C135.97 198.398 136.06 198.413 136.165 198.398C136.255 198.743 136.315 199.088 136.435 199.418C136.84 200.648 137.56 201.608 138.76 202.148C139.93 202.673 141.055 202.493 142.09 201.758C142.675 201.338 143.125 200.783 143.53 200.183C143.785 200.288 143.68 200.513 143.665 200.663C143.53 203.408 143.575 206.138 143.365 208.883C143.305 209.573 143.32 210.248 143.455 210.923C143.92 213.368 143.905 215.828 143.785 218.303C143.74 219.233 143.77 220.163 143.965 221.078C144.115 221.753 144.1 222.443 144.01 223.118C143.875 224.048 143.935 224.963 144.115 225.893C144.265 226.688 144.28 227.528 144.52 228.323C144.715 228.983 144.895 229.643 145.15 230.273C146.995 234.998 148.555 239.813 149.605 244.778C149.95 246.383 150.415 247.958 150.67 249.593C150.835 250.673 150.79 250.508 149.83 250.508C148.93 250.508 148.015 250.493 147.115 250.463C146.11 250.448 146.275 250.568 146.215 249.563C146.14 248.408 146.05 247.268 145.81 246.143C145.69 245.603 145.6 245.063 145.345 244.568C145.255 244.373 145.165 244.103 144.895 244.178C144.64 244.238 144.655 244.523 144.655 244.733C144.655 245.288 144.655 245.828 144.715 246.383C144.835 247.568 144.76 248.738 144.79 249.923C144.805 250.388 144.61 250.463 144.205 250.463C142.54 250.433 140.86 250.418 139.195 250.418C132.505 250.403 125.815 250.493 119.125 250.283C119.02 250.283 118.9 250.268 118.795 250.283C118.48 250.313 118.36 250.193 118.36 249.863C118.405 248.333 118.42 246.788 118.45 245.258C118.465 244.658 118.51 244.058 118.54 243.458C118.555 243.293 118.54 243.098 118.33 243.068C118.135 243.038 118.045 243.188 117.97 243.338C117.76 243.758 117.625 244.208 117.52 244.658C117.19 246.068 116.965 247.508 116.86 248.963C116.83 249.263 116.8 249.563 116.785 249.863C116.77 250.163 116.62 250.268 116.305 250.268C115.165 250.118 114.1 250.133 112.945 250.133Z" fill="white"/>
<path d="M125.699 198.413C125.699 199.118 125.159 199.658 124.454 199.643C123.794 199.628 123.254 199.088 123.254 198.428C123.254 197.753 123.839 197.168 124.514 197.183C125.159 197.198 125.684 197.738 125.699 198.413Z" fill="#FAFAFA"/>
<path d="M139.977 198.608C139.962 199.253 139.437 199.718 138.792 199.688C138.177 199.643 137.757 199.148 137.787 198.533C137.817 197.903 138.282 197.453 138.882 197.453C139.512 197.453 139.992 197.963 139.977 198.608Z" fill="#FAFBFB"/>
<path d="M128.398 201.638C128.338 200.723 128.488 199.928 129.418 199.568C130.303 199.223 131.023 199.523 131.668 200.243C132.058 199.868 132.433 199.493 133.003 199.403C134.023 199.238 134.833 199.778 134.938 200.798C134.983 201.233 135.058 201.518 135.508 201.623C135.703 201.668 135.883 201.833 136.063 201.968C137.413 203.033 137.398 204.683 135.988 205.688C135.673 205.913 135.493 206.153 135.388 206.513C135.208 207.143 134.893 207.728 134.548 208.283C133.633 209.813 131.713 210.308 130.198 209.378C129.118 208.718 128.368 207.803 128.173 206.528C128.098 206.048 127.888 205.853 127.483 205.658C126.178 205.043 125.833 203.468 126.718 202.343C127.138 201.818 127.708 201.623 128.398 201.638Z" fill="#020101"/>
<path d="M134.502 205.238C133.842 205.193 133.137 204.953 132.657 204.263C132.582 204.158 132.507 204.038 132.417 203.933C132.087 203.573 131.787 203.558 131.427 203.873C131.142 204.128 130.887 204.428 130.602 204.668C129.717 205.418 128.742 205.373 127.752 204.908C127.137 204.623 126.942 204.023 127.212 203.378C127.452 202.823 127.887 202.388 128.637 202.673C128.967 202.793 129.327 202.868 129.657 202.958C129.792 203.003 129.912 203.033 130.062 202.988C130.257 202.928 130.422 202.823 130.452 202.613C130.482 202.373 130.347 202.283 130.122 202.223C129.732 202.118 129.432 201.893 129.282 201.503C129.132 201.113 129.132 200.738 129.462 200.438C129.777 200.153 130.152 200.093 130.527 200.288C130.872 200.468 131.157 200.693 131.352 201.053C131.622 201.548 131.862 201.533 132.192 201.083C132.342 200.888 132.447 200.663 132.642 200.498C133.017 200.198 133.512 200.213 133.842 200.528C134.157 200.843 134.187 201.203 133.887 201.638C133.737 201.863 133.542 202.058 133.377 202.283C133.287 202.403 133.242 202.538 133.347 202.658C133.437 202.763 133.572 202.808 133.722 202.793C134.007 202.763 134.262 202.628 134.427 202.418C134.667 202.118 134.937 202.178 135.237 202.298C135.912 202.598 136.272 203.273 136.137 203.963C135.972 204.773 135.417 205.238 134.502 205.238Z" fill="#FDFDFD"/>
<path d="M129.043 206.154C129.418 205.974 129.658 206.079 129.838 206.454C129.958 206.724 130.138 206.979 130.333 207.204C131.083 208.029 132.178 208.089 133.033 207.399C133.438 207.069 133.768 206.679 134.008 206.214C134.068 206.109 134.158 206.049 134.278 206.094C134.398 206.139 134.413 206.259 134.368 206.364C134.083 207.039 133.813 207.744 133.243 208.239C132.448 208.944 131.413 209.004 130.528 208.419C129.733 207.864 129.208 207.129 129.043 206.154Z" fill="#F6F7F7"/>
<path d="M131.953 204.773C132.328 205.208 132.703 205.598 133.213 205.778C133.108 206.228 132.823 206.453 132.583 206.708C131.893 207.398 131.173 207.353 130.573 206.588C130.438 206.423 130.303 206.243 130.273 206.003C130.573 205.808 130.873 205.628 131.158 205.418C131.428 205.223 131.668 205.013 131.953 204.773Z" fill="#E28072"/>
<path d="M130.902 201.593C130.902 201.713 130.827 201.818 130.737 201.863C130.452 202.013 130.212 201.863 129.987 201.698C129.777 201.548 129.672 201.323 129.747 201.053C129.792 200.888 129.927 200.783 130.107 200.783C130.437 200.783 130.917 201.263 130.902 201.593Z" fill="#181515"/>
<path d="M132.775 201.938C132.595 201.953 132.445 201.908 132.43 201.698C132.415 201.338 132.76 200.933 133.105 200.918C133.345 200.903 133.525 201.008 133.54 201.278C133.57 201.608 133.195 201.923 132.775 201.938Z" fill="#1D1A1A"/>
<path d="M97.6926 251.663C92.4876 251.588 87.4927 251.633 82.4977 251.708C81.1777 251.723 79.8727 251.708 78.5527 251.603C78.3577 251.588 78.1777 251.603 77.9827 251.618C77.1727 251.693 76.7377 251.348 76.6927 250.523C76.6477 249.488 76.6927 248.438 76.8277 247.403C77.0977 245.363 77.6377 243.383 78.1177 241.373C79.1377 237.068 80.7127 232.943 82.5877 228.953C83.2177 227.633 83.4727 226.343 83.2477 224.918C83.0977 223.988 83.1277 223.058 83.3227 222.143C83.5477 221.078 83.5327 220.013 83.4127 218.948C83.3227 218.123 83.3226 217.298 83.5026 216.488C83.7726 215.288 83.7277 214.088 83.5627 212.888C83.4577 212.153 83.4427 211.403 83.5627 210.683C83.7127 209.813 83.6377 208.943 83.5927 208.058C83.4577 205.208 83.0977 202.373 83.2027 199.523C83.2627 197.678 83.4877 195.863 83.9227 194.063C84.0127 193.703 83.9977 193.358 83.9377 192.998C83.5327 190.808 83.2327 188.618 83.1127 186.398C82.9477 183.458 83.0827 180.533 83.2477 177.608C83.3227 176.378 83.4427 175.148 83.8027 173.963C83.9977 173.303 84.2827 172.673 84.6727 172.118C85.3627 171.143 86.3826 171.008 87.2826 171.788C87.5076 171.983 87.7026 172.223 87.8976 172.448C88.9776 173.783 89.8177 175.238 90.5377 176.798C91.2277 178.283 91.9476 179.753 92.5026 181.313C92.7726 182.093 92.6527 182.138 93.5977 181.898C96.3426 181.208 99.0877 181.223 101.803 181.973C102.298 182.108 102.403 181.883 102.568 181.538C103.858 178.748 105.283 176.033 107.128 173.558C107.578 172.958 108.058 172.403 108.643 171.953C110.053 170.858 111.253 171.248 111.733 172.988C112.033 174.053 112.093 175.148 112.168 176.243C112.348 179.018 112.153 181.778 111.853 184.538C111.628 186.608 111.253 188.663 110.863 190.703C110.668 191.693 110.683 192.608 110.803 193.583C111.253 197.378 111.478 201.173 111.178 204.983C111.073 206.243 110.953 207.488 110.833 208.748C110.758 209.498 110.848 210.218 110.998 210.953C111.208 212.033 111.268 213.128 111.238 214.223C111.193 215.948 111.208 217.673 111.208 219.398C111.208 219.863 111.283 220.328 111.343 220.793C111.448 221.588 111.493 222.383 111.358 223.163C111.148 224.378 111.298 225.548 111.643 226.733C112.438 229.388 113.488 231.953 114.418 234.548C115.453 237.413 116.218 240.353 116.818 243.338C117.118 244.778 117.493 246.218 117.793 247.658C117.988 248.633 118.138 249.608 118.138 250.598C118.153 251.498 117.853 251.798 116.983 251.798C110.518 251.753 103.993 251.828 97.6926 251.663Z" fill="black"/>
<path d="M78.8359 250.133C78.8809 247.448 79.3609 244.898 79.9309 242.348C80.8459 238.238 82.3909 234.338 84.0709 230.498C84.9709 228.458 85.2409 226.358 85.0459 224.168C85.0009 223.643 85.0009 223.133 85.1059 222.608C85.3909 221.273 85.3909 219.938 85.2259 218.603C85.1359 217.883 85.2259 217.178 85.4059 216.488C85.6759 215.378 85.7209 214.268 85.5709 213.143C85.5109 212.648 85.4509 212.153 85.4659 211.673C85.5559 208.658 85.2109 205.658 85.0609 202.643C85.0159 201.788 85.0609 200.918 85.0609 200.018C85.3759 200.153 85.4359 200.408 85.5709 200.588C87.0859 202.658 89.6509 202.883 91.4959 201.113C92.2009 200.438 92.7109 199.643 93.0559 198.728C93.1609 198.458 93.2209 198.218 93.5959 198.248C93.8209 198.263 94.0009 198.098 94.0609 197.843C94.1209 197.543 94.0009 197.303 93.7459 197.138C93.0859 196.703 92.3959 196.298 91.6459 196.028C89.8159 195.353 88.0609 194.513 86.2159 193.928C85.9309 193.838 85.7959 193.748 85.8859 193.418C86.3509 191.618 86.7709 189.803 87.4909 188.078C87.8359 187.268 88.2709 186.518 88.8109 185.813C89.0209 185.543 89.3809 185.168 89.0809 184.883C88.7359 184.553 88.3909 184.973 88.0909 185.198C87.4609 185.678 87.0109 186.338 86.4409 187.073C86.0659 183.668 86.0209 180.413 86.4559 177.188C86.6659 177.128 86.7409 177.203 86.7859 177.308C87.4759 178.808 88.1659 180.293 88.8259 181.793C89.0209 182.213 89.1259 182.678 89.2909 183.113C89.3809 183.338 89.4559 183.578 89.5909 183.788C89.6959 183.953 89.8759 184.058 90.0859 183.953C90.2509 183.878 90.3409 183.728 90.3109 183.548C90.2809 183.338 90.2209 183.113 90.1759 182.903C89.6209 180.698 88.5109 178.733 87.5359 176.723C87.4909 176.618 87.4309 176.528 87.3559 176.453C86.8759 175.823 86.3359 175.853 85.9459 176.573C85.6609 177.113 85.5709 177.713 85.4959 178.313C85.1359 181.403 85.2409 184.493 85.6459 187.583C85.7209 188.168 85.6909 188.708 85.4209 189.248C85.2109 189.653 85.0909 190.118 84.9259 190.583C84.7309 190.283 84.6859 189.998 84.6709 189.713C84.4159 186.068 84.2359 182.438 84.5209 178.793C84.6409 177.338 84.7759 175.898 85.1659 174.488C85.3159 173.963 85.5109 173.438 85.8259 172.988C86.0809 172.628 86.2309 172.598 86.5609 172.898C86.7259 173.048 86.8609 173.228 86.9809 173.393C87.7909 174.503 88.5109 175.658 89.0059 176.948C89.2609 177.608 89.5759 178.253 89.9209 178.883C90.5509 180.053 90.8659 181.328 91.3159 182.558C91.4059 182.798 91.3009 182.903 91.1659 183.053C91.0159 183.218 90.8509 183.398 91.0009 183.638C91.1659 183.893 91.3909 183.863 91.6609 183.788C93.3559 183.293 95.1109 183.173 96.8659 183.173C98.7109 183.158 100.526 183.368 102.296 183.908C102.566 183.983 102.821 184.073 103.106 184.043C103.736 183.983 103.961 183.623 103.691 183.023C103.571 182.753 103.586 182.573 103.706 182.348C105.101 179.618 106.436 176.858 108.311 174.398C108.716 173.873 109.136 173.363 109.661 172.958C110.021 172.688 110.156 172.718 110.291 173.168C110.411 173.558 110.486 173.963 110.531 174.383C110.831 177.593 110.696 180.788 110.291 183.983C110.096 185.528 109.976 187.088 109.646 188.693C109.286 188.228 109.091 187.793 109.166 187.223C109.376 185.483 109.586 183.743 109.781 182.003C109.916 180.803 110.006 179.603 109.886 178.388C109.856 178.058 109.811 177.728 109.706 177.428C109.451 176.618 108.956 176.483 108.296 177.038C108.146 177.158 108.011 177.293 107.906 177.458C106.661 179.228 105.566 181.103 104.891 183.173C104.816 183.413 104.741 183.653 104.771 183.893C104.801 184.163 105.056 184.238 105.251 184.058C105.506 183.803 105.626 183.458 105.761 183.128C106.421 181.523 107.306 180.053 108.221 178.583C108.356 178.358 108.476 178.103 108.731 177.953C109.091 178.868 108.821 182.603 108.116 186.173C107.831 186.113 107.681 185.858 107.501 185.678C107.096 185.288 106.661 184.973 106.136 184.793C105.956 184.733 105.746 184.673 105.596 184.853C105.431 185.063 105.596 185.213 105.716 185.348C106.211 185.933 106.661 186.563 107.096 187.193C108.341 189.008 108.761 191.093 109.181 193.193C109.271 193.613 108.986 193.688 108.701 193.808C106.616 194.708 104.561 195.698 102.566 196.763C102.161 196.988 101.756 197.213 101.366 197.468C101.081 197.648 100.781 197.873 100.991 198.263C101.171 198.608 101.486 198.533 101.786 198.428C101.861 198.398 101.951 198.413 102.056 198.398C102.146 198.743 102.206 199.088 102.326 199.418C102.731 200.648 103.451 201.608 104.651 202.148C105.821 202.673 106.946 202.493 107.981 201.758C108.566 201.338 109.016 200.783 109.421 200.183C109.676 200.288 109.571 200.513 109.556 200.663C109.421 203.408 109.466 206.138 109.256 208.883C109.196 209.573 109.211 210.248 109.346 210.923C109.811 213.368 109.796 215.828 109.676 218.303C109.631 219.233 109.661 220.163 109.856 221.078C110.006 221.753 109.991 222.443 109.901 223.118C109.766 224.048 109.826 224.963 110.006 225.893C110.156 226.688 110.171 227.528 110.411 228.323C110.606 228.983 110.786 229.643 111.041 230.273C112.886 234.998 114.446 239.813 115.496 244.778C115.841 246.383 116.306 247.958 116.561 249.593C116.726 250.673 116.681 250.508 115.721 250.508C114.821 250.508 113.906 250.493 113.006 250.463C112.001 250.448 112.166 250.568 112.106 249.563C112.031 248.408 111.941 247.268 111.701 246.143C111.581 245.603 111.491 245.063 111.236 244.568C111.146 244.373 111.056 244.103 110.786 244.178C110.531 244.238 110.546 244.523 110.546 244.733C110.546 245.288 110.546 245.828 110.606 246.383C110.726 247.568 110.651 248.738 110.681 249.923C110.696 250.388 110.501 250.463 110.096 250.463C108.431 250.433 106.751 250.418 105.086 250.418C98.3959 250.403 91.7059 250.493 85.0159 250.283C84.9109 250.283 84.7909 250.268 84.6859 250.283C84.3709 250.313 84.2509 250.193 84.2509 249.863C84.2959 248.333 84.3109 246.788 84.3409 245.258C84.3559 244.658 84.4009 244.058 84.4309 243.458C84.4459 243.293 84.4309 243.098 84.2209 243.068C84.0259 243.038 83.9359 243.188 83.8609 243.338C83.6509 243.758 83.5159 244.208 83.4109 244.658C83.0809 246.068 82.8559 247.508 82.7509 248.963C82.7209 249.263 82.6909 249.563 82.6759 249.863C82.6609 250.163 82.5109 250.268 82.1959 250.268C81.0559 250.118 79.9909 250.133 78.8359 250.133Z" fill="white"/>
<path d="M91.5895 198.413C91.5895 199.118 91.0495 199.658 90.3445 199.643C89.6845 199.628 89.1445 199.088 89.1445 198.428C89.1445 197.753 89.7295 197.168 90.4045 197.183C91.0495 197.198 91.5745 197.738 91.5895 198.413Z" fill="#FAFAFA"/>
<path d="M105.867 198.608C105.852 199.253 105.327 199.718 104.682 199.688C104.067 199.643 103.647 199.148 103.677 198.533C103.707 197.903 104.172 197.453 104.772 197.453C105.402 197.453 105.882 197.963 105.867 198.608Z" fill="#FAFBFB"/>
<path d="M94.2881 201.638C94.2281 200.723 94.3781 199.928 95.3081 199.568C96.1931 199.223 96.9131 199.523 97.5581 200.243C97.9481 199.868 98.3231 199.493 98.8931 199.403C99.9132 199.238 100.723 199.778 100.828 200.798C100.873 201.233 100.948 201.518 101.398 201.623C101.593 201.668 101.773 201.833 101.953 201.968C103.303 203.033 103.288 204.683 101.878 205.688C101.563 205.913 101.383 206.153 101.278 206.513C101.098 207.143 100.783 207.728 100.438 208.283C99.5231 209.813 97.6031 210.308 96.0881 209.378C95.0081 208.718 94.2581 207.803 94.0631 206.528C93.9881 206.048 93.7781 205.853 93.3731 205.658C92.0681 205.043 91.7231 203.468 92.6081 202.343C93.0281 201.818 93.5981 201.623 94.2881 201.638Z" fill="#020101"/>
<path d="M100.393 205.238C99.7331 205.193 99.0281 204.953 98.5481 204.263C98.4731 204.158 98.3981 204.038 98.3081 203.933C97.9781 203.573 97.6781 203.558 97.3181 203.873C97.0331 204.128 96.7781 204.428 96.4931 204.668C95.6081 205.418 94.6331 205.373 93.6431 204.908C93.0281 204.623 92.8331 204.023 93.1031 203.378C93.3431 202.823 93.7781 202.388 94.5281 202.673C94.8581 202.793 95.2181 202.868 95.5481 202.958C95.6831 203.003 95.8031 203.033 95.9531 202.988C96.1481 202.928 96.3131 202.823 96.3431 202.613C96.3731 202.373 96.2381 202.283 96.0131 202.223C95.6231 202.118 95.3231 201.893 95.1731 201.503C95.0231 201.113 95.0231 200.738 95.3531 200.438C95.6681 200.153 96.0431 200.093 96.4181 200.288C96.7631 200.468 97.0481 200.693 97.2431 201.053C97.5131 201.548 97.7531 201.533 98.0831 201.083C98.2331 200.888 98.3381 200.663 98.5331 200.498C98.9081 200.198 99.4031 200.213 99.7331 200.528C100.048 200.843 100.078 201.203 99.7781 201.638C99.6281 201.863 99.4331 202.058 99.2681 202.283C99.1781 202.403 99.1331 202.538 99.2381 202.658C99.3281 202.763 99.4631 202.808 99.6131 202.793C99.8981 202.763 100.153 202.628 100.318 202.418C100.558 202.118 100.828 202.178 101.128 202.298C101.803 202.598 102.163 203.273 102.028 203.963C101.863 204.773 101.308 205.238 100.393 205.238Z" fill="#FDFDFD"/>
<path d="M94.9336 206.154C95.3086 205.974 95.5486 206.079 95.7286 206.454C95.8486 206.724 96.0286 206.979 96.2236 207.204C96.9736 208.029 98.0686 208.089 98.9236 207.399C99.3286 207.069 99.6586 206.679 99.8986 206.214C99.9586 206.109 100.049 206.049 100.169 206.094C100.289 206.139 100.304 206.259 100.259 206.364C99.9736 207.039 99.7036 207.744 99.1336 208.239C98.3386 208.944 97.3036 209.004 96.4186 208.419C95.6086 207.864 95.0986 207.129 94.9336 206.154Z" fill="#F6F7F7"/>
<path d="M97.8441 204.773C98.2191 205.208 98.5941 205.598 99.1041 205.778C98.9991 206.228 98.7141 206.453 98.4741 206.708C97.7841 207.398 97.0641 207.353 96.4641 206.588C96.3291 206.423 96.1941 206.243 96.1641 206.003C96.4641 205.808 96.7641 205.628 97.0491 205.418C97.3041 205.223 97.5591 205.013 97.8441 204.773Z" fill="#E28072"/>
<path d="M96.7924 201.593C96.7924 201.713 96.7174 201.818 96.6274 201.863C96.3424 202.013 96.1024 201.863 95.8774 201.698C95.6674 201.548 95.5624 201.323 95.6374 201.053C95.6824 200.888 95.8174 200.783 95.9974 200.783C96.3274 200.783 96.8074 201.263 96.7924 201.593Z" fill="#181515"/>
<path d="M98.6658 201.938C98.4858 201.953 98.3358 201.908 98.3208 201.698C98.3058 201.338 98.6508 200.933 98.9958 200.918C99.2358 200.903 99.4158 201.008 99.4308 201.278C99.4608 201.608 99.0858 201.923 98.6658 201.938Z" fill="#1D1A1A"/>
<path d="M165.404 251.663C160.199 251.588 155.204 251.633 150.209 251.708C148.889 251.723 147.584 251.708 146.264 251.603C146.069 251.588 145.889 251.603 145.694 251.618C144.884 251.693 144.449 251.348 144.404 250.523C144.359 249.488 144.404 248.438 144.539 247.403C144.809 245.363 145.349 243.383 145.829 241.373C146.849 237.068 148.424 232.943 150.299 228.953C150.929 227.633 151.184 226.343 150.959 224.918C150.809 223.988 150.839 223.058 151.034 222.143C151.259 221.078 151.244 220.013 151.124 218.948C151.034 218.123 151.034 217.298 151.214 216.488C151.484 215.288 151.439 214.088 151.274 212.888C151.169 212.153 151.154 211.403 151.274 210.683C151.424 209.813 151.349 208.943 151.304 208.058C151.169 205.208 150.809 202.373 150.914 199.523C150.974 197.678 151.199 195.863 151.634 194.063C151.724 193.703 151.709 193.358 151.649 192.998C151.244 190.808 150.944 188.618 150.824 186.398C150.659 183.458 150.794 180.533 150.959 177.608C151.034 176.378 151.154 175.148 151.514 173.963C151.709 173.303 151.994 172.673 152.384 172.118C153.074 171.143 154.094 171.008 154.994 171.788C155.219 171.983 155.414 172.223 155.609 172.448C156.689 173.783 157.529 175.238 158.249 176.798C158.939 178.283 159.659 179.753 160.214 181.313C160.484 182.093 160.364 182.138 161.309 181.898C164.054 181.208 166.799 181.223 169.514 181.973C170.009 182.108 170.114 181.883 170.279 181.538C171.569 178.748 172.994 176.033 174.839 173.558C175.289 172.958 175.769 172.403 176.354 171.953C177.764 170.858 178.964 171.248 179.444 172.988C179.744 174.053 179.804 175.148 179.879 176.243C180.059 179.018 179.864 181.778 179.564 184.538C179.339 186.608 178.964 188.663 178.574 190.703C178.379 191.693 178.394 192.608 178.514 193.583C178.964 197.378 179.189 201.173 178.889 204.983C178.784 206.243 178.664 207.488 178.544 208.748C178.469 209.498 178.559 210.218 178.709 210.953C178.919 212.033 178.979 213.128 178.949 214.223C178.904 215.948 178.919 217.673 178.919 219.398C178.919 219.863 178.994 220.328 179.054 220.793C179.159 221.588 179.204 222.383 179.069 223.163C178.859 224.378 179.009 225.548 179.354 226.733C180.149 229.388 181.199 231.953 182.129 234.548C183.164 237.413 183.929 240.353 184.529 243.338C184.829 244.778 185.204 246.218 185.504 247.658C185.699 248.633 185.849 249.608 185.849 250.598C185.864 251.498 185.564 251.798 184.694 251.798C178.244 251.753 171.719 251.828 165.404 251.663Z" fill="black"/>
<path d="M146.547 250.133C146.592 247.448 147.072 244.898 147.642 242.348C148.557 238.238 150.102 234.338 151.782 230.498C152.682 228.458 152.952 226.358 152.757 224.168C152.712 223.643 152.712 223.133 152.817 222.608C153.102 221.273 153.102 219.938 152.937 218.603C152.847 217.883 152.937 217.178 153.117 216.488C153.387 215.378 153.432 214.268 153.282 213.143C153.222 212.648 153.162 212.153 153.177 211.673C153.267 208.658 152.922 205.658 152.772 202.643C152.727 201.788 152.772 200.918 152.772 200.018C153.087 200.153 153.147 200.408 153.282 200.588C154.797 202.658 157.362 202.883 159.207 201.113C159.912 200.438 160.422 199.643 160.767 198.728C160.872 198.458 160.932 198.218 161.307 198.248C161.532 198.263 161.712 198.098 161.772 197.843C161.832 197.543 161.712 197.303 161.457 197.138C160.797 196.703 160.107 196.298 159.357 196.028C157.527 195.353 155.772 194.513 153.927 193.928C153.642 193.838 153.507 193.748 153.597 193.418C154.062 191.618 154.482 189.803 155.202 188.078C155.547 187.268 155.982 186.518 156.522 185.813C156.732 185.543 157.092 185.168 156.792 184.883C156.447 184.553 156.102 184.973 155.802 185.198C155.172 185.678 154.722 186.338 154.152 187.073C153.777 183.668 153.732 180.413 154.167 177.188C154.377 177.128 154.452 177.203 154.497 177.308C155.187 178.808 155.877 180.293 156.537 181.793C156.732 182.213 156.837 182.678 157.002 183.113C157.092 183.338 157.167 183.578 157.302 183.788C157.407 183.953 157.587 184.058 157.797 183.953C157.962 183.878 158.052 183.728 158.022 183.548C157.992 183.338 157.932 183.113 157.887 182.903C157.332 180.698 156.222 178.733 155.247 176.723C155.202 176.618 155.142 176.528 155.067 176.453C154.587 175.823 154.047 175.853 153.657 176.573C153.372 177.113 153.282 177.713 153.207 178.313C152.847 181.403 152.952 184.493 153.357 187.583C153.432 188.168 153.402 188.708 153.132 189.248C152.922 189.653 152.802 190.118 152.637 190.583C152.442 190.283 152.397 189.998 152.382 189.713C152.127 186.068 151.947 182.438 152.232 178.793C152.352 177.338 152.487 175.898 152.877 174.488C153.027 173.963 153.222 173.438 153.537 172.988C153.792 172.628 153.942 172.598 154.272 172.898C154.437 173.048 154.572 173.228 154.692 173.393C155.502 174.503 156.222 175.658 156.717 176.948C156.972 177.608 157.287 178.253 157.632 178.883C158.262 180.053 158.577 181.328 159.027 182.558C159.117 182.798 159.012 182.903 158.877 183.053C158.727 183.218 158.562 183.398 158.712 183.638C158.877 183.893 159.102 183.863 159.372 183.788C161.067 183.293 162.822 183.173 164.577 183.173C166.422 183.158 168.237 183.368 170.007 183.908C170.277 183.983 170.532 184.073 170.817 184.043C171.447 183.983 171.672 183.623 171.402 183.023C171.282 182.753 171.297 182.573 171.417 182.348C172.812 179.618 174.147 176.858 176.022 174.398C176.427 173.873 176.847 173.363 177.372 172.958C177.732 172.688 177.867 172.718 178.002 173.168C178.122 173.558 178.197 173.963 178.242 174.383C178.542 177.593 178.407 180.788 178.002 183.983C177.807 185.528 177.687 187.088 177.357 188.693C176.997 188.228 176.802 187.793 176.877 187.223C177.087 185.483 177.297 183.743 177.492 182.003C177.627 180.803 177.717 179.603 177.597 178.388C177.567 178.058 177.522 177.728 177.417 177.428C177.162 176.618 176.667 176.483 176.007 177.038C175.857 177.158 175.722 177.293 175.617 177.458C174.372 179.228 173.277 181.103 172.602 183.173C172.527 183.413 172.452 183.653 172.482 183.893C172.512 184.163 172.767 184.238 172.962 184.058C173.217 183.803 173.337 183.458 173.472 183.128C174.132 181.523 175.017 180.053 175.932 178.583C176.067 178.358 176.187 178.103 176.442 177.953C176.802 178.868 176.532 182.603 175.827 186.173C175.542 186.113 175.392 185.858 175.212 185.678C174.807 185.288 174.372 184.973 173.847 184.793C173.667 184.733 173.457 184.673 173.307 184.853C173.142 185.063 173.307 185.213 173.427 185.348C173.922 185.933 174.372 186.563 174.807 187.193C176.052 189.008 176.472 191.093 176.892 193.193C176.982 193.613 176.697 193.688 176.412 193.808C174.327 194.708 172.272 195.698 170.277 196.763C169.872 196.988 169.467 197.213 169.077 197.468C168.792 197.648 168.492 197.873 168.702 198.263C168.882 198.608 169.197 198.533 169.497 198.428C169.572 198.398 169.662 198.413 169.767 198.398C169.857 198.743 169.917 199.088 170.037 199.418C170.442 200.648 171.162 201.608 172.362 202.148C173.532 202.673 174.657 202.493 175.692 201.758C176.277 201.338 176.727 200.783 177.132 200.183C177.387 200.288 177.282 200.513 177.267 200.663C177.132 203.408 177.177 206.138 176.967 208.883C176.907 209.573 176.922 210.248 177.057 210.923C177.522 213.368 177.507 215.828 177.387 218.303C177.342 219.233 177.372 220.163 177.567 221.078C177.717 221.753 177.702 222.443 177.612 223.118C177.477 224.048 177.537 224.963 177.717 225.893C177.867 226.688 177.882 227.528 178.122 228.323C178.317 228.983 178.497 229.643 178.752 230.273C180.597 234.998 182.157 239.813 183.207 244.778C183.552 246.383 184.017 247.958 184.272 249.593C184.437 250.673 184.392 250.508 183.432 250.508C182.532 250.508 181.617 250.493 180.717 250.463C179.712 250.448 179.877 250.568 179.817 249.563C179.742 248.408 179.652 247.268 179.412 246.143C179.292 245.603 179.202 245.063 178.947 244.568C178.857 244.373 178.767 244.103 178.497 244.178C178.242 244.238 178.257 244.523 178.257 244.733C178.257 245.288 178.257 245.828 178.317 246.383C178.437 247.568 178.362 248.738 178.392 249.923C178.407 250.388 178.212 250.463 177.807 250.463C176.142 250.433 174.462 250.418 172.797 250.418C166.107 250.403 159.417 250.493 152.727 250.283C152.622 250.283 152.502 250.268 152.397 250.283C152.082 250.313 151.962 250.193 151.962 249.863C152.007 248.333 152.022 246.788 152.052 245.258C152.067 244.658 152.112 244.058 152.142 243.458C152.157 243.293 152.142 243.098 151.932 243.068C151.737 243.038 151.647 243.188 151.572 243.338C151.362 243.758 151.227 244.208 151.122 244.658C150.792 246.068 150.567 247.508 150.462 248.963C150.432 249.263 150.402 249.563 150.387 249.863C150.372 250.163 150.222 250.268 149.907 250.268C148.782 250.118 147.717 250.133 146.547 250.133Z" fill="white"/>
<path d="M159.3 198.413C159.3 199.118 158.76 199.658 158.055 199.643C157.395 199.628 156.855 199.088 156.855 198.428C156.855 197.753 157.44 197.168 158.115 197.183C158.775 197.198 159.3 197.738 159.3 198.413Z" fill="#FAFAFA"/>
<path d="M173.578 198.608C173.563 199.253 173.038 199.718 172.393 199.688C171.778 199.643 171.358 199.148 171.388 198.533C171.418 197.903 171.883 197.453 172.483 197.453C173.128 197.453 173.608 197.963 173.578 198.608Z" fill="#FAFBFB"/>
<path d="M161.999 201.638C161.939 200.723 162.089 199.928 163.019 199.568C163.904 199.223 164.624 199.523 165.269 200.243C165.659 199.868 166.034 199.493 166.604 199.403C167.624 199.238 168.434 199.778 168.539 200.798C168.584 201.233 168.659 201.518 169.109 201.623C169.304 201.668 169.484 201.833 169.664 201.968C171.014 203.033 170.999 204.683 169.589 205.688C169.274 205.913 169.094 206.153 168.989 206.513C168.809 207.143 168.494 207.728 168.149 208.283C167.234 209.813 165.314 210.308 163.799 209.378C162.719 208.718 161.969 207.803 161.774 206.528C161.699 206.048 161.489 205.853 161.084 205.658C159.779 205.043 159.434 203.468 160.319 202.343C160.739 201.818 161.309 201.623 161.999 201.638Z" fill="#020101"/>
<path d="M168.104 205.238C167.444 205.193 166.739 204.953 166.259 204.263C166.184 204.158 166.109 204.038 166.019 203.933C165.689 203.573 165.389 203.558 165.029 203.873C164.744 204.128 164.489 204.428 164.204 204.668C163.319 205.418 162.344 205.373 161.354 204.908C160.739 204.623 160.544 204.023 160.814 203.378C161.054 202.823 161.489 202.388 162.239 202.673C162.569 202.793 162.929 202.868 163.259 202.958C163.394 203.003 163.514 203.033 163.664 202.988C163.859 202.928 164.024 202.823 164.054 202.613C164.084 202.373 163.949 202.283 163.724 202.223C163.334 202.118 163.034 201.893 162.884 201.503C162.734 201.113 162.734 200.738 163.064 200.438C163.379 200.153 163.754 200.093 164.129 200.288C164.474 200.468 164.759 200.693 164.954 201.053C165.224 201.548 165.464 201.533 165.794 201.083C165.944 200.888 166.049 200.663 166.244 200.498C166.619 200.198 167.114 200.213 167.444 200.528C167.759 200.843 167.789 201.203 167.489 201.638C167.339 201.863 167.144 202.058 166.979 202.283C166.889 202.403 166.844 202.538 166.949 202.658C167.039 202.763 167.174 202.808 167.324 202.793C167.609 202.763 167.864 202.628 168.029 202.418C168.269 202.118 168.539 202.178 168.839 202.298C169.514 202.598 169.874 203.273 169.739 203.963C169.574 204.773 169.034 205.238 168.104 205.238Z" fill="#FDFDFD"/>
<path d="M162.645 206.154C163.02 205.974 163.26 206.079 163.44 206.454C163.56 206.724 163.74 206.979 163.935 207.204C164.685 208.029 165.78 208.089 166.635 207.399C167.04 207.069 167.37 206.679 167.61 206.214C167.67 206.109 167.76 206.049 167.88 206.094C168 206.139 168.015 206.259 167.97 206.364C167.685 207.039 167.415 207.744 166.845 208.239C166.05 208.944 165.015 209.004 164.13 208.419C163.335 207.864 162.81 207.129 162.645 206.154Z" fill="#F6F7F7"/>
<path d="M165.567 204.773C165.942 205.208 166.317 205.598 166.827 205.778C166.722 206.228 166.437 206.453 166.197 206.708C165.507 207.398 164.787 207.353 164.187 206.588C164.052 206.423 163.917 206.243 163.887 206.003C164.187 205.808 164.487 205.628 164.772 205.418C165.027 205.223 165.267 205.013 165.567 204.773Z" fill="#E28072"/>
<path d="M164.519 201.593C164.519 201.713 164.444 201.818 164.354 201.863C164.069 202.013 163.829 201.863 163.604 201.698C163.394 201.548 163.289 201.323 163.364 201.053C163.409 200.888 163.544 200.783 163.724 200.783C164.039 200.783 164.519 201.263 164.519 201.593Z" fill="#181515"/>
<path d="M166.392 201.938C166.212 201.953 166.062 201.908 166.047 201.698C166.032 201.338 166.377 200.933 166.722 200.918C166.962 200.903 167.142 201.008 167.157 201.278C167.172 201.608 166.812 201.923 166.392 201.938Z" fill="#1D1A1A"/>
<defs>
<linearGradient id="paint0_linear" x1="59.8906" y1="47.3877" x2="331.877" y2="142.235" gradientUnits="userSpaceOnUse">
<stop stop-color="#4EECAC"/>
<stop offset="0.723958" stop-color="#8DC7ED"/>
<stop offset="1" stop-color="#8285F0"/>
</linearGradient>
</defs>
</svg>
