<svg width="300" height="301" viewBox="0 0 300 301" fill="none" xmlns="http://www.w3.org/2000/svg">
<path fill-rule="evenodd" clip-rule="evenodd" d="M236 150.593C236 198.089 197.496 236.593 150 236.593C131.324 236.593 114.038 230.639 99.9368 220.527L209.756 88.7442C225.938 104.382 236 126.312 236 150.593ZM202.966 82.8338C188.366 71.4052 169.978 64.5928 150 64.5928C102.504 64.5928 64 103.096 64 150.593C64 176.178 75.1725 199.153 92.9049 214.907L202.966 82.8338ZM245 150.593C245 203.06 202.467 245.593 150 245.593C97.5329 245.593 55 203.06 55 150.593C55 98.1257 97.5329 55.5928 150 55.5928C202.467 55.5928 245 98.1257 245 150.593Z" fill="black"/>
<path fill-rule="evenodd" clip-rule="evenodd" d="M236 150.593C236 198.089 197.496 236.593 150 236.593C131.324 236.593 114.038 230.639 99.9368 220.527L209.756 88.7442C225.938 104.382 236 126.312 236 150.593ZM202.966 82.8338C188.366 71.4052 169.978 64.5928 150 64.5928C102.504 64.5928 64 103.096 64 150.593C64 176.178 75.1725 199.153 92.9049 214.907L202.966 82.8338ZM245 150.593C245 203.06 202.467 245.593 150 245.593C97.5329 245.593 55 203.06 55 150.593C55 98.1257 97.5329 55.5928 150 55.5928C202.467 55.5928 245 98.1257 245 150.593Z" fill="url(#paint0_linear)"/>
<path d="M82.6175 251.753C75.2225 251.753 67.8275 251.753 60.4475 251.753C60.0275 251.753 59.6075 251.753 59.1725 251.738C57.7775 251.693 57.0875 251.048 57.0125 249.638C56.9375 248.333 56.9675 247.028 57.2225 245.753C57.8525 242.633 58.1675 239.453 58.7375 236.318C58.9175 235.358 59.1725 234.413 59.4425 233.483C59.7575 232.388 60.1175 231.308 60.3575 230.198C60.7625 228.338 61.7825 226.793 62.9225 225.323C63.3875 224.723 63.8075 224.168 63.8375 223.343C63.8675 222.608 64.3475 222.023 64.7825 221.438C65.2625 220.793 65.5325 220.118 65.4125 219.278C65.3075 218.483 65.3975 217.658 65.5775 216.863C65.8475 215.708 65.8475 214.538 65.6975 213.368C65.5625 212.258 65.5625 211.163 65.8025 210.068C66.0725 208.838 66.0575 207.608 65.8925 206.378C65.7275 205.178 65.7125 203.978 65.9225 202.778C66.0125 202.268 66.0425 201.743 65.9825 201.218C65.6975 199.043 65.7875 196.853 65.5775 194.693C65.3675 192.473 65.3675 190.268 65.5775 188.063C65.7275 186.578 65.9375 185.093 66.2825 183.638C66.3725 183.248 66.4175 182.873 66.3425 182.483C65.8625 179.858 65.5025 177.218 65.3375 174.548C65.2175 172.568 65.2025 170.573 65.2925 168.593C65.3675 166.748 65.3825 164.888 65.5775 163.043C65.7725 161.258 66.0125 159.488 66.9725 157.913C67.1075 157.688 67.2425 157.463 67.4075 157.268C68.1425 156.413 69.0575 156.293 70.0325 156.878C70.3775 157.088 70.6475 157.358 70.8875 157.658C71.8175 158.828 72.7475 160.013 73.3775 161.378C74.4125 163.583 75.6275 165.713 76.3625 168.053C76.7675 169.343 76.8425 169.328 78.1925 169.028C81.3275 168.323 84.4625 168.368 87.5675 169.208C88.0925 169.343 88.2275 169.193 88.4225 168.773C89.9375 165.458 91.6475 162.248 93.8225 159.293C94.3925 158.528 95.0075 157.823 95.7725 157.253C97.6175 155.888 98.7425 156.668 99.3575 158.408C99.8075 159.713 99.8675 161.093 99.9425 162.458C100.167 167.198 99.7925 171.893 98.9075 176.543C98.7125 177.563 98.7275 178.643 98.3975 179.618C97.9925 180.833 98.2325 181.958 98.3525 183.143C98.8625 187.778 99.1325 192.413 98.7425 197.078C98.6225 198.443 98.5025 199.808 98.3525 201.158C98.2625 201.983 98.3825 202.778 98.5325 203.588C98.7575 204.803 98.8625 206.033 98.8325 207.278C98.7875 209.393 98.8025 211.508 98.7875 213.623C98.7875 214.283 98.9075 214.913 98.9825 215.558C99.1175 216.563 99.1025 217.583 98.9375 218.573C98.8775 218.933 98.9525 219.173 99.1925 219.443C99.5825 219.878 99.9275 220.358 100.287 220.808C100.767 221.408 101.067 222.098 101.052 222.878C101.037 223.328 101.187 223.703 101.442 224.048C103.587 226.943 104.622 230.258 105.102 233.798C105.432 236.318 105.957 238.808 106.287 241.313C106.662 244.088 106.857 246.878 107.022 249.668C107.037 249.998 107.037 250.313 107.097 250.643C107.232 251.303 106.977 251.648 106.317 251.678C104.922 251.738 103.527 251.813 102.132 251.813C95.6225 251.828 89.1125 251.813 82.6025 251.813C82.6175 251.798 82.6175 251.783 82.6175 251.753Z" fill="black"/>
<path d="M67.8279 195.218C68.6979 195.548 69.5679 195.623 70.4229 195.623C70.9179 195.623 71.0379 195.803 71.0229 196.238C71.0229 196.493 71.1129 196.748 71.1729 197.003C71.2329 197.228 71.3679 197.453 71.6079 197.483C72.3129 197.588 73.0479 197.663 73.7229 197.393C74.2629 197.168 74.3529 196.643 74.2329 196.148C74.0829 195.548 74.3079 195.338 74.8479 195.233C75.1929 195.158 75.5079 194.978 75.8529 194.843C76.0479 194.918 75.9879 195.098 75.9879 195.233C76.0479 196.283 76.5879 197.018 77.5329 197.408C77.9529 197.588 78.1029 197.798 78.1479 198.248C78.3129 199.958 78.5379 201.668 79.3629 203.243C79.8579 204.173 80.5329 204.878 81.4929 205.298C82.5279 205.763 83.5179 205.673 84.4179 204.953C85.0779 204.413 85.6479 203.798 85.9629 202.988C86.4729 201.683 86.9529 200.378 87.0879 198.968C87.1479 198.263 87.2379 197.558 87.9579 197.138C88.1679 197.018 88.3329 196.748 88.4229 196.523C88.6779 195.743 89.2179 195.608 89.9229 195.788C90.0729 195.833 90.2529 195.803 90.4029 195.818C91.2129 195.863 91.2129 195.863 91.3479 196.703C91.4979 197.573 91.6779 197.738 92.5629 197.753C92.6979 197.753 92.8179 197.753 92.9529 197.753C94.3779 197.738 94.6029 197.513 94.5129 196.088C94.4979 195.788 94.4829 195.608 94.8579 195.548C95.3979 195.443 95.8929 195.188 96.4029 194.843C96.5379 195.143 96.4629 195.398 96.4629 195.638C96.4179 197.498 96.4479 199.343 96.2679 201.203C96.1779 202.043 96.2529 202.883 96.4029 203.723C96.9129 206.588 96.9429 209.483 96.7479 212.378C96.6729 213.398 96.7479 214.388 96.9279 215.393C96.9579 215.528 96.9879 215.648 97.0029 215.768C97.2729 217.583 96.9879 219.083 95.2329 220.193C91.6329 222.473 88.2429 225.053 84.5379 227.183C84.2079 227.378 83.9079 227.483 83.5329 227.348C83.1279 227.198 82.6779 227.153 82.2879 227.273C81.6579 227.483 81.1479 227.273 80.6379 226.973C80.3529 226.823 80.0679 226.658 79.7679 226.538C75.9729 225.053 72.5229 222.863 68.9979 220.883C68.7729 220.763 68.5629 220.568 68.3229 220.508C67.5279 220.268 67.4079 219.683 67.5129 218.993C67.5879 218.453 67.6329 217.898 67.7529 217.358C68.0679 215.873 68.0379 214.373 67.8879 212.888C67.7979 212.033 67.8429 211.193 68.0529 210.368C68.4129 208.928 68.4279 207.473 68.2479 206.003C68.1879 205.493 68.1279 204.968 68.1579 204.443C68.3229 201.578 67.8879 198.728 67.8279 195.863C67.8129 195.668 67.8279 195.473 67.8279 195.218Z" fill="white"/>
<path d="M95.8492 164.422C96.0442 167.677 95.2792 170.842 94.9942 174.187C94.5292 173.767 94.2142 173.452 93.8692 173.167C93.4492 172.807 92.9692 172.522 92.4142 172.402C92.2042 172.357 92.0092 172.402 91.9042 172.597C91.8142 172.762 91.9342 172.912 92.0392 173.032C92.5342 173.677 93.0142 174.322 93.5242 174.967C95.0242 176.917 95.5042 179.257 96.0892 181.537C95.8192 181.762 95.5642 181.642 95.3242 181.627C94.9492 181.597 94.7242 181.432 94.7392 181.027C94.7392 180.832 94.7392 180.637 94.6942 180.442C94.5442 179.752 94.1242 179.572 92.8642 179.617C91.9192 179.647 91.5592 179.872 91.4842 180.532C91.4542 180.787 91.4992 181.057 91.5142 181.312C91.5292 181.627 91.4542 181.792 91.0942 181.792C90.7042 181.777 90.3142 181.837 89.9242 181.882C88.4692 182.002 87.2992 182.932 86.9842 184.327C86.7592 185.317 86.7592 186.337 87.1042 187.312C87.5092 188.437 88.2442 189.172 89.4142 189.472C90.3292 189.697 91.2292 189.952 92.1892 189.922C92.8042 189.907 93.4342 190.042 93.9442 190.432C94.4392 190.807 94.3942 191.212 93.8242 191.437C93.2392 191.677 92.6242 191.677 91.9942 191.677C91.1842 191.677 90.3742 191.527 89.5642 191.602C88.7092 191.677 87.9592 191.857 87.5842 192.757C87.2992 192.622 87.0742 192.502 86.8342 192.412C86.5792 192.322 86.4742 192.187 86.4742 191.917C86.4442 190.987 86.0992 190.222 85.1692 189.952C84.2242 189.667 83.3692 189.922 82.7092 190.702C82.6642 190.747 82.6042 190.777 82.5292 190.837C81.7192 190.012 80.7892 189.592 79.6492 190.162C78.8692 190.552 78.5692 191.242 78.6142 192.517C78.2242 192.637 77.7742 192.517 77.2492 192.802C77.5792 191.917 77.5642 191.122 77.5342 190.327C77.4892 188.992 76.8592 187.957 75.7642 187.237C74.7142 186.547 73.5442 186.172 72.2542 186.217C71.7892 186.232 71.2792 186.307 70.8292 185.812C71.5042 185.362 72.2092 185.392 72.8992 185.467C74.1292 185.602 75.3742 185.617 76.6042 185.632C77.6392 185.632 77.9392 185.332 77.9542 184.282C78.0142 181.687 77.5792 181.627 75.5392 181.477C75.4042 181.462 75.2842 181.447 75.1492 181.447C74.6392 181.432 74.4292 181.207 74.3842 180.667C74.3092 179.617 74.1142 179.467 73.0642 179.407C72.9292 179.407 72.8092 179.407 72.6742 179.407C71.3842 179.422 71.1292 179.662 71.1892 180.952C71.2042 181.417 71.0992 181.597 70.6042 181.582C70.0642 181.567 69.5242 181.717 68.9092 181.642C69.6742 178.852 70.2892 176.032 72.1192 173.707C72.3742 173.392 72.7642 172.942 72.3742 172.597C71.9992 172.237 71.5942 172.687 71.2792 172.927C70.5292 173.497 69.9442 174.247 69.2992 175.237C68.8342 171.157 68.7592 167.317 69.3142 163.492C69.3742 163.462 69.4492 163.447 69.5092 163.417C69.5542 163.507 69.6142 163.582 69.6442 163.672C70.5892 166.027 71.9692 168.187 72.6592 170.647C72.8692 171.427 73.2142 171.727 73.5892 171.517C74.1292 171.202 73.8442 170.722 73.7392 170.302C73.0492 167.662 71.7442 165.292 70.5592 162.877C70.4992 162.757 70.4242 162.652 70.3492 162.547C69.8092 161.872 69.1642 161.917 68.7142 162.667C68.3842 163.237 68.2492 163.882 68.1742 164.527C67.7542 168.007 67.7392 171.487 68.2342 174.937C68.4592 176.527 68.0992 177.862 67.4542 179.242C67.2742 178.957 67.2142 178.642 67.1992 178.312C66.9142 174.022 66.6892 169.732 67.0192 165.442C67.1542 163.762 67.3042 162.067 67.7392 160.432C67.8742 159.892 68.0542 159.367 68.3242 158.887C68.8042 157.987 69.1042 157.927 69.7042 158.722C70.5592 159.832 71.3542 160.987 71.9092 162.292C72.4642 163.612 73.0492 164.917 73.7092 166.192C74.3242 167.347 74.5492 168.652 75.0292 169.852C75.1492 170.137 74.9992 170.272 74.8492 170.437C74.6692 170.632 74.5192 170.872 74.6842 171.142C74.8792 171.457 75.1942 171.412 75.4792 171.337C76.7392 170.962 78.0292 170.842 79.3192 170.692C81.9442 170.392 84.5092 170.707 87.0892 171.172C87.4942 171.247 87.8992 171.427 88.3042 171.547C88.5892 171.622 88.8592 171.712 89.1592 171.667C89.8342 171.547 90.1192 171.112 89.8342 170.467C89.7142 170.182 89.6242 169.987 89.7742 169.672C91.4692 166.342 93.1192 162.967 95.4142 159.982C95.8492 159.412 96.3292 158.887 96.8992 158.437C97.2142 158.197 97.4092 158.242 97.5442 158.632C97.7092 159.097 97.7993 159.577 97.8443 160.057C98.1443 163.147 98.1292 166.237 97.7992 169.327C97.5292 171.877 97.3192 174.442 96.8092 177.052C96.3592 176.557 96.1792 176.017 96.2542 175.387C96.4942 173.392 96.7492 171.382 96.9592 169.387C97.1242 167.842 97.2893 166.282 97.0943 164.722C97.0343 164.272 96.9742 163.822 96.7492 163.402C96.4792 162.877 96.0292 162.757 95.5342 163.042C95.1892 163.237 94.9042 163.507 94.6792 163.837C93.2392 165.892 91.9792 168.052 91.1692 170.452C91.0792 170.737 90.9742 171.007 90.9892 171.307C90.9892 171.502 90.9742 171.712 91.2292 171.772C91.4542 171.817 91.6192 171.712 91.7092 171.532C91.8892 171.187 92.0692 170.842 92.2192 170.482C93.0592 168.502 94.1692 166.657 95.3092 164.842C95.4142 164.647 95.4892 164.437 95.8492 164.422Z" fill="white"/>
<path d="M94.737 235.447C95.592 235.387 96.342 235.327 97.077 235.237C97.662 235.162 97.992 234.877 98.142 234.382C98.817 232.177 99.762 230.077 100.287 227.827C100.392 227.362 100.347 226.852 100.692 226.402C101.277 227.347 101.862 228.292 102.447 229.237C102.582 229.462 102.462 229.672 102.387 229.882C102.132 230.617 101.892 231.352 101.652 232.087C101.562 232.357 101.502 232.627 101.682 232.972C102.222 232.477 102.162 231.667 102.732 231.172C103.077 231.877 102.942 232.612 103.092 233.287C103.332 234.322 103.422 235.402 103.572 236.452C103.752 237.697 103.902 238.957 104.097 240.202C104.472 242.467 104.532 244.777 104.832 247.057C104.937 247.822 104.967 248.602 105.057 249.382C105.102 249.787 104.997 250.072 104.487 250.057C103.152 250.027 101.817 250.057 100.482 250.027C99.912 250.012 99.717 249.862 99.822 249.322C100.137 247.717 99.837 246.082 100.122 244.462C100.272 243.607 100.272 242.722 100.332 241.852C100.437 240.397 100.542 238.942 100.737 237.502C100.767 237.337 100.782 237.172 100.752 237.022C100.692 236.707 100.962 236.167 100.512 236.122C100.122 236.077 100.107 236.662 100.017 236.977C99.462 239.047 99.192 241.162 98.802 243.262C98.457 245.152 98.382 247.057 98.397 248.977C98.412 249.877 98.382 249.877 97.467 249.877C93.072 249.877 88.677 249.877 84.282 249.862C84.147 249.862 84.027 249.862 83.892 249.862C83.532 249.862 83.412 249.757 83.427 249.337C83.457 247.777 84.357 246.922 85.602 246.172C88.092 244.657 90.642 243.217 92.982 241.447C93.792 240.832 94.467 240.082 95.157 239.347C95.622 238.837 95.802 238.267 95.487 237.577C95.217 236.932 95.022 236.242 94.737 235.447Z" fill="#363636"/>
<path d="M64.0612 234.908C63.7912 235.103 63.8512 235.313 63.8362 235.508C63.5962 239.828 63.6412 244.148 63.6562 248.468C63.6562 249.773 63.7462 249.683 62.4562 249.683C61.5112 249.683 60.5662 249.668 59.6212 249.683C59.0962 249.698 58.9612 249.473 58.9462 248.993C58.9312 247.628 59.1112 246.278 59.2762 244.928C59.4112 243.773 59.5912 242.618 59.7262 241.463C60.0712 238.343 60.5062 235.238 61.4362 232.223C61.5862 231.728 61.6162 231.203 61.8412 230.738C61.8562 230.708 61.9012 230.708 61.9612 230.678C62.5312 231.563 62.7112 232.733 63.7162 233.363C63.9262 233.078 63.7912 232.853 63.7162 232.598C63.4312 231.668 63.0712 230.753 62.6362 229.883C62.4412 229.493 62.4112 229.178 62.6962 228.803C63.0712 228.293 63.2662 227.648 63.7762 227.093C64.2112 228.998 64.4812 230.843 65.0062 232.643C65.1562 233.138 65.2762 233.648 65.4112 234.143C65.5462 234.623 65.8912 234.908 66.3262 235.088C66.8062 235.298 67.3012 235.418 67.8412 235.418C68.5612 235.418 68.6812 235.538 68.4112 236.228C67.6912 238.088 68.4712 239.243 69.9262 240.338C71.5312 241.553 73.1062 242.798 74.8312 243.848C76.6162 244.928 78.4612 245.873 80.4712 246.428C81.3262 246.668 81.7012 247.163 81.7912 247.973C81.7912 248.033 81.8062 248.108 81.8062 248.168C81.9862 249.833 81.9562 249.863 80.3062 249.863C77.4412 249.863 74.5762 249.833 71.7112 249.863C69.7012 249.878 67.6912 249.563 65.6812 249.683C65.1712 249.713 65.0062 249.473 65.0062 248.993C65.0212 247.178 65.0662 245.348 64.9912 243.533C64.8862 240.908 64.8712 238.283 64.4212 235.688C64.3912 235.388 64.3312 235.118 64.0612 234.908Z" fill="#363636"/>
<path d="M66.3708 222.743C66.8958 223.943 67.3608 225.038 67.9008 226.118C68.9958 228.338 70.3608 230.393 71.7108 232.463C73.0158 234.488 74.3958 236.438 75.9408 238.283C77.5458 240.203 79.1058 242.153 81.0708 243.728C81.2508 243.863 81.4308 243.998 81.6258 244.118C81.9108 244.283 82.2408 244.373 82.0008 244.838C81.7308 245.333 81.4758 245.483 80.9958 245.258C78.8208 244.298 76.7208 243.188 74.7408 241.883C73.2258 240.878 71.7858 239.783 70.2858 238.748C69.8358 238.448 69.7008 238.148 69.9108 237.623C70.2408 236.813 70.2558 235.913 70.4358 235.058C70.5408 234.563 70.2558 234.173 69.7608 234.008C69.0558 233.753 68.3658 233.423 67.6308 233.333C67.0308 233.243 66.7608 233.003 66.6558 232.463C66.4458 231.353 66.2058 230.243 66.0108 229.133C65.8458 228.173 65.7408 227.213 65.5608 226.253C65.2608 224.483 65.2608 224.483 66.3708 222.743Z" fill="#363636"/>
<path d="M98.4884 221.377C99.1484 222.097 99.5384 222.712 99.2084 223.747C98.5334 225.847 98.0534 227.992 97.4534 230.122C97.1234 231.277 96.6884 232.402 96.3584 233.557C96.2234 234.007 95.9684 234.112 95.5784 234.067C95.1284 234.007 94.6784 233.902 94.2284 233.887C93.1784 233.857 92.9084 234.217 93.1334 235.237C93.3134 236.032 93.5384 236.812 93.9284 237.532C94.1084 237.862 94.1384 238.132 93.8084 238.372C92.6234 239.272 91.6784 240.472 90.3734 241.252C89.3684 241.852 88.3634 242.452 87.4034 243.112C86.1284 243.997 84.8084 244.792 83.4734 245.677C83.3534 245.182 83.3234 244.747 83.7284 244.402C85.5134 242.872 86.6534 240.847 88.0484 239.017C89.1884 237.517 90.3134 236.017 91.4084 234.487C92.6534 232.747 93.7784 230.917 94.8734 229.072C95.9684 227.227 97.0184 225.367 97.7834 223.342C98.0084 222.712 98.1134 222.037 98.4884 221.377Z" fill="#363636"/>
<path d="M91.7824 192.638C92.0975 192.638 92.6075 192.638 93.1325 192.638C93.2675 192.638 93.3875 192.638 93.5225 192.608C94.4375 192.473 95.1725 191.843 95.2625 191.123C95.3375 190.553 94.6625 189.443 94.0175 189.158C93.4175 188.888 92.7875 188.723 92.1274 188.738C91.1674 188.768 90.2674 188.468 89.3524 188.258C88.9174 188.168 88.5724 187.913 88.3774 187.508C87.8524 186.428 87.7474 185.333 88.1974 184.208C88.5124 183.428 89.1125 182.963 89.9525 182.843C90.3725 182.783 90.7924 182.723 91.1975 182.648C92.1125 182.468 92.2625 182.303 92.3375 181.358C92.3525 181.148 92.2475 180.848 92.4875 180.743C92.8175 180.593 93.1925 180.623 93.5375 180.698C93.7775 180.758 93.7325 180.998 93.7175 181.178C93.5975 182.408 93.7775 182.423 95.1125 182.588C95.6225 182.648 96.1475 182.633 96.6725 182.663C96.8825 182.678 97.1075 182.723 97.1375 182.933C97.2275 183.548 97.2725 184.163 97.1225 184.763C97.0475 185.048 96.7475 184.928 96.5225 184.883C95.0375 184.643 93.5525 184.568 92.0525 184.568C91.6625 184.568 91.2874 184.598 90.9274 184.793C90.0874 185.228 89.9074 186.098 90.5075 186.818C90.9125 187.283 91.4075 187.538 92.0375 187.538C92.7575 187.538 93.4625 187.523 94.1825 187.673C96.0575 188.048 97.1675 189.473 96.7475 191.348C96.5975 191.993 96.4175 192.608 96.1325 193.193C95.8025 193.853 95.3525 194.348 94.5875 194.588C93.7475 194.858 93.7025 194.978 93.6875 195.848C93.6875 196.013 93.6725 196.178 93.6875 196.343C93.7175 196.748 93.5825 196.958 93.1475 196.943C92.9825 196.928 92.8175 196.958 92.6675 196.973C92.3375 197.018 92.1725 196.883 92.1725 196.553C92.1725 196.253 92.1725 195.968 92.1425 195.668C92.0675 194.963 91.8725 194.753 91.1674 194.693C90.6124 194.648 90.0575 194.663 89.5174 194.618C88.7824 194.558 88.7224 194.468 88.6774 193.718C88.6324 192.953 88.7674 192.728 89.4425 192.608C90.1325 192.503 90.8524 192.593 91.7824 192.638Z" fill="#31C67F"/>
<path d="M71.1427 192.427C71.8177 192.427 72.4477 192.472 73.0627 192.412C74.0377 192.337 74.8027 191.722 74.9377 190.972C75.0427 190.312 74.3227 189.217 73.5577 188.902C73.0477 188.692 72.4927 188.542 71.9527 188.557C70.9927 188.572 70.0927 188.317 69.1627 188.107C68.6977 188.002 68.2927 187.792 68.0677 187.357C67.4977 186.218 67.3777 185.063 67.9177 183.878C68.2477 183.173 68.8027 182.783 69.5677 182.648C69.9877 182.573 70.4077 182.527 70.8127 182.452C71.7727 182.272 71.9077 182.122 71.9977 181.117C72.0127 180.907 71.9077 180.607 72.1927 180.532C72.5377 180.442 72.8977 180.427 73.2577 180.517C73.3777 180.547 73.4077 180.712 73.3927 180.847C73.3777 181.102 73.3627 181.373 73.3777 181.628C73.3927 182.003 73.5727 182.197 73.9627 182.287C74.6677 182.452 75.3877 182.392 76.0927 182.467C76.8277 182.542 76.8427 182.558 76.8577 183.293C76.8877 184.763 76.8877 184.792 75.4627 184.612C74.2027 184.462 72.9427 184.417 71.6677 184.402C71.2627 184.402 70.9027 184.462 70.5427 184.657C69.7627 185.092 69.5827 185.917 70.1527 186.622C70.5577 187.132 71.0977 187.387 71.7727 187.387C72.4477 187.372 73.1377 187.387 73.8127 187.507C75.7027 187.867 76.8727 189.307 76.4077 191.242C76.2277 192.007 75.9877 192.742 75.5827 193.417C75.3127 193.852 74.9827 194.227 74.4877 194.332C73.5127 194.527 73.2427 195.142 73.3627 196.042C73.4227 196.477 73.3477 196.777 72.7777 196.792C71.8927 196.822 71.8927 196.867 71.8477 195.937C71.7877 194.707 71.6227 194.542 70.4077 194.512C70.0177 194.497 69.6277 194.498 69.2377 194.453C68.4427 194.378 68.3827 194.303 68.3527 193.493C68.3227 192.758 68.4727 192.532 69.1777 192.427C69.8377 192.322 70.5277 192.397 71.1427 192.427Z" fill="#31C67F"/>
<path d="M96.4314 221.453C96.2364 222.293 95.9214 222.863 95.6664 223.448C94.6314 225.773 93.4014 227.978 91.9764 230.093C91.6164 230.618 91.1814 231.023 90.6114 231.308C89.6664 231.788 88.7214 232.283 87.7464 232.793C87.0414 231.518 86.3814 230.288 85.7064 229.073C85.4964 228.713 85.7814 228.623 85.9914 228.503C86.7714 228.083 87.5364 227.663 88.2564 227.168C90.6564 225.548 93.0564 223.943 95.3664 222.188C95.6814 221.978 95.9814 221.783 96.4314 221.453Z" fill="white"/>
<path d="M68.5462 222.713C72.2812 225.023 76.1212 227.123 80.3512 228.623C79.6312 229.928 78.9412 231.203 78.2512 232.478C77.9662 232.523 77.7862 232.313 77.5762 232.193C75.2662 230.873 73.0762 229.358 71.0662 227.573C70.6762 227.228 70.3462 226.838 70.1062 226.358C69.5062 225.203 68.8912 224.063 68.2912 222.908C68.2762 222.743 68.3362 222.638 68.5462 222.713Z" fill="white"/>
<path d="M87.792 195.172C87.762 196.132 86.877 196.912 85.932 196.837C84.987 196.762 84.192 196.417 83.607 195.592C82.992 194.707 82.677 194.722 81.927 195.487C81.612 195.817 81.282 196.117 80.907 196.387C79.827 197.152 78.477 196.837 77.682 196.357C77.082 195.997 76.932 195.337 77.232 194.632C77.547 193.882 77.997 193.627 78.777 193.807C79.182 193.897 79.587 194.047 79.992 194.152C80.172 194.197 80.382 194.212 80.577 194.197C80.832 194.182 80.997 194.032 81.057 193.792C81.117 193.522 80.982 193.372 80.742 193.267C80.562 193.192 80.367 193.147 80.202 193.042C79.617 192.667 79.407 191.842 79.752 191.332C80.097 190.822 80.757 190.747 81.402 191.152C81.717 191.347 81.942 191.587 82.122 191.917C82.437 192.472 82.752 192.472 83.142 191.962C83.307 191.752 83.427 191.512 83.607 191.332C83.997 190.942 84.627 190.912 85.017 191.242C85.452 191.602 85.497 192.082 85.107 192.622C84.957 192.832 84.762 193.012 84.612 193.222C84.492 193.402 84.327 193.597 84.522 193.837C84.702 194.047 84.942 194.032 85.152 193.957C85.332 193.897 85.497 193.777 85.662 193.672C85.902 193.537 85.992 193.147 86.367 193.252C86.772 193.372 87.177 193.537 87.417 193.912C87.642 194.317 87.717 194.782 87.792 195.172Z" fill="#FEFEFE"/>
<path d="M82.8858 242.827C82.1358 242.137 81.4758 241.522 80.8158 240.907C80.5608 240.667 80.4408 240.427 80.5458 240.052C81.0708 238.222 81.5958 236.377 82.0908 234.532C82.2258 234.052 82.4658 233.857 82.9758 233.887C83.3358 233.902 83.5008 234.007 83.5758 234.352C83.9958 236.152 84.4308 237.952 84.8808 239.737C84.9408 239.977 84.9258 240.172 84.7908 240.382C84.2208 241.207 83.6658 242.047 82.8858 242.827Z" fill="#32C67F"/>
<path d="M73.1094 230.933C73.3644 231.113 73.6194 231.278 73.8744 231.458C75.2544 232.433 76.6944 233.303 78.2694 233.948C78.9144 234.203 79.1094 234.173 79.4994 233.618C79.7844 233.228 80.0244 232.823 80.2794 232.418C80.3544 232.448 80.3844 232.448 80.4144 232.463C81.2544 233.048 81.3894 233.798 81.0294 234.728C80.4444 236.228 80.0544 237.803 79.5594 239.498C77.0394 236.828 74.8944 234.038 73.1094 230.933Z" fill="#FEFEFE"/>
<path d="M84.3577 197.918C84.0577 199.313 83.7577 200.708 83.1127 201.998C82.8277 202.568 82.4377 202.613 82.0777 202.118C81.2227 200.948 80.7427 199.598 80.4877 198.188C80.4427 197.963 80.4577 197.738 80.7577 197.663C81.4327 197.483 81.9727 197.048 82.4677 196.583C82.6927 196.373 82.8727 196.283 83.0977 196.583C83.3527 196.913 83.6827 197.183 84.0727 197.363C84.3127 197.468 84.4027 197.663 84.3577 197.918Z" fill="#E58272"/>
<path d="M85.6627 232.192C85.9177 232.657 86.1427 233.122 86.4127 233.557C86.9077 234.352 87.2377 234.457 88.1077 234.142C88.5877 233.962 89.0527 233.782 89.6377 233.722C88.4377 235.372 87.2227 237.037 85.9627 238.777C85.5577 238.027 85.4527 237.322 85.2577 236.647C85.0777 236.062 84.9277 235.462 84.7777 234.862C84.3727 233.332 84.3727 233.332 85.6627 232.192Z" fill="#FDFDFD"/>
<path d="M67.6172 191.843C67.6622 190.733 67.4522 189.743 67.7672 188.738C69.1322 189.353 70.5122 189.743 71.9972 189.728C72.5222 189.713 73.0322 189.878 73.4822 190.133C73.7372 190.268 73.9922 190.478 73.9472 190.808C73.9022 191.078 73.6322 191.198 73.3772 191.273C72.8072 191.453 72.2222 191.483 71.6372 191.468C71.0522 191.438 70.4672 191.378 69.8822 191.363C69.1322 191.378 68.3972 191.468 67.6172 191.843Z" fill="#FCFCFC"/>
<path d="M83.0541 232.522C82.6341 232.462 82.3041 232.597 82.0791 232.357C81.6891 231.967 81.3291 231.562 80.9691 231.142C80.8491 231.007 80.9541 230.842 81.0141 230.692C81.2391 230.197 81.4341 229.642 81.8391 229.282C82.2291 228.937 82.7691 229.282 83.2341 229.252C84.1041 229.207 84.6891 229.582 84.9591 230.452C85.0491 230.737 85.0491 230.917 84.8091 231.127C84.5241 231.382 84.2541 231.682 84.0291 231.997C83.7591 232.402 83.4291 232.642 83.0541 232.522Z" fill="#31C57E"/>
<path d="M85.919 198.233C85.724 199.928 85.139 201.443 84.464 202.913C84.389 203.093 84.254 203.243 84.119 203.378C83.009 204.608 81.839 204.548 80.954 203.123C80.009 201.608 79.634 199.883 79.409 198.143C79.394 197.993 79.439 197.903 79.589 197.873C79.739 197.858 79.844 197.933 79.844 198.083C79.844 198.773 80.099 199.418 80.264 200.078C80.489 200.933 80.894 201.713 81.374 202.448C82.094 203.573 83.234 203.528 83.924 202.388C84.119 202.058 84.269 201.683 84.389 201.323C84.749 200.318 85.079 199.298 85.319 198.248C85.379 198.023 85.394 197.783 85.724 197.828C86.024 197.888 85.919 198.128 85.919 198.233Z" fill="#F8F8F8"/>
<path d="M96.6133 187.717C96.2833 187.672 96.0733 187.448 95.8333 187.313C94.8283 186.742 93.7633 186.397 92.5933 186.457C92.2333 186.472 91.8733 186.472 91.5283 186.367C91.3933 186.322 91.2583 186.262 91.2433 186.127C91.2283 185.947 91.3633 185.812 91.5283 185.797C92.0083 185.737 92.5033 185.617 92.9683 185.677C93.9733 185.782 94.9783 185.842 95.9833 185.842C96.3883 185.842 96.5983 185.992 96.6133 186.397C96.6283 186.802 96.6133 187.252 96.6133 187.717Z" fill="#F7F8F8"/>
<path d="M68.5481 222.712C68.4131 222.742 68.3231 222.802 68.2781 222.922C68.1282 222.847 68.0382 222.682 68.1432 222.562C68.3231 222.367 68.4431 222.562 68.5481 222.712Z" fill="#687575"/>
<path d="M81.1769 192.908C80.6969 192.938 80.1719 192.488 80.1719 192.053C80.1719 191.753 80.3369 191.558 80.6369 191.543C81.0269 191.513 81.5819 192.083 81.5969 192.488C81.6119 192.788 81.4319 192.878 81.1769 192.908Z" fill="#0F0D0D"/>
<path d="M84.748 192.218C84.718 192.623 84.238 192.983 83.773 192.968C83.488 192.953 83.383 192.788 83.428 192.518C83.488 192.053 83.938 191.633 84.328 191.678C84.598 191.708 84.778 191.933 84.748 192.218Z" fill="#181717"/>
<path d="M218.473 251.753C211.078 251.753 203.683 251.753 196.303 251.753C195.883 251.753 195.463 251.753 195.028 251.738C193.633 251.693 192.943 251.048 192.868 249.638C192.793 248.333 192.823 247.028 193.078 245.753C193.708 242.633 194.023 239.453 194.593 236.318C194.773 235.358 195.028 234.413 195.298 233.483C195.613 232.388 195.973 231.308 196.213 230.198C196.618 228.338 197.638 226.793 198.778 225.323C199.243 224.723 199.663 224.168 199.693 223.343C199.723 222.608 200.203 222.023 200.638 221.438C201.118 220.793 201.388 220.118 201.268 219.278C201.163 218.483 201.253 217.658 201.433 216.863C201.703 215.708 201.703 214.538 201.553 213.368C201.418 212.258 201.418 211.163 201.658 210.068C201.928 208.838 201.913 207.608 201.748 206.378C201.583 205.178 201.568 203.978 201.778 202.778C201.868 202.268 201.898 201.743 201.838 201.218C201.553 199.043 201.643 196.853 201.433 194.693C201.223 192.473 201.223 190.268 201.433 188.063C201.583 186.578 201.793 185.093 202.138 183.638C202.228 183.248 202.273 182.873 202.198 182.483C201.718 179.858 201.358 177.218 201.193 174.548C201.073 172.568 201.058 170.573 201.148 168.593C201.223 166.748 201.238 164.888 201.433 163.043C201.628 161.258 201.868 159.488 202.828 157.913C202.963 157.688 203.098 157.463 203.263 157.268C203.998 156.413 204.913 156.293 205.888 156.878C206.233 157.088 206.503 157.358 206.743 157.658C207.673 158.828 208.603 160.013 209.233 161.378C210.268 163.583 211.483 165.713 212.218 168.053C212.623 169.343 212.698 169.328 214.048 169.028C217.183 168.323 220.318 168.368 223.423 169.208C223.948 169.343 224.083 169.193 224.278 168.773C225.793 165.458 227.503 162.248 229.678 159.293C230.248 158.528 230.863 157.823 231.628 157.253C233.473 155.888 234.598 156.668 235.213 158.408C235.663 159.713 235.723 161.093 235.798 162.458C236.023 167.198 235.648 171.893 234.763 176.543C234.568 177.563 234.583 178.643 234.253 179.618C233.848 180.833 234.088 181.958 234.208 183.143C234.718 187.778 234.988 192.413 234.598 197.078C234.478 198.443 234.358 199.808 234.208 201.158C234.118 201.983 234.238 202.778 234.388 203.588C234.613 204.803 234.718 206.033 234.688 207.278C234.643 209.393 234.658 211.508 234.643 213.623C234.643 214.283 234.763 214.913 234.838 215.558C234.973 216.563 234.958 217.583 234.793 218.573C234.733 218.933 234.808 219.173 235.048 219.443C235.438 219.878 235.783 220.358 236.143 220.808C236.623 221.408 236.923 222.098 236.908 222.878C236.893 223.328 237.043 223.703 237.298 224.048C239.443 226.943 240.478 230.258 240.958 233.798C241.288 236.318 241.813 238.808 242.143 241.313C242.518 244.088 242.713 246.878 242.878 249.668C242.893 249.998 242.893 250.313 242.953 250.643C243.088 251.303 242.833 251.648 242.173 251.678C240.778 251.738 239.383 251.813 237.988 251.813C231.478 251.828 224.968 251.813 218.458 251.813C218.473 251.798 218.473 251.783 218.473 251.753Z" fill="black"/>
<path d="M203.683 195.218C204.553 195.548 205.423 195.623 206.278 195.623C206.773 195.623 206.893 195.803 206.878 196.238C206.878 196.493 206.968 196.748 207.028 197.003C207.088 197.228 207.223 197.453 207.463 197.483C208.168 197.588 208.903 197.663 209.578 197.393C210.118 197.168 210.208 196.643 210.088 196.148C209.938 195.548 210.163 195.338 210.703 195.233C211.048 195.158 211.363 194.978 211.708 194.843C211.903 194.918 211.843 195.098 211.843 195.233C211.903 196.283 212.443 197.018 213.388 197.408C213.808 197.588 213.958 197.798 214.003 198.248C214.168 199.958 214.393 201.668 215.218 203.243C215.713 204.173 216.388 204.878 217.348 205.298C218.383 205.763 219.373 205.673 220.273 204.953C220.933 204.413 221.503 203.798 221.818 202.988C222.328 201.683 222.808 200.378 222.943 198.968C223.003 198.263 223.093 197.558 223.813 197.138C224.023 197.018 224.188 196.748 224.278 196.523C224.533 195.743 225.073 195.608 225.778 195.788C225.928 195.833 226.108 195.803 226.258 195.818C227.068 195.863 227.068 195.863 227.203 196.703C227.353 197.573 227.533 197.738 228.418 197.753C228.553 197.753 228.673 197.753 228.808 197.753C230.233 197.738 230.458 197.513 230.368 196.088C230.353 195.788 230.338 195.608 230.713 195.548C231.253 195.443 231.748 195.188 232.258 194.843C232.393 195.143 232.318 195.398 232.318 195.638C232.273 197.498 232.303 199.343 232.123 201.203C232.033 202.043 232.108 202.883 232.258 203.723C232.768 206.588 232.798 209.483 232.603 212.378C232.528 213.398 232.603 214.388 232.783 215.393C232.813 215.528 232.843 215.648 232.858 215.768C233.128 217.583 232.843 219.083 231.088 220.193C227.488 222.473 224.098 225.053 220.393 227.183C220.063 227.378 219.763 227.483 219.388 227.348C218.983 227.198 218.533 227.153 218.143 227.273C217.513 227.483 217.003 227.273 216.493 226.973C216.208 226.823 215.923 226.658 215.623 226.538C211.828 225.053 208.378 222.863 204.853 220.883C204.628 220.763 204.418 220.568 204.178 220.508C203.383 220.268 203.263 219.683 203.368 218.993C203.443 218.453 203.488 217.898 203.608 217.358C203.923 215.873 203.893 214.373 203.743 212.888C203.653 212.033 203.698 211.193 203.908 210.368C204.268 208.928 204.283 207.473 204.103 206.003C204.043 205.493 203.983 204.968 204.013 204.443C204.178 201.578 203.743 198.728 203.683 195.863C203.683 195.668 203.683 195.473 203.683 195.218Z" fill="white"/>
<path d="M231.705 164.422C231.9 167.677 231.135 170.842 230.85 174.187C230.385 173.767 230.07 173.452 229.725 173.167C229.305 172.807 228.825 172.522 228.27 172.402C228.06 172.357 227.865 172.402 227.76 172.597C227.67 172.762 227.79 172.912 227.895 173.032C228.39 173.677 228.87 174.322 229.38 174.967C230.88 176.917 231.36 179.257 231.945 181.537C231.675 181.762 231.42 181.642 231.18 181.627C230.805 181.597 230.58 181.432 230.595 181.027C230.595 180.832 230.595 180.637 230.55 180.442C230.4 179.752 229.98 179.572 228.72 179.617C227.775 179.647 227.415 179.872 227.34 180.532C227.31 180.787 227.355 181.057 227.37 181.312C227.385 181.627 227.31 181.792 226.95 181.792C226.56 181.777 226.17 181.837 225.78 181.882C224.325 182.002 223.155 182.932 222.84 184.327C222.615 185.317 222.615 186.337 222.96 187.312C223.365 188.437 224.1 189.172 225.27 189.472C226.185 189.697 227.085 189.952 228.045 189.922C228.66 189.907 229.29 190.042 229.8 190.432C230.295 190.807 230.25 191.212 229.68 191.437C229.095 191.677 228.48 191.677 227.85 191.677C227.04 191.677 226.23 191.527 225.42 191.602C224.565 191.677 223.815 191.857 223.44 192.757C223.155 192.622 222.93 192.502 222.69 192.412C222.435 192.322 222.33 192.187 222.33 191.917C222.3 190.987 221.955 190.222 221.025 189.952C220.08 189.667 219.225 189.922 218.565 190.702C218.52 190.747 218.46 190.777 218.385 190.837C217.575 190.012 216.645 189.592 215.505 190.162C214.725 190.552 214.425 191.242 214.47 192.517C214.08 192.637 213.63 192.517 213.105 192.802C213.435 191.917 213.42 191.122 213.39 190.327C213.345 188.992 212.715 187.957 211.62 187.237C210.57 186.547 209.4 186.172 208.11 186.217C207.645 186.232 207.135 186.307 206.685 185.812C207.36 185.362 208.065 185.392 208.755 185.467C209.985 185.602 211.23 185.617 212.46 185.632C213.495 185.632 213.795 185.332 213.81 184.282C213.87 181.687 213.435 181.627 211.395 181.477C211.26 181.462 211.14 181.447 211.005 181.447C210.495 181.432 210.285 181.207 210.24 180.667C210.165 179.617 209.97 179.467 208.92 179.407C208.785 179.407 208.665 179.407 208.53 179.407C207.24 179.422 206.985 179.662 207.045 180.952C207.06 181.417 206.955 181.597 206.46 181.582C205.92 181.567 205.38 181.717 204.765 181.642C205.53 178.852 206.145 176.032 207.975 173.707C208.23 173.392 208.62 172.942 208.23 172.597C207.855 172.237 207.45 172.687 207.135 172.927C206.385 173.497 205.8 174.247 205.155 175.237C204.69 171.157 204.615 167.317 205.17 163.492C205.23 163.462 205.305 163.447 205.365 163.417C205.41 163.507 205.47 163.582 205.5 163.672C206.445 166.027 207.825 168.187 208.515 170.647C208.725 171.427 209.07 171.727 209.445 171.517C209.985 171.202 209.7 170.722 209.595 170.302C208.905 167.662 207.6 165.292 206.415 162.877C206.355 162.757 206.28 162.652 206.205 162.547C205.665 161.872 205.02 161.917 204.57 162.667C204.24 163.237 204.105 163.882 204.03 164.527C203.61 168.007 203.595 171.487 204.09 174.937C204.315 176.527 203.955 177.862 203.31 179.242C203.13 178.957 203.07 178.642 203.055 178.312C202.77 174.022 202.545 169.732 202.875 165.442C203.01 163.762 203.16 162.067 203.595 160.432C203.73 159.892 203.91 159.367 204.18 158.887C204.66 157.987 204.96 157.927 205.56 158.722C206.415 159.832 207.21 160.987 207.765 162.292C208.32 163.612 208.905 164.917 209.565 166.192C210.18 167.347 210.405 168.652 210.885 169.852C211.005 170.137 210.855 170.272 210.705 170.437C210.525 170.632 210.375 170.872 210.54 171.142C210.735 171.457 211.05 171.412 211.335 171.337C212.595 170.962 213.885 170.842 215.175 170.692C217.8 170.392 220.365 170.707 222.945 171.172C223.35 171.247 223.755 171.427 224.16 171.547C224.445 171.622 224.715 171.712 225.015 171.667C225.69 171.547 225.975 171.112 225.69 170.467C225.57 170.182 225.48 169.987 225.63 169.672C227.325 166.342 228.975 162.967 231.27 159.982C231.705 159.412 232.185 158.887 232.755 158.437C233.07 158.197 233.265 158.242 233.4 158.632C233.565 159.097 233.655 159.577 233.7 160.057C234 163.147 233.985 166.237 233.655 169.327C233.385 171.877 233.175 174.442 232.665 177.052C232.215 176.557 232.035 176.017 232.11 175.387C232.35 173.392 232.605 171.382 232.815 169.387C232.98 167.842 233.145 166.282 232.95 164.722C232.89 164.272 232.83 163.822 232.605 163.402C232.335 162.877 231.885 162.757 231.39 163.042C231.045 163.237 230.76 163.507 230.535 163.837C229.095 165.892 227.835 168.052 227.025 170.452C226.935 170.737 226.83 171.007 226.845 171.307C226.845 171.502 226.83 171.712 227.085 171.772C227.31 171.817 227.475 171.712 227.565 171.532C227.745 171.187 227.925 170.842 228.075 170.482C228.915 168.502 230.025 166.657 231.165 164.842C231.285 164.647 231.345 164.437 231.705 164.422Z" fill="white"/>
<path d="M230.608 235.447C231.463 235.387 232.213 235.327 232.948 235.237C233.533 235.162 233.863 234.877 234.013 234.382C234.688 232.177 235.633 230.077 236.158 227.827C236.263 227.362 236.218 226.852 236.563 226.402C237.148 227.347 237.733 228.292 238.318 229.237C238.453 229.462 238.333 229.672 238.258 229.882C238.003 230.617 237.763 231.352 237.523 232.087C237.433 232.357 237.373 232.627 237.553 232.972C238.093 232.477 238.033 231.667 238.603 231.172C238.948 231.877 238.813 232.612 238.963 233.287C239.203 234.322 239.293 235.402 239.443 236.452C239.623 237.697 239.773 238.957 239.968 240.202C240.343 242.467 240.403 244.777 240.703 247.057C240.808 247.822 240.838 248.602 240.928 249.382C240.973 249.787 240.868 250.072 240.358 250.057C239.023 250.027 237.688 250.057 236.353 250.027C235.783 250.012 235.588 249.862 235.693 249.322C236.008 247.717 235.708 246.082 235.993 244.462C236.143 243.607 236.143 242.722 236.203 241.852C236.308 240.397 236.413 238.942 236.608 237.502C236.638 237.337 236.653 237.172 236.623 237.022C236.563 236.707 236.833 236.167 236.383 236.122C235.993 236.077 235.978 236.662 235.888 236.977C235.333 239.047 235.063 241.162 234.673 243.262C234.328 245.152 234.253 247.057 234.268 248.977C234.283 249.877 234.253 249.877 233.338 249.877C228.943 249.877 224.548 249.877 220.153 249.862C220.018 249.862 219.898 249.862 219.763 249.862C219.403 249.862 219.283 249.757 219.298 249.337C219.328 247.777 220.228 246.922 221.473 246.172C223.963 244.657 226.513 243.217 228.853 241.447C229.663 240.832 230.338 240.082 231.028 239.347C231.493 238.837 231.673 238.267 231.358 237.577C231.073 236.932 230.878 236.242 230.608 235.447Z" fill="#363636"/>
<path d="M199.917 234.908C199.647 235.103 199.707 235.313 199.692 235.508C199.452 239.828 199.497 244.148 199.512 248.468C199.512 249.773 199.602 249.683 198.312 249.683C197.367 249.683 196.422 249.668 195.477 249.683C194.952 249.698 194.817 249.473 194.802 248.993C194.787 247.628 194.967 246.278 195.132 244.928C195.267 243.773 195.447 242.618 195.582 241.463C195.927 238.343 196.362 235.238 197.292 232.223C197.442 231.728 197.472 231.203 197.697 230.738C197.712 230.708 197.757 230.708 197.817 230.678C198.387 231.563 198.567 232.733 199.572 233.363C199.782 233.078 199.647 232.853 199.572 232.598C199.287 231.668 198.927 230.753 198.492 229.883C198.297 229.493 198.267 229.178 198.552 228.803C198.927 228.293 199.122 227.648 199.632 227.093C200.067 228.998 200.337 230.843 200.862 232.643C201.012 233.138 201.132 233.648 201.267 234.143C201.402 234.623 201.747 234.908 202.182 235.088C202.662 235.298 203.157 235.418 203.697 235.418C204.417 235.418 204.537 235.538 204.267 236.228C203.547 238.088 204.327 239.243 205.782 240.338C207.387 241.553 208.962 242.798 210.687 243.848C212.472 244.928 214.317 245.873 216.327 246.428C217.182 246.668 217.557 247.163 217.647 247.973C217.647 248.033 217.662 248.108 217.662 248.168C217.842 249.833 217.812 249.863 216.162 249.863C213.297 249.863 210.432 249.833 207.567 249.863C205.557 249.878 203.547 249.563 201.537 249.683C201.027 249.713 200.862 249.473 200.862 248.993C200.877 247.178 200.922 245.348 200.847 243.533C200.742 240.908 200.727 238.283 200.277 235.688C200.247 235.388 200.202 235.118 199.917 234.908Z" fill="#363636"/>
<path d="M202.227 222.743C202.752 223.943 203.217 225.038 203.757 226.118C204.852 228.338 206.217 230.393 207.567 232.463C208.872 234.488 210.252 236.438 211.797 238.283C213.402 240.203 214.962 242.153 216.927 243.728C217.107 243.863 217.287 243.998 217.482 244.118C217.767 244.283 218.097 244.373 217.857 244.838C217.587 245.333 217.332 245.483 216.852 245.258C214.677 244.298 212.577 243.188 210.597 241.883C209.082 240.878 207.642 239.783 206.142 238.748C205.692 238.448 205.557 238.148 205.767 237.623C206.097 236.813 206.112 235.913 206.292 235.058C206.397 234.563 206.112 234.173 205.617 234.008C204.912 233.753 204.222 233.423 203.487 233.333C202.887 233.243 202.617 233.003 202.512 232.463C202.302 231.353 202.062 230.243 201.867 229.133C201.702 228.173 201.597 227.213 201.417 226.253C201.132 224.483 201.117 224.483 202.227 222.743Z" fill="#363636"/>
<path d="M234.36 221.377C235.02 222.097 235.41 222.712 235.08 223.747C234.405 225.847 233.925 227.992 233.325 230.122C232.995 231.277 232.56 232.402 232.23 233.557C232.095 234.007 231.84 234.112 231.45 234.067C231 234.007 230.55 233.902 230.1 233.887C229.05 233.857 228.78 234.217 229.005 235.237C229.185 236.032 229.41 236.812 229.8 237.532C229.98 237.862 230.01 238.132 229.68 238.372C228.495 239.272 227.55 240.472 226.245 241.252C225.24 241.852 224.235 242.452 223.275 243.112C222 243.997 220.68 244.792 219.345 245.677C219.225 245.182 219.195 244.747 219.6 244.402C221.385 242.872 222.525 240.847 223.92 239.017C225.06 237.517 226.185 236.017 227.28 234.487C228.525 232.747 229.65 230.917 230.745 229.072C231.84 227.227 232.89 225.367 233.655 223.342C233.865 222.712 233.985 222.037 234.36 221.377Z" fill="#363636"/>
<path d="M227.638 192.638C227.953 192.638 228.463 192.638 228.988 192.638C229.123 192.638 229.243 192.638 229.378 192.608C230.293 192.473 231.028 191.843 231.118 191.123C231.193 190.553 230.518 189.443 229.873 189.158C229.273 188.888 228.643 188.723 227.983 188.738C227.023 188.768 226.123 188.468 225.208 188.258C224.773 188.168 224.428 187.913 224.233 187.508C223.708 186.428 223.603 185.333 224.053 184.208C224.368 183.428 224.968 182.963 225.808 182.843C226.228 182.783 226.648 182.723 227.053 182.648C227.968 182.468 228.118 182.303 228.193 181.358C228.208 181.148 228.103 180.848 228.343 180.743C228.673 180.593 229.048 180.623 229.393 180.698C229.633 180.758 229.588 180.998 229.573 181.178C229.453 182.408 229.633 182.423 230.968 182.588C231.478 182.648 232.003 182.633 232.528 182.663C232.738 182.678 232.963 182.723 232.993 182.933C233.083 183.548 233.128 184.163 232.978 184.763C232.903 185.048 232.603 184.928 232.378 184.883C230.893 184.643 229.408 184.568 227.908 184.568C227.518 184.568 227.143 184.598 226.783 184.793C225.943 185.228 225.763 186.098 226.363 186.818C226.768 187.283 227.263 187.538 227.893 187.538C228.613 187.538 229.318 187.523 230.038 187.673C231.913 188.048 233.023 189.473 232.603 191.348C232.453 191.993 232.273 192.608 231.988 193.193C231.658 193.853 231.208 194.348 230.443 194.588C229.603 194.858 229.558 194.978 229.543 195.848C229.543 196.013 229.528 196.178 229.543 196.343C229.573 196.748 229.438 196.958 229.003 196.943C228.838 196.928 228.673 196.958 228.523 196.973C228.193 197.018 228.028 196.883 228.028 196.553C228.028 196.253 228.028 195.968 227.998 195.668C227.923 194.963 227.728 194.753 227.023 194.693C226.468 194.648 225.913 194.663 225.373 194.618C224.638 194.558 224.578 194.468 224.533 193.718C224.488 192.953 224.623 192.728 225.298 192.608C226.003 192.503 226.723 192.593 227.638 192.638Z" fill="#31C67F"/>
<path d="M207.014 192.427C207.689 192.427 208.319 192.472 208.934 192.412C209.909 192.337 210.674 191.722 210.809 190.972C210.914 190.312 210.194 189.217 209.429 188.902C208.919 188.692 208.364 188.542 207.824 188.557C206.864 188.572 205.964 188.317 205.034 188.107C204.569 188.002 204.164 187.792 203.939 187.357C203.369 186.218 203.249 185.063 203.789 183.878C204.119 183.173 204.674 182.783 205.439 182.648C205.859 182.573 206.279 182.527 206.684 182.452C207.644 182.272 207.779 182.122 207.869 181.117C207.884 180.907 207.779 180.607 208.064 180.532C208.409 180.442 208.769 180.427 209.129 180.517C209.249 180.547 209.279 180.712 209.264 180.847C209.249 181.102 209.234 181.373 209.249 181.628C209.264 182.003 209.444 182.197 209.834 182.287C210.539 182.452 211.259 182.392 211.964 182.467C212.699 182.542 212.714 182.558 212.729 183.293C212.759 184.763 212.759 184.792 211.334 184.612C210.074 184.462 208.814 184.417 207.539 184.402C207.134 184.402 206.774 184.462 206.414 184.657C205.634 185.092 205.454 185.917 206.024 186.622C206.429 187.132 206.969 187.387 207.644 187.387C208.319 187.372 209.009 187.387 209.684 187.507C211.574 187.867 212.744 189.307 212.279 191.242C212.099 192.007 211.859 192.742 211.454 193.417C211.184 193.852 210.854 194.227 210.359 194.332C209.384 194.527 209.114 195.142 209.234 196.042C209.294 196.477 209.219 196.777 208.649 196.792C207.764 196.822 207.764 196.867 207.719 195.937C207.659 194.707 207.494 194.542 206.279 194.512C205.889 194.497 205.499 194.498 205.109 194.453C204.314 194.378 204.254 194.303 204.224 193.493C204.194 192.758 204.344 192.532 205.049 192.427C205.709 192.322 206.384 192.397 207.014 192.427Z" fill="#31C67F"/>
<path d="M232.287 221.453C232.092 222.293 231.777 222.863 231.522 223.448C230.487 225.773 229.257 227.978 227.832 230.093C227.472 230.618 227.037 231.023 226.467 231.308C225.522 231.788 224.577 232.283 223.602 232.793C222.897 231.518 222.237 230.288 221.562 229.073C221.352 228.713 221.637 228.623 221.847 228.503C222.627 228.083 223.392 227.663 224.112 227.168C226.512 225.548 228.912 223.943 231.222 222.188C231.537 221.978 231.837 221.783 232.287 221.453Z" fill="white"/>
<path d="M204.401 222.713C208.136 225.023 211.976 227.123 216.206 228.623C215.486 229.928 214.796 231.203 214.106 232.478C213.821 232.523 213.641 232.313 213.431 232.193C211.121 230.873 208.931 229.358 206.921 227.573C206.531 227.228 206.201 226.838 205.961 226.358C205.361 225.203 204.746 224.063 204.146 222.908C204.131 222.743 204.206 222.638 204.401 222.713Z" fill="white"/>
<path d="M223.663 195.172C223.633 196.132 222.748 196.912 221.803 196.837C220.858 196.762 220.063 196.417 219.478 195.592C218.863 194.707 218.548 194.722 217.798 195.487C217.483 195.817 217.153 196.117 216.778 196.387C215.698 197.152 214.348 196.837 213.553 196.357C212.953 195.997 212.803 195.337 213.103 194.632C213.418 193.882 213.868 193.627 214.648 193.807C215.053 193.897 215.458 194.047 215.863 194.152C216.043 194.197 216.253 194.212 216.448 194.197C216.703 194.182 216.868 194.032 216.928 193.792C216.988 193.522 216.853 193.372 216.613 193.267C216.433 193.192 216.238 193.147 216.073 193.042C215.488 192.667 215.278 191.842 215.623 191.332C215.968 190.822 216.628 190.747 217.273 191.152C217.588 191.347 217.813 191.587 217.993 191.917C218.308 192.472 218.623 192.472 219.013 191.962C219.178 191.752 219.298 191.512 219.478 191.332C219.868 190.942 220.498 190.912 220.888 191.242C221.323 191.602 221.368 192.082 220.978 192.622C220.828 192.832 220.633 193.012 220.483 193.222C220.363 193.402 220.198 193.597 220.393 193.837C220.573 194.047 220.813 194.032 221.023 193.957C221.203 193.897 221.368 193.777 221.533 193.672C221.773 193.537 221.863 193.147 222.238 193.252C222.643 193.372 223.048 193.537 223.288 193.912C223.498 194.317 223.573 194.782 223.663 195.172Z" fill="#FEFEFE"/>
<path d="M218.741 242.827C217.991 242.137 217.331 241.522 216.671 240.907C216.416 240.667 216.296 240.427 216.401 240.052C216.926 238.222 217.451 236.377 217.946 234.532C218.081 234.052 218.321 233.857 218.831 233.887C219.191 233.902 219.356 234.007 219.431 234.352C219.851 236.152 220.286 237.952 220.736 239.737C220.796 239.977 220.781 240.172 220.646 240.382C220.076 241.207 219.521 242.047 218.741 242.827Z" fill="#32C67F"/>
<path d="M208.965 230.933C209.22 231.113 209.475 231.278 209.73 231.458C211.11 232.433 212.55 233.303 214.125 233.948C214.77 234.203 214.965 234.173 215.355 233.618C215.64 233.228 215.88 232.823 216.135 232.418C216.21 232.448 216.24 232.448 216.27 232.463C217.11 233.048 217.245 233.798 216.885 234.728C216.3 236.228 215.91 237.803 215.415 239.498C212.91 236.828 210.75 234.038 208.965 230.933Z" fill="#FEFEFE"/>
<path d="M220.213 197.918C219.913 199.313 219.613 200.708 218.968 201.998C218.683 202.568 218.293 202.613 217.933 202.118C217.078 200.948 216.598 199.598 216.343 198.188C216.298 197.963 216.313 197.738 216.613 197.663C217.288 197.483 217.828 197.048 218.323 196.583C218.548 196.373 218.728 196.283 218.953 196.583C219.208 196.913 219.538 197.183 219.928 197.363C220.183 197.468 220.258 197.663 220.213 197.918Z" fill="#E58272"/>
<path d="M221.532 232.192C221.787 232.657 222.012 233.122 222.282 233.557C222.777 234.352 223.107 234.457 223.977 234.142C224.457 233.962 224.922 233.782 225.507 233.722C224.307 235.372 223.092 237.037 221.832 238.777C221.427 238.027 221.322 237.322 221.127 236.647C220.947 236.062 220.797 235.462 220.647 234.862C220.227 233.332 220.227 233.332 221.532 232.192Z" fill="#FDFDFD"/>
<path d="M203.473 191.843C203.518 190.733 203.308 189.743 203.623 188.738C204.988 189.353 206.368 189.743 207.853 189.728C208.378 189.713 208.888 189.878 209.338 190.133C209.593 190.268 209.848 190.478 209.803 190.808C209.758 191.078 209.488 191.198 209.233 191.273C208.663 191.453 208.078 191.483 207.493 191.468C206.908 191.438 206.323 191.378 205.738 191.363C204.988 191.378 204.253 191.468 203.473 191.843Z" fill="#FCFCFC"/>
<path d="M218.91 232.522C218.49 232.462 218.16 232.597 217.935 232.357C217.545 231.967 217.185 231.562 216.825 231.142C216.705 231.007 216.81 230.842 216.87 230.692C217.095 230.197 217.29 229.642 217.695 229.282C218.085 228.937 218.625 229.282 219.09 229.252C219.96 229.207 220.545 229.582 220.815 230.452C220.905 230.737 220.905 230.917 220.665 231.127C220.38 231.382 220.11 231.682 219.885 231.997C219.615 232.402 219.285 232.642 218.91 232.522Z" fill="#31C57E"/>
<path d="M221.774 198.233C221.579 199.928 220.994 201.443 220.319 202.913C220.244 203.093 220.109 203.243 219.974 203.378C218.864 204.608 217.694 204.548 216.809 203.123C215.864 201.608 215.489 199.883 215.264 198.143C215.249 197.993 215.294 197.903 215.444 197.873C215.594 197.858 215.699 197.933 215.699 198.083C215.699 198.773 215.954 199.418 216.119 200.078C216.344 200.933 216.749 201.713 217.229 202.448C217.949 203.573 219.089 203.528 219.779 202.388C219.974 202.058 220.124 201.683 220.244 201.323C220.604 200.318 220.934 199.298 221.174 198.248C221.234 198.023 221.249 197.783 221.579 197.828C221.879 197.888 221.774 198.128 221.774 198.233Z" fill="#F8F8F8"/>
<path d="M232.481 187.717C232.151 187.672 231.941 187.448 231.701 187.313C230.696 186.742 229.631 186.397 228.461 186.457C228.101 186.472 227.741 186.472 227.396 186.367C227.261 186.322 227.126 186.262 227.111 186.127C227.096 185.947 227.231 185.812 227.396 185.797C227.876 185.737 228.371 185.617 228.836 185.677C229.841 185.782 230.846 185.842 231.851 185.842C232.256 185.842 232.466 185.992 232.481 186.397C232.481 186.802 232.481 187.252 232.481 187.717Z" fill="#F7F8F8"/>
<path d="M204.404 222.712C204.269 222.742 204.179 222.802 204.134 222.922C203.984 222.847 203.894 222.682 203.999 222.562C204.194 222.367 204.314 222.562 204.404 222.712Z" fill="#687575"/>
<path d="M217.048 192.908C216.568 192.938 216.043 192.488 216.043 192.053C216.043 191.753 216.208 191.558 216.508 191.543C216.898 191.513 217.453 192.083 217.468 192.488C217.483 192.788 217.288 192.878 217.048 192.908Z" fill="#0F0D0D"/>
<path d="M220.619 192.218C220.589 192.623 220.109 192.983 219.644 192.968C219.359 192.953 219.254 192.788 219.299 192.518C219.359 192.053 219.809 191.633 220.199 191.678C220.454 191.708 220.634 191.933 220.619 192.218Z" fill="#181717"/>
<path d="M150.539 144.788C143.144 144.788 135.749 144.788 128.369 144.788C127.949 144.788 127.529 144.788 127.094 144.773C125.699 144.728 125.009 144.083 124.934 142.673C124.859 141.368 124.889 140.063 125.144 138.788C125.774 135.668 126.089 132.488 126.659 129.353C126.839 128.393 127.094 127.448 127.364 126.518C127.679 125.423 128.039 124.343 128.279 123.233C128.684 121.373 129.704 119.828 130.844 118.358C131.309 117.758 131.729 117.203 131.759 116.378C131.789 115.643 132.269 115.058 132.704 114.473C133.184 113.828 133.454 113.153 133.334 112.313C133.229 111.518 133.319 110.693 133.499 109.898C133.769 108.743 133.769 107.573 133.619 106.403C133.484 105.293 133.484 104.198 133.724 103.103C133.994 101.873 133.979 100.643 133.814 99.4127C133.649 98.2127 133.634 97.0127 133.844 95.8127C133.934 95.3027 133.964 94.7777 133.904 94.2527C133.619 92.0777 133.709 89.8877 133.499 87.7277C133.289 85.5077 133.289 83.3027 133.499 81.0977C133.649 79.6127 133.859 78.1277 134.204 76.6727C134.294 76.2827 134.339 75.9077 134.264 75.5177C133.784 72.8927 133.424 70.2527 133.259 67.5827C133.139 65.6027 133.124 63.6077 133.214 61.6277C133.289 59.7827 133.304 57.9227 133.499 56.0777C133.694 54.2927 133.934 52.5227 134.894 50.9477C135.029 50.7227 135.164 50.4977 135.329 50.3027C136.064 49.4477 136.979 49.3277 137.954 49.9127C138.299 50.1227 138.569 50.3927 138.809 50.6927C139.739 51.8627 140.669 53.0477 141.299 54.4127C142.334 56.6177 143.549 58.7477 144.284 61.0877C144.689 62.3777 144.764 62.3627 146.114 62.0627C149.249 61.3577 152.384 61.4027 155.489 62.2427C156.014 62.3777 156.149 62.2277 156.344 61.8077C157.859 58.4927 159.569 55.2827 161.744 52.3277C162.314 51.5627 162.929 50.8577 163.694 50.2877C165.539 48.9227 166.664 49.7027 167.279 51.4427C167.729 52.7477 167.789 54.1277 167.864 55.4927C168.089 60.2327 167.714 64.9277 166.829 69.5777C166.634 70.5977 166.649 71.6777 166.319 72.6527C165.914 73.8677 166.154 74.9927 166.274 76.1777C166.784 80.8127 167.054 85.4477 166.664 90.1127C166.544 91.4777 166.424 92.8427 166.274 94.1927C166.184 95.0177 166.304 95.8127 166.454 96.6227C166.679 97.8377 166.784 99.0677 166.754 100.313C166.709 102.428 166.724 104.543 166.709 106.658C166.709 107.318 166.829 107.948 166.904 108.593C167.039 109.598 167.024 110.618 166.859 111.608C166.799 111.968 166.874 112.208 167.114 112.478C167.504 112.913 167.849 113.393 168.209 113.843C168.689 114.443 168.989 115.133 168.974 115.913C168.959 116.363 169.109 116.738 169.364 117.083C171.509 119.978 172.544 123.293 173.024 126.833C173.354 129.353 173.879 131.843 174.209 134.348C174.584 137.123 174.779 139.913 174.944 142.703C174.959 143.033 174.959 143.348 175.019 143.678C175.154 144.338 174.899 144.683 174.239 144.713C172.844 144.773 171.449 144.848 170.054 144.848C163.544 144.863 157.034 144.848 150.524 144.848C150.539 144.833 150.539 144.803 150.539 144.788Z" fill="black"/>
<path d="M135.75 88.2378C136.62 88.5678 137.49 88.6428 138.345 88.6428C138.84 88.6428 138.96 88.8228 138.945 89.2578C138.945 89.5128 139.035 89.7678 139.095 90.0228C139.155 90.2478 139.29 90.4728 139.53 90.5028C140.235 90.6078 140.97 90.6828 141.645 90.4128C142.185 90.1878 142.275 89.6628 142.155 89.1678C142.005 88.5678 142.23 88.3578 142.77 88.2528C143.115 88.1778 143.43 87.9978 143.775 87.8628C143.97 87.9378 143.91 88.1178 143.91 88.2528C143.97 89.3028 144.51 90.0378 145.455 90.4278C145.875 90.6078 146.025 90.8178 146.07 91.2678C146.235 92.9778 146.46 94.6878 147.285 96.2628C147.78 97.1928 148.455 97.8978 149.415 98.3178C150.45 98.7828 151.44 98.6928 152.34 97.9728C153 97.4328 153.57 96.8178 153.885 96.0078C154.395 94.7028 154.875 93.3978 155.01 91.9878C155.07 91.2828 155.16 90.5778 155.88 90.1578C156.09 90.0378 156.255 89.7678 156.345 89.5428C156.6 88.7628 157.14 88.6278 157.845 88.8078C157.995 88.8528 158.175 88.8228 158.325 88.8378C159.135 88.8828 159.135 88.8828 159.27 89.7228C159.42 90.5928 159.6 90.7578 160.485 90.7728C160.62 90.7728 160.74 90.7728 160.875 90.7728C162.3 90.7578 162.525 90.5328 162.435 89.1078C162.42 88.8078 162.405 88.6278 162.78 88.5678C163.32 88.4628 163.815 88.2078 164.325 87.8628C164.46 88.1628 164.385 88.4178 164.385 88.6578C164.34 90.5178 164.37 92.3628 164.19 94.2228C164.1 95.0628 164.175 95.9028 164.325 96.7428C164.835 99.6078 164.865 102.503 164.67 105.398C164.595 106.418 164.67 107.408 164.85 108.413C164.88 108.548 164.91 108.668 164.925 108.788C165.195 110.603 164.91 112.103 163.155 113.213C159.555 115.493 156.165 118.073 152.46 120.203C152.13 120.398 151.83 120.503 151.455 120.368C151.05 120.218 150.6 120.173 150.21 120.293C149.58 120.503 149.07 120.293 148.56 119.993C148.275 119.843 147.99 119.678 147.69 119.558C143.895 118.073 140.445 115.883 136.92 113.903C136.695 113.783 136.485 113.588 136.245 113.528C135.45 113.288 135.33 112.703 135.435 112.013C135.51 111.473 135.555 110.918 135.675 110.378C135.99 108.893 135.96 107.393 135.81 105.908C135.72 105.053 135.765 104.213 135.975 103.388C136.335 101.948 136.35 100.493 136.17 99.0228C136.11 98.5128 136.05 97.9878 136.08 97.4628C136.245 94.5978 135.81 91.7478 135.75 88.8828C135.75 88.6878 135.75 88.5078 135.75 88.2378Z" fill="white"/>
<path d="M163.783 57.4426C163.978 60.6976 163.213 63.8626 162.928 67.2076C162.463 66.7876 162.148 66.4726 161.803 66.1876C161.383 65.8276 160.903 65.5426 160.348 65.4226C160.138 65.3776 159.943 65.4226 159.838 65.6176C159.748 65.7826 159.868 65.9326 159.973 66.0526C160.468 66.6976 160.948 67.3426 161.458 67.9876C162.958 69.9376 163.438 72.2776 164.023 74.5576C163.753 74.7826 163.498 74.6626 163.258 74.6476C162.883 74.6176 162.658 74.4526 162.673 74.0476C162.673 73.8526 162.673 73.6576 162.628 73.4626C162.478 72.7726 162.058 72.5926 160.798 72.6376C159.853 72.6676 159.493 72.8926 159.418 73.5526C159.388 73.8076 159.433 74.0776 159.448 74.3326C159.463 74.6476 159.388 74.8126 159.028 74.8126C158.638 74.7976 158.248 74.8576 157.858 74.9026C156.403 75.0226 155.233 75.9526 154.918 77.3476C154.693 78.3376 154.693 79.3576 155.038 80.3326C155.443 81.4576 156.178 82.1926 157.348 82.4926C158.263 82.7176 159.163 82.9726 160.123 82.9426C160.738 82.9276 161.368 83.0626 161.878 83.4526C162.373 83.8276 162.328 84.2326 161.758 84.4576C161.173 84.6976 160.558 84.6976 159.928 84.6976C159.118 84.6976 158.308 84.5476 157.498 84.6226C156.643 84.6976 155.893 84.8776 155.518 85.7776C155.233 85.6426 155.008 85.5226 154.768 85.4326C154.513 85.3426 154.408 85.2076 154.408 84.9376C154.378 84.0076 154.033 83.2426 153.103 82.9726C152.158 82.6876 151.303 82.9426 150.643 83.7226C150.598 83.7676 150.538 83.7976 150.463 83.8576C149.653 83.0326 148.723 82.6126 147.583 83.1826C146.803 83.5726 146.503 84.2626 146.548 85.5376C146.158 85.6576 145.708 85.5376 145.183 85.8226C145.513 84.9376 145.498 84.1426 145.468 83.3476C145.423 82.0126 144.793 80.9776 143.698 80.2576C142.648 79.5676 141.478 79.1926 140.188 79.2526C139.723 79.2676 139.213 79.3426 138.763 78.8476C139.438 78.3976 140.143 78.4276 140.833 78.5026C142.063 78.6376 143.308 78.6526 144.538 78.6676C145.573 78.6676 145.873 78.3676 145.888 77.3176C145.948 74.7226 145.513 74.6626 143.473 74.5126C143.338 74.4976 143.218 74.4826 143.083 74.4826C142.573 74.4676 142.363 74.2426 142.318 73.7026C142.243 72.6526 142.048 72.5026 140.998 72.4426C140.863 72.4426 140.743 72.4426 140.608 72.4426C139.318 72.4576 139.063 72.6976 139.123 73.9876C139.138 74.4526 139.033 74.6326 138.538 74.6176C137.998 74.6026 137.458 74.7526 136.843 74.6776C137.608 71.8876 138.223 69.0676 140.053 66.7426C140.308 66.4276 140.698 65.9776 140.308 65.6326C139.933 65.2726 139.528 65.7226 139.213 65.9626C138.463 66.5326 137.878 67.2826 137.233 68.2726C136.768 64.1926 136.693 60.3526 137.248 56.5276C137.308 56.4976 137.383 56.4826 137.443 56.4526C137.488 56.5426 137.548 56.6176 137.578 56.7076C138.523 59.0626 139.903 61.2226 140.593 63.6826C140.803 64.4626 141.148 64.7626 141.523 64.5526C142.063 64.2376 141.778 63.7576 141.673 63.3376C140.983 60.6976 139.678 58.3276 138.493 55.9126C138.433 55.7926 138.358 55.6876 138.283 55.5826C137.743 54.9076 137.098 54.9526 136.648 55.7026C136.318 56.2726 136.183 56.9176 136.108 57.5626C135.688 61.0426 135.673 64.5226 136.168 67.9726C136.393 69.5626 136.033 70.8976 135.388 72.2776C135.208 71.9926 135.148 71.6776 135.133 71.3476C134.848 67.0576 134.623 62.7676 134.953 58.4776C135.088 56.7976 135.238 55.1026 135.673 53.4676C135.808 52.9276 135.988 52.4026 136.258 51.9226C136.738 51.0226 137.038 50.9626 137.638 51.7576C138.493 52.8676 139.288 54.0226 139.843 55.3276C140.398 56.6476 140.983 57.9526 141.643 59.2276C142.258 60.3826 142.483 61.6876 142.963 62.8876C143.083 63.1726 142.933 63.3076 142.783 63.4726C142.603 63.6676 142.453 63.9076 142.618 64.1776C142.813 64.4926 143.128 64.4476 143.413 64.3726C144.673 63.9976 145.963 63.8776 147.253 63.7276C149.878 63.4276 152.443 63.7426 155.023 64.2076C155.428 64.2826 155.833 64.4626 156.238 64.5826C156.523 64.6576 156.793 64.7476 157.093 64.7026C157.768 64.5826 158.053 64.1476 157.768 63.5026C157.648 63.2176 157.558 63.0226 157.708 62.7076C159.403 59.3776 161.053 56.0026 163.348 53.0176C163.783 52.4476 164.263 51.9226 164.833 51.4726C165.148 51.2326 165.343 51.2776 165.478 51.6676C165.643 52.1326 165.733 52.6126 165.778 53.0926C166.078 56.1826 166.063 59.2726 165.733 62.3626C165.463 64.9126 165.253 67.4776 164.743 70.0876C164.293 69.5926 164.113 69.0526 164.188 68.4226C164.428 66.4276 164.683 64.4176 164.893 62.4226C165.058 60.8776 165.223 59.3176 165.028 57.7576C164.968 57.3076 164.908 56.8576 164.683 56.4376C164.413 55.9126 163.963 55.7926 163.468 56.0776C163.123 56.2726 162.838 56.5426 162.613 56.8726C161.173 58.9276 159.913 61.0876 159.103 63.4876C159.013 63.7726 158.908 64.0426 158.923 64.3426C158.923 64.5376 158.908 64.7476 159.163 64.8076C159.388 64.8526 159.553 64.7476 159.643 64.5676C159.823 64.2226 160.003 63.8776 160.153 63.5176C160.993 61.5376 162.103 59.6926 163.243 57.8776C163.348 57.6826 163.423 57.4726 163.783 57.4426Z" fill="white"/>
<path d="M162.675 128.482C163.53 128.422 164.28 128.362 165.015 128.272C165.6 128.197 165.93 127.912 166.08 127.417C166.755 125.212 167.7 123.112 168.225 120.862C168.33 120.397 168.285 119.887 168.63 119.438C169.215 120.382 169.8 121.327 170.385 122.272C170.52 122.497 170.4 122.707 170.325 122.917C170.07 123.652 169.83 124.387 169.59 125.122C169.5 125.392 169.44 125.662 169.62 126.007C170.16 125.512 170.1 124.702 170.67 124.207C171.015 124.912 170.88 125.647 171.03 126.322C171.27 127.357 171.36 128.437 171.51 129.487C171.69 130.732 171.84 131.992 172.035 133.237C172.41 135.502 172.47 137.812 172.77 140.092C172.875 140.857 172.905 141.637 172.995 142.417C173.04 142.822 172.935 143.107 172.425 143.092C171.09 143.062 169.755 143.092 168.42 143.062C167.85 143.047 167.655 142.897 167.76 142.357C168.075 140.752 167.775 139.117 168.06 137.497C168.21 136.642 168.21 135.757 168.27 134.887C168.375 133.432 168.48 131.977 168.675 130.537C168.705 130.372 168.72 130.207 168.69 130.057C168.63 129.742 168.9 129.202 168.45 129.157C168.06 129.112 168.045 129.697 167.955 130.012C167.4 132.082 167.13 134.197 166.74 136.297C166.395 138.187 166.32 140.092 166.335 142.012C166.35 142.912 166.32 142.912 165.405 142.912C161.01 142.912 156.615 142.912 152.22 142.897C152.085 142.897 151.965 142.897 151.83 142.897C151.47 142.897 151.35 142.792 151.365 142.372C151.395 140.812 152.295 139.957 153.54 139.207C156.03 137.692 158.58 136.252 160.92 134.482C161.73 133.867 162.405 133.117 163.095 132.382C163.56 131.872 163.74 131.302 163.425 130.612C163.14 129.967 162.945 129.277 162.675 128.482Z" fill="#363636"/>
<path d="M131.999 127.928C131.729 128.123 131.789 128.333 131.774 128.528C131.534 132.848 131.579 137.168 131.594 141.488C131.594 142.793 131.684 142.703 130.394 142.703C129.449 142.703 128.504 142.688 127.559 142.703C127.034 142.718 126.899 142.493 126.884 142.013C126.869 140.648 127.049 139.298 127.214 137.948C127.349 136.793 127.529 135.638 127.664 134.483C128.009 131.363 128.444 128.258 129.374 125.243C129.524 124.748 129.554 124.223 129.779 123.758C129.794 123.728 129.839 123.728 129.899 123.698C130.469 124.583 130.649 125.753 131.654 126.383C131.864 126.098 131.729 125.873 131.654 125.618C131.369 124.688 131.009 123.773 130.574 122.903C130.379 122.513 130.349 122.198 130.634 121.823C131.009 121.313 131.204 120.668 131.714 120.113C132.149 122.018 132.419 123.863 132.944 125.663C133.094 126.158 133.214 126.668 133.349 127.163C133.484 127.643 133.829 127.928 134.264 128.108C134.744 128.318 135.239 128.438 135.779 128.438C136.499 128.438 136.619 128.558 136.349 129.248C135.629 131.108 136.409 132.263 137.864 133.358C139.469 134.573 141.044 135.818 142.769 136.868C144.554 137.948 146.399 138.893 148.409 139.448C149.264 139.688 149.639 140.183 149.729 140.993C149.729 141.053 149.744 141.128 149.744 141.188C149.924 142.853 149.894 142.883 148.244 142.883C145.379 142.883 142.514 142.853 139.649 142.883C137.639 142.898 135.629 142.583 133.619 142.703C133.109 142.733 132.944 142.493 132.944 142.013C132.959 140.198 133.004 138.368 132.929 136.553C132.824 133.928 132.809 131.303 132.359 128.708C132.329 128.423 132.269 128.153 131.999 127.928Z" fill="#363636"/>
<path d="M134.294 115.778C134.819 116.978 135.284 118.073 135.824 119.153C136.919 121.373 138.284 123.428 139.634 125.498C140.939 127.523 142.319 129.473 143.864 131.318C145.469 133.238 147.029 135.188 148.994 136.763C149.174 136.898 149.354 137.033 149.549 137.153C149.834 137.318 150.164 137.408 149.924 137.873C149.654 138.368 149.399 138.518 148.919 138.293C146.744 137.333 144.644 136.223 142.664 134.918C141.149 133.913 139.709 132.818 138.209 131.783C137.759 131.483 137.624 131.183 137.834 130.658C138.164 129.848 138.179 128.948 138.359 128.093C138.464 127.598 138.179 127.208 137.684 127.043C136.979 126.788 136.289 126.458 135.554 126.368C134.954 126.278 134.684 126.038 134.579 125.498C134.369 124.388 134.129 123.278 133.934 122.168C133.769 121.208 133.664 120.248 133.484 119.288C133.199 117.518 133.184 117.518 134.294 115.778Z" fill="#363636"/>
<path d="M166.426 114.413C167.086 115.133 167.476 115.748 167.146 116.783C166.471 118.883 165.991 121.028 165.391 123.158C165.061 124.313 164.626 125.438 164.296 126.593C164.161 127.043 163.906 127.148 163.516 127.103C163.066 127.043 162.616 126.938 162.166 126.923C161.116 126.893 160.846 127.253 161.071 128.273C161.251 129.068 161.476 129.848 161.866 130.568C162.046 130.898 162.076 131.168 161.746 131.408C160.561 132.308 159.616 133.508 158.311 134.288C157.306 134.888 156.301 135.488 155.341 136.148C154.066 137.033 152.746 137.828 151.411 138.713C151.291 138.218 151.261 137.783 151.666 137.438C153.451 135.908 154.591 133.883 155.986 132.053C157.126 130.553 158.251 129.053 159.346 127.523C160.591 125.783 161.716 123.953 162.811 122.108C163.906 120.263 164.956 118.403 165.721 116.378C165.931 115.748 166.051 115.058 166.426 114.413Z" fill="#363636"/>
<path d="M159.72 85.6729C160.035 85.6729 160.545 85.6729 161.07 85.6729C161.205 85.6729 161.325 85.6729 161.46 85.6429C162.375 85.5079 163.11 84.8779 163.2 84.1579C163.275 83.5879 162.6 82.4779 161.955 82.1929C161.355 81.9229 160.725 81.7579 160.065 81.7729C159.105 81.8029 158.205 81.5029 157.29 81.2929C156.855 81.2029 156.51 80.9479 156.315 80.5429C155.79 79.4629 155.685 78.3679 156.135 77.2429C156.45 76.4629 157.05 75.9979 157.89 75.8779C158.31 75.8179 158.73 75.7579 159.135 75.6829C160.05 75.5029 160.2 75.3379 160.275 74.3929C160.29 74.1829 160.185 73.8829 160.425 73.7779C160.755 73.6279 161.13 73.6579 161.475 73.7329C161.715 73.7929 161.67 74.0329 161.655 74.2129C161.535 75.4429 161.715 75.4579 163.05 75.6229C163.56 75.6829 164.085 75.6679 164.61 75.6979C164.82 75.7129 165.045 75.7579 165.075 75.9679C165.165 76.5829 165.21 77.1979 165.06 77.7979C164.985 78.0829 164.685 77.9629 164.46 77.9179C162.975 77.6779 161.49 77.6029 159.99 77.6029C159.6 77.6029 159.225 77.6329 158.865 77.8279C158.025 78.2629 157.845 79.1329 158.445 79.8529C158.85 80.3179 159.345 80.5729 159.975 80.5729C160.695 80.5729 161.4 80.5579 162.12 80.7079C163.995 81.0829 165.105 82.5079 164.685 84.3829C164.535 85.0279 164.355 85.6429 164.07 86.2279C163.74 86.8879 163.29 87.3829 162.525 87.6229C161.685 87.8929 161.64 88.0129 161.625 88.8829C161.625 89.0479 161.61 89.2129 161.625 89.3779C161.655 89.7829 161.52 89.9929 161.085 89.9779C160.92 89.9629 160.755 89.9929 160.605 90.0079C160.275 90.0529 160.11 89.9179 160.11 89.5879C160.11 89.2879 160.11 89.0029 160.08 88.7029C160.005 87.9979 159.81 87.7879 159.105 87.7279C158.55 87.6829 157.995 87.6979 157.455 87.6529C156.72 87.5929 156.66 87.5029 156.615 86.7529C156.57 85.9879 156.705 85.7629 157.38 85.6429C158.07 85.5379 158.79 85.6279 159.72 85.6729Z" fill="#31C67F"/>
<path d="M139.08 85.4627C139.755 85.4627 140.385 85.5077 141 85.4477C141.975 85.3727 142.74 84.7577 142.875 84.0077C142.98 83.3477 142.26 82.2527 141.495 81.9377C140.985 81.7277 140.43 81.5777 139.89 81.5927C138.93 81.6077 138.03 81.3527 137.1 81.1427C136.635 81.0377 136.23 80.8277 136.005 80.3927C135.435 79.2527 135.315 78.0977 135.855 76.9127C136.185 76.2077 136.74 75.8177 137.505 75.6827C137.925 75.6077 138.345 75.5627 138.75 75.4877C139.71 75.3077 139.845 75.1577 139.935 74.1527C139.95 73.9427 139.845 73.6427 140.13 73.5677C140.475 73.4777 140.835 73.4627 141.195 73.5527C141.315 73.5827 141.345 73.7477 141.33 73.8827C141.315 74.1377 141.3 74.4077 141.315 74.6627C141.33 75.0377 141.51 75.2327 141.9 75.3227C142.605 75.4877 143.325 75.4277 144.03 75.5027C144.765 75.5777 144.78 75.5927 144.795 76.3277C144.825 77.7977 144.825 77.8277 143.4 77.6477C142.14 77.4977 140.88 77.4527 139.605 77.4377C139.2 77.4377 138.84 77.4977 138.48 77.6927C137.7 78.1277 137.52 78.9527 138.09 79.6577C138.495 80.1677 139.035 80.4227 139.71 80.4227C140.385 80.4077 141.075 80.4227 141.75 80.5427C143.64 80.9027 144.81 82.3427 144.345 84.2777C144.165 85.0427 143.925 85.7777 143.52 86.4527C143.25 86.8877 142.92 87.2627 142.425 87.3677C141.45 87.5627 141.18 88.1777 141.3 89.0777C141.36 89.5127 141.285 89.8127 140.715 89.8277C139.83 89.8577 139.83 89.9027 139.785 88.9727C139.725 87.7427 139.56 87.5777 138.345 87.5477C137.955 87.5327 137.565 87.5327 137.175 87.4877C136.38 87.4127 136.32 87.3377 136.29 86.5277C136.26 85.7927 136.41 85.5677 137.115 85.4627C137.775 85.3427 138.465 85.4327 139.08 85.4627Z" fill="#31C67F"/>
<path d="M164.369 114.488C164.174 115.328 163.859 115.898 163.604 116.483C162.569 118.808 161.339 121.013 159.914 123.128C159.554 123.653 159.119 124.058 158.549 124.343C157.604 124.823 156.659 125.318 155.684 125.828C154.979 124.553 154.319 123.323 153.644 122.108C153.434 121.748 153.719 121.658 153.929 121.538C154.709 121.118 155.474 120.698 156.194 120.203C158.594 118.583 160.994 116.978 163.304 115.223C163.619 114.998 163.904 114.803 164.369 114.488Z" fill="white"/>
<path d="M136.484 115.748C140.219 118.058 144.059 120.158 148.289 121.658C147.569 122.963 146.879 124.238 146.189 125.513C145.904 125.558 145.724 125.348 145.514 125.228C143.204 123.908 141.014 122.393 139.004 120.608C138.614 120.263 138.284 119.873 138.044 119.393C137.444 118.238 136.829 117.098 136.229 115.943C136.214 115.778 136.274 115.673 136.484 115.748Z" fill="white"/>
<path d="M155.73 88.2075C155.7 89.1675 154.815 89.9475 153.87 89.8725C152.925 89.7975 152.13 89.4525 151.545 88.6275C150.93 87.7425 150.615 87.7575 149.865 88.5225C149.55 88.8525 149.22 89.1525 148.845 89.4225C147.765 90.1875 146.415 89.8725 145.62 89.3925C145.02 89.0325 144.87 88.3725 145.17 87.6675C145.485 86.9175 145.935 86.6625 146.715 86.8425C147.12 86.9325 147.525 87.0825 147.93 87.1875C148.11 87.2325 148.32 87.2475 148.515 87.2325C148.77 87.2175 148.935 87.0675 148.995 86.8275C149.055 86.5575 148.92 86.4075 148.68 86.3025C148.5 86.2275 148.305 86.1825 148.14 86.0775C147.555 85.7025 147.345 84.8775 147.69 84.3675C148.035 83.8575 148.695 83.7825 149.34 84.1875C149.655 84.3825 149.88 84.6225 150.06 84.9525C150.375 85.5075 150.69 85.5075 151.08 84.9975C151.245 84.7875 151.365 84.5475 151.545 84.3675C151.935 83.9775 152.565 83.9475 152.955 84.2775C153.39 84.6375 153.435 85.1175 153.045 85.6575C152.895 85.8675 152.7 86.0475 152.55 86.2575C152.43 86.4375 152.265 86.6325 152.46 86.8725C152.64 87.0825 152.88 87.0675 153.09 86.9925C153.27 86.9325 153.435 86.8125 153.6 86.7075C153.84 86.5725 153.93 86.1825 154.305 86.2875C154.71 86.4075 155.115 86.5725 155.355 86.9475C155.58 87.3525 155.64 87.8025 155.73 88.2075Z" fill="#FEFEFE"/>
<path d="M150.823 135.862C150.073 135.172 149.413 134.557 148.753 133.942C148.498 133.702 148.378 133.462 148.483 133.087C149.008 131.257 149.533 129.412 150.028 127.567C150.163 127.087 150.403 126.892 150.913 126.922C151.273 126.937 151.438 127.042 151.513 127.387C151.933 129.187 152.368 130.987 152.818 132.772C152.878 133.012 152.863 133.207 152.728 133.417C152.143 134.242 151.588 135.082 150.823 135.862Z" fill="#32C67F"/>
<path d="M141.031 123.968C141.286 124.148 141.541 124.313 141.796 124.493C143.176 125.468 144.616 126.338 146.191 126.983C146.836 127.238 147.031 127.208 147.421 126.653C147.706 126.263 147.946 125.858 148.201 125.453C148.276 125.483 148.306 125.483 148.336 125.498C149.176 126.083 149.311 126.833 148.951 127.763C148.366 129.263 147.976 130.838 147.481 132.533C144.976 129.863 142.816 127.073 141.031 123.968Z" fill="#FEFEFE"/>
<path d="M152.28 90.953C151.98 92.348 151.68 93.743 151.035 95.033C150.75 95.603 150.36 95.648 150 95.153C149.145 93.983 148.665 92.633 148.41 91.223C148.365 90.998 148.38 90.773 148.68 90.698C149.355 90.518 149.895 90.083 150.39 89.618C150.615 89.408 150.795 89.318 151.02 89.618C151.275 89.948 151.605 90.218 151.995 90.398C152.25 90.488 152.325 90.698 152.28 90.953Z" fill="#E58272"/>
<path d="M153.599 125.228C153.854 125.693 154.079 126.158 154.349 126.593C154.844 127.388 155.174 127.493 156.044 127.178C156.524 126.998 156.989 126.818 157.574 126.758C156.374 128.408 155.159 130.073 153.899 131.813C153.494 131.063 153.389 130.358 153.194 129.683C153.014 129.098 152.864 128.498 152.714 127.898C152.294 126.368 152.294 126.368 153.599 125.228Z" fill="#FDFDFD"/>
<path d="M135.555 84.8779C135.6 83.7679 135.39 82.7779 135.705 81.7729C137.07 82.3879 138.45 82.7779 139.935 82.7629C140.46 82.7479 140.97 82.9129 141.42 83.1679C141.675 83.3029 141.93 83.5129 141.885 83.8429C141.84 84.1129 141.57 84.2329 141.315 84.3079C140.745 84.4879 140.16 84.5179 139.575 84.5029C138.99 84.4729 138.405 84.4129 137.82 84.3979C137.07 84.4129 136.335 84.5029 135.555 84.8779Z" fill="#FCFCFC"/>
<path d="M150.976 125.558C150.556 125.498 150.226 125.633 150.001 125.393C149.611 125.003 149.251 124.598 148.891 124.178C148.771 124.043 148.876 123.878 148.936 123.728C149.161 123.233 149.356 122.678 149.761 122.318C150.151 121.973 150.691 122.318 151.156 122.288C152.026 122.243 152.611 122.618 152.881 123.488C152.971 123.773 152.971 123.953 152.731 124.163C152.446 124.418 152.176 124.718 151.951 125.033C151.696 125.438 151.366 125.678 150.976 125.558Z" fill="#31C57E"/>
<path d="M153.841 91.2679C153.646 92.9629 153.061 94.4779 152.386 95.9479C152.311 96.1279 152.176 96.2779 152.041 96.4129C150.931 97.6429 149.761 97.5829 148.876 96.1579C147.931 94.6429 147.556 92.9179 147.331 91.1779C147.316 91.0279 147.361 90.9379 147.511 90.9079C147.661 90.8929 147.766 90.9679 147.766 91.1179C147.766 91.8079 148.021 92.4529 148.186 93.1129C148.411 93.9679 148.816 94.7479 149.296 95.4829C150.016 96.6079 151.156 96.5629 151.846 95.4229C152.041 95.0929 152.191 94.7179 152.311 94.3579C152.671 93.3529 153.001 92.3329 153.241 91.2829C153.301 91.0579 153.316 90.8179 153.646 90.8629C153.946 90.9229 153.841 91.1479 153.841 91.2679Z" fill="#F8F8F8"/>
<path d="M164.547 80.7375C164.217 80.6925 164.007 80.4675 163.767 80.3325C162.762 79.7625 161.697 79.4175 160.527 79.4775C160.167 79.4925 159.807 79.4925 159.462 79.3875C159.327 79.3425 159.192 79.2825 159.177 79.1475C159.162 78.9675 159.297 78.8325 159.462 78.8175C159.942 78.7575 160.437 78.6375 160.902 78.6975C161.907 78.8025 162.912 78.8625 163.917 78.8625C164.322 78.8625 164.532 79.0125 164.547 79.4175C164.562 79.8375 164.547 80.2725 164.547 80.7375Z" fill="#F7F8F8"/>
<path d="M136.482 115.748C136.347 115.778 136.257 115.838 136.212 115.958C136.062 115.883 135.972 115.718 136.077 115.598C136.257 115.403 136.377 115.583 136.482 115.748Z" fill="#687575"/>
<path d="M149.114 85.9428C148.634 85.9728 148.109 85.5228 148.109 85.0878C148.109 84.7878 148.274 84.5928 148.574 84.5778C148.964 84.5478 149.519 85.1178 149.534 85.5228C149.549 85.8078 149.354 85.9128 149.114 85.9428Z" fill="#0F0D0D"/>
<path d="M152.685 85.2376C152.655 85.6426 152.175 86.0026 151.71 85.9876C151.425 85.9726 151.32 85.8076 151.365 85.5376C151.425 85.0727 151.875 84.6527 152.265 84.6977C152.52 84.7427 152.7 84.9677 152.685 85.2376Z" fill="#181717"/>
<defs>
<linearGradient id="paint0_linear" x1="55" y1="55.5928" x2="341.746" y2="155.587" gradientUnits="userSpaceOnUse">
<stop stop-color="#4EECAC"/>
<stop offset="0.723958" stop-color="#8DC7ED"/>
<stop offset="1" stop-color="#8285F0"/>
</linearGradient>
</defs>
</svg>
