<svg width="300" height="301" viewBox="0 0 300 301" fill="none" xmlns="http://www.w3.org/2000/svg">
<path d="M210.865 202.44C182.048 194.734 159.936 107.593 159.936 107.593H150.798H150.202H141.064C141.064 107.593 118.952 194.718 90.135 202.44C61.318 210.147 54 247.593 54 247.593H150.202H150.798H247C246.982 247.593 239.682 210.163 210.865 202.44Z" fill="url(#paint0_linear)"/>
<path d="M196.89 202.895C197.296 205.802 197.685 208.643 198.091 211.501C198.14 211.842 198.221 212.183 198.221 212.54C198.205 213.726 198.416 214.294 199.894 214.667C202.427 215.284 204.44 219.555 202.784 222.315C202.475 222.819 202.069 223.452 201.534 223.419C200.364 223.354 199.682 224.215 198.741 224.556C197.896 224.864 197.783 225.335 197.864 226.115C198.286 230.142 198.692 234.168 199.082 238.211C199.26 240.111 199.455 242.011 199.536 243.927C199.569 244.771 199.812 245.453 200.299 246.152C201.55 247.97 200.787 249.48 198.578 249.529C195.802 249.594 193.025 249.513 190.249 249.561C189.258 249.578 188.755 249.123 188.479 248.262C188.105 247.11 187.748 245.94 187.375 244.788C186.238 241.199 185.069 237.643 183.997 234.039C183.721 233.113 183.299 232.902 182.422 232.934C181.204 232.999 179.987 232.999 178.785 232.869C177.908 232.772 177.567 233.016 177.389 233.892C176.512 237.838 175.57 241.784 174.645 245.729C174.563 246.07 174.498 246.411 174.417 246.736C173.8 249.253 173.589 249.464 171.089 249.513C168.767 249.561 166.461 249.545 164.139 249.529C162.986 249.529 162.369 248.75 162.629 247.613C162.824 246.752 163.246 245.973 163.879 245.372C164.399 244.885 164.496 244.333 164.496 243.667C164.512 237.53 164.561 231.392 164.594 225.254C164.594 224.394 164.529 223.565 164.22 222.705C163.814 221.617 163.749 220.432 163.782 219.279C163.895 216.226 163.441 213.157 163.766 210.105C163.879 209.082 163.782 208.026 163.782 206.987C163.343 206.711 163.002 207.052 162.661 207.198C158.878 208.822 154.868 209.325 150.808 209.455C149.996 209.488 149.249 209.536 148.584 210.153C147.885 210.803 146.879 210.819 145.953 210.9C143.42 211.111 140.887 211.339 138.127 211.014C138.452 212.67 138.289 214.229 139.588 215.528C140.79 216.73 140.579 217.931 139.182 218.987C138.776 219.295 138.63 219.685 138.452 220.107C138.143 220.854 137.818 221.601 137.299 222.234C136.795 222.851 136.162 223.241 135.334 223.143C134.701 223.078 134.522 223.468 134.457 223.955C134.392 224.41 134.392 224.881 134.392 225.335C134.457 231.522 134.522 237.724 134.571 243.911C134.571 244.593 134.75 245.112 135.253 245.599C135.756 246.087 136.049 246.72 136.146 247.451C136.357 249.123 136.049 249.496 134.392 249.496C132.07 249.496 129.765 249.496 127.443 249.496C125.722 249.496 125.186 249.139 124.764 247.467C124.309 245.681 123.968 243.846 123.546 242.044C122.929 239.397 122.296 236.75 121.646 234.103C121.37 232.951 121.338 232.983 120.039 233.048C118.886 233.113 117.717 233.178 116.564 233.097C115.671 233.048 115.281 233.308 115.005 234.201C113.625 238.731 112.18 243.245 110.735 247.759C110.182 249.464 110.166 249.464 108.461 249.48C105.733 249.496 103.022 249.513 100.294 249.496C98.2481 249.48 97.4362 248.068 98.6215 246.395C99.271 245.486 99.4659 244.577 99.5308 243.505C99.8393 237.724 100.586 231.976 101.155 226.228C101.236 225.465 101.301 224.962 100.31 224.686C99.3684 224.426 98.6702 223.663 97.5499 223.501C96.3321 223.322 95.8612 222.039 95.715 220.821C95.3578 217.85 97.1764 215.252 100.099 214.554C100.424 214.473 100.602 214.391 100.651 214.05C101.122 210.446 101.609 206.825 102.08 203.269C101.82 203.106 101.69 203.139 101.56 203.301C99.4983 205.916 96.9166 207.978 94.3024 209.991C91.0712 212.475 88.116 215.236 85.859 218.646C85.4206 219.311 84.7873 219.49 84.1054 219.604C81.5074 220.026 79.1855 219.311 77.0746 217.785C76.3277 217.249 75.597 216.665 74.8826 216.08C73.2913 214.814 71.4403 214.245 69.4269 214.115C67.8681 214.002 67.4621 213.287 68.3065 212.004C71.2454 207.491 75.3372 204.487 80.5981 203.318C87.6613 201.743 93.8315 198.56 99.0762 193.559C100.132 192.552 100.976 191.383 101.804 190.182C101.966 189.938 102.226 189.678 102.21 189.435C102.177 187.99 102.665 186.853 103.899 186.041C104.256 185.814 104.045 185.278 104.029 184.888C103.817 173.246 103.639 161.62 102.908 149.994C102.73 147.153 102.827 144.327 103.347 141.518C103.541 140.495 103.704 139.424 104.24 138.547C105.084 137.167 105.068 135.705 104.938 134.195C104.678 130.997 104.905 127.83 105.392 124.68C105.571 123.463 105.961 122.31 106.497 121.222C107.406 119.371 108.948 119.273 110.053 121.027C111.254 122.943 112.342 124.908 113.17 127.018C113.479 127.83 113.82 128.626 114.144 129.438C115.005 131.597 115.005 131.614 117.246 131.549C117.976 131.516 118.853 132.052 119.405 131.451C119.876 130.932 120.022 130.104 120.298 129.405C121.354 126.694 122.474 124.047 124.455 121.839C124.764 121.498 125.056 121.124 125.429 120.865C126.501 120.134 127.638 120.491 128.076 121.709C128.449 122.748 128.677 123.82 128.709 124.94C128.79 127.489 128.855 130.039 128.482 132.572C128.336 133.546 128.32 134.536 128.222 135.511C128.157 136.046 128.255 136.517 128.563 136.988C129.813 138.888 130.236 141.031 130.447 143.24C130.625 145.188 130.885 147.12 131.242 149.036C131.307 149.345 131.502 149.523 131.648 149.767C132.525 151.131 132.444 152.657 131.258 153.664C130.625 154.2 130.512 154.736 130.56 155.45C130.69 157.301 130.82 159.152 130.901 161.003C131.242 169.398 131.697 177.776 132.785 186.106C132.834 186.512 132.882 186.918 132.85 187.324C132.801 187.973 133.028 188.395 133.613 188.736C134.571 189.305 134.863 190.214 134.733 191.269C134.668 191.854 134.668 192.422 134.766 192.991C134.814 193.267 134.847 193.656 134.701 193.835C133.158 195.702 135.042 197.131 135.334 198.755C135.431 199.274 136.016 199.323 136.438 199.469C137.867 199.94 139.296 200.379 140.725 200.849C141.91 201.255 143.063 201.467 144.151 200.557C144.313 200.411 144.606 200.281 144.8 200.346C146.765 200.914 148.665 199.128 150.646 200.216C151.117 200.46 151.669 200.216 152.172 200.07C154.072 199.55 155.907 198.836 157.66 197.959C159.625 196.985 161.541 195.913 163.49 194.907C164.09 194.598 164.464 194.355 164.253 193.478C164.025 192.552 164.318 191.546 164.236 190.555C164.155 189.678 164.675 189.012 165.389 188.542C165.86 188.249 166.136 187.941 166.185 187.324C166.493 183.865 166.948 180.423 167.175 176.964C167.63 169.917 167.971 162.87 168.361 155.823C168.409 154.849 168.409 154.021 167.468 153.225C166.558 152.446 166.396 151.115 167.029 150.01C167.857 148.582 168.117 147.039 168.28 145.464C168.474 143.629 168.588 141.778 169.059 139.976C169.254 139.196 169.416 138.352 169.903 137.719C170.926 136.387 170.829 134.926 170.618 133.432C170.277 131.143 170.131 128.821 170.163 126.515C170.179 125.119 170.309 123.739 170.65 122.391C170.861 121.53 171.024 120.621 172.063 120.426C173.102 120.231 173.784 120.848 174.417 121.579C175.814 123.17 176.82 124.973 177.681 126.872C177.876 127.295 178.006 127.733 178.217 128.155C178.769 129.227 178.704 130.786 179.727 131.354C180.636 131.873 181.984 131.256 183.12 131.516C183.689 131.646 183.981 131.354 184.16 130.867C184.533 129.892 184.939 128.934 185.312 127.96C186.222 125.573 187.391 123.316 188.722 121.141C188.836 120.946 188.95 120.735 189.096 120.556C190.135 119.241 191.466 119.322 192.295 120.8C193.058 122.18 193.447 123.69 193.675 125.249C194.113 128.188 194.146 131.126 193.999 134.082C193.934 135.657 193.967 137.134 194.763 138.612C195.737 140.414 195.899 142.509 196.013 144.522C196.143 146.828 196.127 149.15 195.997 151.472C195.753 155.856 195.526 160.256 195.363 164.657C195.104 171.427 195.136 178.198 194.925 184.969C194.909 185.554 194.99 185.944 195.477 186.285C196.338 186.885 196.76 187.778 196.727 188.818C196.711 189.386 196.971 189.792 197.279 190.23C198.319 191.773 199.536 193.153 200.933 194.387C205.95 198.804 211.714 201.678 218.225 203.139C223.356 204.276 227.4 207.117 230.387 211.452C230.55 211.696 230.728 211.923 230.858 212.183C231.345 213.206 230.988 213.904 229.868 214.018C229.121 214.083 228.374 214.083 227.627 214.245C225.678 214.667 224.152 215.788 222.691 217.022C221.148 218.305 219.427 219.198 217.43 219.522C216.439 219.685 215.481 219.636 214.507 219.392C213.858 219.23 213.403 218.954 213.013 218.353C211.016 215.333 208.434 212.833 205.609 210.592C202.67 208.254 199.634 206.013 197.263 203.042C197.279 202.993 197.133 202.977 196.89 202.895Z" fill="#010101"/>
<path d="M161.491 102.257C162.026 104.14 162.481 105.748 162.919 107.355C163.049 107.794 163.195 108.248 163.228 108.703C163.293 109.612 162.919 110.132 162.043 110.343C161.604 110.457 161.133 110.457 160.662 110.457C154.119 110.457 147.591 110.457 141.048 110.457C140.934 110.457 140.82 110.457 140.707 110.457C138.58 110.392 138.076 109.677 138.645 107.566C138.986 106.349 139.343 105.114 139.7 103.897C139.846 103.393 140.041 102.922 139.976 102.37C139.294 102.159 138.596 102.289 137.914 102.257C137.118 102.208 136.29 102.338 135.641 101.672C135.284 101.315 134.764 101.461 134.309 101.445C132.458 101.396 130.607 101.38 128.756 101.331C128.302 101.315 127.831 101.315 127.376 101.201C126.288 100.958 125.85 100.146 126.272 99.1229C126.418 98.7495 126.662 98.4085 126.873 98.0675C129.292 94.1868 131.663 90.2898 134.147 86.4578C134.943 85.24 135.3 84.0222 135.251 82.5609C134.91 69.8471 138.417 58.1237 144.474 47.0661C145.692 44.8254 147.137 42.7308 148.89 40.8472C150.433 39.191 151.229 39.1748 152.739 40.7985C154.768 42.9743 156.36 45.4586 157.756 48.0566C162.53 56.9871 165.517 66.4697 166.313 76.5855C166.475 78.6639 166.443 80.7423 166.41 82.8369C166.394 84.0385 166.654 85.0614 167.32 86.0844C169.885 90.0787 172.353 94.1218 174.87 98.1487C175 98.3435 175.13 98.5384 175.244 98.7332C175.942 100.081 175.503 100.99 174.026 101.234C173.636 101.299 173.214 101.299 172.808 101.315C171.071 101.347 169.333 101.38 167.596 101.412C166.914 101.429 166.232 101.331 165.647 101.916C165.258 102.305 164.673 102.208 164.154 102.224C163.325 102.273 162.53 102.257 161.491 102.257Z" fill="black"/>
<path d="M134.312 247.792C132.055 247.792 129.879 247.776 127.687 247.808C126.599 247.824 126.55 247.029 126.372 246.298C125.544 242.872 124.732 239.43 123.92 236.004C123.741 235.273 123.514 234.558 123.335 233.828C123.011 232.545 123.027 232.545 124.228 232.107C125.04 231.798 125.852 231.506 126.648 231.181C127.248 230.937 127.638 230.499 127.297 229.833C127.005 229.233 126.453 229.33 125.933 229.509C125.332 229.72 124.732 229.931 124.147 230.191C121.988 231.1 119.714 231.506 117.376 231.473C116.646 231.473 115.931 231.603 115.411 230.775C115.071 230.239 114.437 230.467 114.129 230.986C113.901 231.376 113.788 231.847 113.658 232.285C112.213 237.043 110.768 241.8 109.339 246.558C109.176 247.126 109.095 247.678 108.283 247.678C105.572 247.662 102.86 247.662 100.165 247.662C99.9698 247.159 100.376 246.899 100.603 246.606C101.123 245.925 101.269 245.178 101.334 244.333C101.772 238.796 102.243 233.259 102.698 227.722C102.746 227.138 102.714 226.683 103.607 226.618C104.419 226.57 104.581 226.083 104.159 225.222C103.558 223.955 103.087 222.656 102.714 221.325C102.243 219.685 102.081 218.029 102.292 216.34C103.006 210.43 103.639 204.503 104.646 198.625C104.841 197.489 104.841 196.32 105.182 195.167C110.524 195.086 115.882 195.004 121.224 194.907C122.02 194.891 122.621 195.183 123.303 195.524C129.018 198.447 134.799 201.223 141.034 202.896C142.365 203.253 143.616 203.513 144.639 202.246C144.736 202.133 144.947 202.116 145.191 202.019C145.499 202.603 145.077 203.123 145.077 203.643C145.061 205.77 146.506 206.825 148.503 206.127C148.909 205.981 149.364 205.51 149.705 206.111C150.046 206.695 149.818 207.215 149.201 207.523C149.039 207.604 148.828 207.621 148.73 207.734C147.464 209.277 145.629 209.05 143.973 209.179C139.556 209.504 135.189 208.952 130.886 207.994C126.372 206.987 121.923 205.721 117.668 203.87C117.506 203.805 117.36 203.724 117.181 203.675C116.694 203.561 116.223 203.626 116.029 204.162C115.85 204.617 116.126 204.958 116.499 205.169C117.165 205.51 117.847 205.835 118.545 206.111C123.059 207.929 127.703 209.326 132.477 210.219C133.013 210.316 133.5 210.365 133.484 211.095C133.402 214.44 133.743 217.802 133.256 221.146C133.24 221.26 133.256 221.39 133.208 221.487C132.136 223.501 132.623 225.66 132.623 227.771C132.591 233.097 132.656 238.423 132.639 243.749C132.639 244.902 132.688 245.941 133.825 246.606C134.133 246.818 134.328 247.142 134.312 247.792Z" fill="white"/>
<path d="M164.675 247.678C164.577 246.996 164.983 246.541 165.454 246.233C166.25 245.697 166.331 244.983 166.331 244.122C166.331 238.277 166.347 232.431 166.363 226.586C166.363 225.839 166.233 225.092 166.558 224.361C166.786 223.842 166.477 223.338 166.282 222.867C165.73 221.503 165.552 220.091 165.552 218.629C165.535 211.972 165.568 205.315 166.38 198.706C166.477 197.846 166.656 197.001 166.932 196.173C167.175 195.459 167.646 195.215 168.247 195.426C169.448 195.849 170.52 195.654 171.527 194.955C172.063 194.582 172.647 194.679 173.199 194.679C176.431 194.696 179.678 194.777 182.909 194.874C186.205 194.955 189.502 195.037 192.798 195.053C193.22 195.053 193.821 194.712 193.951 195.394C194.064 195.962 194.47 196.693 193.821 197.131C192.976 197.7 193.171 198.398 193.415 199.112C194.909 203.577 195.753 208.173 196.305 212.833C196.5 214.521 196.451 216.194 196.354 217.85C196.272 218.987 196.126 220.513 194.259 220.383C193.951 220.367 193.756 220.659 193.61 220.903C193.22 221.536 192.846 221.812 192.132 221.26C191.71 220.919 191.255 221.227 190.963 221.65C190.736 221.974 190.671 222.413 190.265 222.624C189.68 222.461 189.907 221.974 189.907 221.633C189.94 220.773 190.07 219.912 190.119 219.052C190.167 218.224 189.729 217.883 188.933 218.077C188.657 218.142 188.397 218.288 188.138 218.418C187.878 218.548 187.634 218.711 187.277 218.483C187.553 217.428 188.235 216.567 188.885 215.723C189.29 215.203 189.566 214.716 189.404 213.986C188.381 209.39 186.904 204.974 184.436 200.931C184.192 200.541 183.916 200.168 183.591 199.843C183.331 199.567 182.99 199.534 182.649 199.762C182.308 199.989 182.211 200.33 182.341 200.671C182.455 200.996 182.666 201.288 182.844 201.58C185.117 205.266 186.368 209.342 187.423 213.498C187.602 214.229 187.504 214.83 187.001 215.431C186.449 216.096 185.994 216.843 185.702 217.671C185.036 219.49 185.653 220.383 187.618 220.464C187.78 220.464 187.959 220.383 188.186 220.74C188.186 221.244 188.105 221.942 188.203 222.608C188.462 224.475 189.907 225.108 191.45 224.069C191.499 224.036 191.531 223.972 191.58 223.955C193.074 223.712 194.373 222.965 195.834 222.088C195.867 223.306 195.314 224.069 194.974 224.897C194.503 226.001 194.584 226.293 195.769 226.537C196.435 226.667 196.273 227.089 196.305 227.414C196.5 229.314 196.662 231.213 196.825 233.113C197.117 236.685 197.458 240.258 197.669 243.83C197.75 245.242 198.335 246.363 199.082 247.402C198.903 247.954 198.497 247.824 198.188 247.824C195.867 247.84 193.561 247.808 191.239 247.857C190.395 247.873 190.054 247.581 189.81 246.769C188.381 241.881 186.904 237.026 185.426 232.155C185.345 231.879 185.28 231.587 185.166 231.327C184.728 230.255 184.273 230.093 183.413 230.889C183.007 231.262 182.633 231.311 182.179 231.311C179.792 231.295 177.437 231.116 175.213 230.158C174.466 229.833 173.703 229.59 172.939 229.314C172.355 229.119 171.884 229.265 171.673 229.866C171.478 230.418 171.835 230.775 172.274 230.97C173.232 231.376 174.19 231.782 175.196 232.074C175.943 232.285 176.025 232.61 175.846 233.324C175.002 236.507 174.222 239.705 173.427 242.904C173.134 244.09 172.842 245.259 172.631 246.46C172.485 247.288 172.095 247.71 171.267 247.71C169.059 247.678 166.867 247.678 164.675 247.678Z" fill="white"/>
<path d="M114.21 134.162C114.649 134.341 115.217 134.52 115.461 134.049C115.883 133.253 116.581 133.269 117.247 133.269C120.348 133.334 123.157 134.325 125.593 136.225C126.859 137.215 127.557 138.628 128.045 140.138C128.645 142.038 128.759 144.002 128.905 145.951C128.986 146.941 128.499 147.298 127.46 147.104C125.739 146.779 125.073 147.185 124.651 148.971C124.537 149.442 124.391 149.685 123.92 149.75C122.865 149.88 122.248 150.497 122.102 151.536C121.923 152.803 122.394 153.956 123.482 154.492C124.537 154.995 125.008 155.774 125.414 156.749C125.609 157.219 125.934 157.658 126.258 158.048C126.957 158.908 127.752 159.558 129.181 158.713C129.295 169.219 130.155 179.432 131.276 189.532C130.578 190.035 130.074 189.694 129.571 189.678C129.165 189.662 128.694 189.499 128.385 189.743C127.151 190.636 126.047 189.97 124.846 189.613C120.429 188.281 116.029 186.901 111.515 185.878C110.037 185.537 108.544 185.359 107.033 185.505C106.108 185.602 105.832 185.278 105.816 184.384C105.783 181.202 105.621 178.019 105.621 174.837C105.605 166.394 105.166 157.95 104.712 149.523C104.565 146.811 104.598 144.083 105.134 141.404C105.264 140.739 105.28 140.04 106.287 140.008C106.774 139.992 106.92 139.407 106.887 138.904C106.839 138.043 106.822 137.166 106.757 136.306C106.481 132.604 106.595 128.902 107.196 125.232C107.374 124.095 107.634 122.975 108.414 121.903C109.81 124.079 111.012 126.222 111.791 128.577C111.97 128.934 111.953 129.243 111.531 129.421C110.671 129.226 110.541 128.382 110.102 127.797C109.631 127.18 109.274 127.262 109.014 127.96C108.852 128.398 108.771 128.853 108.738 129.308C108.576 131.548 109.079 133.757 109.209 135.981C109.274 137.036 109.778 137.507 110.703 136.533C111.418 135.786 112.359 135.299 113.155 134.65C113.48 134.422 113.707 133.984 114.21 134.162Z" fill="white"/>
<path d="M187.778 127.181C188.265 125.135 189.629 123.56 190.636 121.595C191.967 123.901 192.081 126.223 192.259 128.496C192.503 131.727 192.405 134.975 192.178 138.206C192.129 138.985 191.967 139.765 193.12 139.846C193.672 139.878 193.688 140.333 193.769 140.723C194.094 142.249 194.321 143.792 194.37 145.367C194.516 149.361 194.11 153.355 193.883 157.334C193.656 161.49 193.607 165.663 193.428 169.82C193.234 174.334 193.266 178.848 193.201 183.362C193.201 183.654 193.185 183.946 193.185 184.222C193.185 184.969 192.99 185.359 192.081 185.294C188.963 185.099 186.024 185.927 183.085 186.837C179.562 187.941 175.925 188.672 172.466 190.052C172.19 190.165 171.93 190.23 171.654 190.019C170.566 189.191 169.365 189.402 168.082 189.792C167.757 188.412 167.903 187.096 168.05 185.814C169.072 177.419 169.641 168.992 169.771 160.549C169.787 159.98 169.738 159.396 169.982 158.779C171.898 159.363 172.791 158.129 173.473 156.749C173.992 155.71 174.496 154.817 175.632 154.232C176.753 153.664 177.191 152.105 176.85 151.066C176.607 150.287 176.071 149.734 175.291 149.605C174.609 149.491 174.382 149.264 174.268 148.549C174.057 147.104 173.148 146.617 171.606 146.958C170.599 147.169 170.014 146.893 170.079 146.049C170.258 143.288 170.371 140.495 171.833 137.995C173.343 135.381 175.908 134.325 178.604 133.546C179.708 133.221 180.877 133.075 182.046 133.156C182.598 133.205 183.134 133.14 183.491 133.822C183.865 134.52 184.465 134.195 184.969 133.838C185.131 133.724 185.294 133.708 185.456 133.822C186.317 134.845 187.404 135.592 188.411 136.452C189.158 137.086 189.613 136.988 189.775 135.949C190.23 133.026 190.311 130.12 189.856 127.197C189.678 126.856 189.45 126.694 189.109 127.018C188.752 127.392 188.606 128.009 187.94 128.041C187.599 127.814 187.615 127.522 187.778 127.181Z" fill="white"/>
<path d="M102.629 192.845C102.564 193.706 102.109 194.177 101.752 194.648C99.9332 197.132 97.7898 199.308 95.3218 201.159C95.0944 201.337 94.8347 201.483 94.6398 201.695C94.38 201.971 94.2988 202.295 94.5261 202.636C94.7372 202.961 95.0944 203.107 95.4354 202.961C95.8576 202.799 96.2635 202.571 96.637 202.295C98.5855 200.915 100.225 199.194 101.833 197.457C102.223 197.051 102.58 196.596 103.051 196.044C103.294 197.538 102.726 198.609 102.028 199.665C100.144 202.474 97.871 204.926 95.1919 206.988C92.7725 208.871 90.3694 210.771 88.2748 213.028C87.1382 214.262 85.9528 215.464 85.0436 216.876C84.524 217.672 83.8745 217.916 83.0139 217.932C81.1466 217.948 79.5066 217.315 78.0128 216.243C77.3146 215.74 76.6164 215.204 75.9344 214.684C74.5218 213.613 72.9468 212.947 71.1931 212.671C70.9171 212.622 70.6086 212.638 70.4138 212.395C70.3163 211.892 70.706 211.632 70.9496 211.356C73.645 208.141 77.071 206.111 81.1304 205.137C85.1897 204.163 89.1516 202.912 92.74 200.72C96.2148 198.593 99.4785 196.239 102.109 193.073C102.141 193.008 102.271 192.991 102.629 192.845Z" fill="#31C57F"/>
<path d="M195.848 195.686C197.341 197.57 198.819 199.015 200.329 200.444C201.044 201.126 201.791 201.759 202.619 202.295C203.187 202.652 203.869 203.285 204.437 202.522C205.054 201.694 204.161 201.337 203.642 200.931C201.19 199.063 199.046 196.888 197.228 194.403C196.708 193.705 196.724 193.673 196.595 192.422C198.023 194.338 199.663 195.686 201.287 197.05C206.24 201.191 211.955 203.61 218.19 205.071C222.201 205.997 226.098 208.189 228.728 212.118C228.777 212.264 228.712 212.329 228.566 212.362C225.887 212.703 223.646 213.953 221.632 215.658C220.22 216.843 218.612 217.59 216.778 217.769C215.576 217.882 214.65 217.59 213.839 216.486C211.663 213.482 209.049 210.852 206.077 208.595C202.7 206.029 199.534 203.269 197.147 199.697C196.383 198.56 195.848 197.407 195.848 195.686Z" fill="#31C57F"/>
<path d="M151.459 207.605C152.4 205.705 150.728 204.844 150.208 203.594C150.046 203.204 149.51 203.22 149.12 203.464C148.828 203.643 148.617 203.935 148.341 204.13C147.984 204.39 147.627 204.828 147.14 204.422C146.734 204.081 146.863 203.578 146.977 203.139C147.286 202.035 148.244 201.321 149.348 201.678C151.215 202.295 152.871 201.727 154.576 201.175C157.759 200.119 160.698 198.495 163.669 196.985C164.01 196.807 164.319 196.514 164.773 196.547C164.562 198.836 164.335 201.126 164.124 203.415C164.059 204.065 164.01 204.617 163.263 204.942C159.577 206.517 155.81 207.653 151.459 207.605Z" fill="#FCFCFC"/>
<path d="M195.04 189.386C194.731 189.289 194.52 189.207 194.309 189.142C193.806 188.996 193.367 189.078 193.156 189.597C192.994 190.036 193.286 190.36 193.611 190.62C193.66 190.653 193.708 190.685 193.757 190.717C194.26 191.075 194.991 191.335 194.78 192.13C194.585 192.942 193.773 193.039 193.124 193.169C192.458 193.299 191.744 193.299 191.045 193.251C185.557 192.796 180.069 192.958 174.581 192.91C174.467 192.91 174.337 192.942 174.24 192.91C173.769 192.763 172.973 193.397 172.86 192.422C172.762 191.594 173.574 191.659 174.077 191.481C175.214 191.075 176.367 190.669 177.536 190.377C181.449 189.37 185.249 187.957 189.243 187.226C190.737 186.95 192.231 186.918 193.708 187.308C194.634 187.567 195.218 188.12 195.04 189.386Z" fill="#31C57F"/>
<path d="M104.078 189.354C104.159 188.006 104.435 187.6 105.653 187.389C107.033 187.162 108.446 187.081 109.794 187.389C115.087 188.591 120.299 190.052 125.43 191.806C125.641 191.887 125.869 191.952 126.063 192.065C126.291 192.212 126.275 192.471 126.242 192.699C126.21 192.942 126.047 193.121 125.787 193.121C125.203 193.105 124.635 193.056 124.05 193.056C118.562 193.088 113.074 193.04 107.602 193.462C106.725 193.527 105.864 193.429 105.052 193.072C104.013 192.618 103.9 192 104.728 191.254C104.939 191.059 105.198 190.929 105.442 190.766C105.799 190.507 106.027 190.149 105.848 189.727C105.637 189.208 105.231 189.094 104.711 189.321C104.517 189.419 104.305 189.532 104.078 189.354Z" fill="#31C57F"/>
<path d="M129.649 149.507C129.827 149.848 129.762 150.238 130.201 150.514C131.061 151.034 131.207 151.927 130.672 152.592C130.217 153.144 129.535 153.096 128.723 152.446C127.863 151.748 127.863 151.748 127.116 152.625C126.888 152.885 126.694 153.193 126.434 153.388C125.346 154.216 123.982 153.81 123.446 152.544C123.251 152.073 123.219 151.651 123.56 151.261C123.868 150.904 124.274 150.855 124.664 150.985C125.054 151.115 125.427 151.326 125.833 151.212C126.369 151.066 126.888 150.855 126.271 150.189C126.466 149.459 127.164 149.524 127.684 149.312C127.992 149.735 128.382 149.41 128.739 149.442C129.048 149.231 129.356 149.199 129.649 149.507Z" fill="#F8F9F9"/>
<path d="M172.499 150.547C172.921 151.277 173.538 151.083 174.171 150.904C174.674 150.758 175.259 150.66 175.568 151.196C175.925 151.813 175.697 152.43 175.259 152.95C174.528 153.827 173.392 153.924 172.515 153.161C172.223 152.901 172.028 152.528 171.768 152.219C171.362 151.765 170.907 151.635 170.453 152.138C170.258 152.349 170.112 152.593 169.82 152.69C169.219 152.917 168.699 152.901 168.309 152.317C167.904 151.7 167.952 150.855 168.472 150.466C168.732 150.271 169.121 150.238 169.284 149.881C169.543 149.378 170.501 148.874 169.219 148.42C168.926 148.322 169.089 147.997 169.267 147.868C169.462 147.705 169.706 147.754 169.836 147.997C169.917 148.144 170.031 148.322 170.014 148.468C169.933 149.686 170.745 149.524 171.508 149.459C171.638 149.524 171.752 149.605 171.865 149.702C172.125 149.93 172.32 150.238 172.499 150.547Z" fill="#F6F7F7"/>
<path d="M135.316 221.52C135.316 220.156 135.332 218.971 135.316 217.785C135.267 215.707 135.202 213.645 135.154 211.566C135.154 211.242 135.073 210.787 135.543 210.754C135.949 210.722 136.323 210.917 136.404 211.42C136.518 212.167 136.664 212.898 136.761 213.628C136.907 214.716 137.086 215.723 138.109 216.454C138.791 216.941 138.677 217.379 137.833 217.558C136.891 217.769 136.696 218.159 136.81 219.133C136.924 220.091 136.372 220.935 135.316 221.52Z" fill="#F8F8F8"/>
<path d="M176.158 132.426C175.346 130.282 174.892 128.171 173.869 126.288C173.43 125.476 173.414 125.476 172.131 125.59C172.099 124.551 172.18 123.528 172.635 122.472C173.609 123.187 174.242 124.112 174.827 125.086C175.898 126.872 176.727 128.788 177.457 130.737C177.879 131.841 177.863 131.841 176.727 132.263C176.564 132.296 176.402 132.344 176.158 132.426Z" fill="#F3F4F4"/>
<path d="M125.608 125.833C124.471 127.392 124.033 129.259 123.432 131.029C122.864 132.669 122.88 132.669 121.191 131.938C122.474 128.642 123.643 125.314 126.209 122.732C126.81 122.911 126.615 123.414 126.761 123.755C126.923 124.112 126.777 124.534 126.972 124.875C126.972 125.2 126.972 125.509 126.972 125.833C126.907 126.028 126.81 126.044 126.68 125.898L126.663 125.882C126.322 125.573 125.965 125.638 125.608 125.833Z" fill="#F5F6F6"/>
<path d="M201.145 221.39C199.684 220.886 199.7 220.886 198.774 222.218C198.58 222.494 198.417 222.819 197.946 222.721C197.8 222.007 198.19 221.39 198.336 220.74C198.628 219.49 198.644 218.223 198.677 216.957C198.693 216.145 199.083 215.966 199.749 216.405C201.324 217.411 201.924 219.555 201.145 221.39Z" fill="#F4F5F5"/>
<path d="M100.327 216.243C100.262 218.613 100.57 220.757 101.236 222.851C100.619 223.046 100.44 222.608 100.197 222.251C99.3525 220.968 99.3363 220.984 97.9236 221.633C96.9169 219.458 97.7937 217.249 100.327 216.243Z" fill="#F6F6F6"/>
<path d="M132.993 198.073C130.785 197.261 128.626 196.287 126.434 195.183C127.002 194.696 127.359 195.037 127.749 195.264C128.528 195.719 129.373 195.8 130.266 195.686C132.279 195.426 132.295 195.443 132.961 197.31C133.026 197.521 133.188 197.716 132.993 198.073Z" fill="#DEE2E2"/>
<path d="M173.571 133.725C173.133 131.987 173.392 130.364 173.441 128.724C174.22 129.909 174.659 131.24 174.919 132.604C175.065 133.368 174.188 133.4 173.571 133.725Z" fill="#F4F5F5"/>
<path d="M169.949 191.318C170.68 191.318 171.085 191.74 171.069 192.503C171.069 193.234 170.403 193.851 169.592 193.883C168.975 193.9 168.552 193.38 168.52 192.601C168.504 191.74 168.975 191.318 169.949 191.318Z" fill="#31C57F"/>
<path d="M130.509 192.747C130.461 193.332 130.396 193.965 129.535 194.013C128.74 194.062 128.058 193.494 128.009 192.763C127.96 191.935 128.269 191.562 129.016 191.529C130.039 191.464 130.493 191.805 130.509 192.747Z" fill="#31C57F"/>
<path d="M125.573 133.936C123.9 133.14 123.884 133.14 124.29 131.857C124.615 130.851 125.004 129.876 125.573 128.935C125.573 130.526 125.573 132.133 125.573 133.936Z" fill="#EAEBEB"/>
<path d="M187.781 127.181C187.879 127.44 187.83 127.781 188.138 127.928C188.625 129.681 187.148 130.818 186.758 132.312C186.596 132.945 186.336 133.773 185.41 133.854C185.264 133.838 185.134 133.838 184.988 133.822C185.881 131.597 186.628 129.308 187.781 127.181Z" fill="#D8D8D8"/>
<path d="M114.21 134.163C113.983 134.406 113.739 134.65 113.512 134.894C112.635 133.481 112.05 131.922 111.336 130.428C111.157 130.071 111.076 129.649 111.433 129.308C111.758 129.162 111.677 128.805 111.791 128.561C112.797 130.347 113.349 132.328 114.21 134.163Z" fill="#C6C9C9"/>
<path d="M127.669 149.313C127.409 149.751 127.23 150.254 126.532 149.832C126.191 149.621 126.256 149.995 126.256 150.189C126.126 150.076 125.931 149.995 125.866 149.865C125.477 149.037 125.639 148.387 126.272 148.144C126.954 147.9 127.376 148.257 127.669 149.313Z" fill="#100404"/>
<path d="M170.617 156.18C170.016 155.775 170.13 155.125 169.903 154.605C169.708 154.167 170 154.005 170.325 153.826C170.714 153.615 171.055 153.534 171.396 153.907C171.624 154.167 171.981 154.362 171.721 154.768C171.396 155.271 171.218 155.904 170.617 156.18Z" fill="#E48172"/>
<path d="M126.57 154.8C126.667 154.963 126.765 155.093 126.846 155.239C127.235 155.921 127.43 156.733 128.421 156.846C128.778 156.895 128.518 157.187 128.437 157.366C128.323 157.626 128.128 157.869 127.804 157.82C127.284 157.739 125.969 155.742 126.099 155.206C126.148 155.06 126.342 154.979 126.57 154.8Z" fill="#D2D7D7"/>
<path d="M166.072 190.263C166.737 190.637 167.062 191.026 166.9 191.708C166.819 192.033 166.835 192.39 166.786 192.731C166.754 193.024 167.111 193.494 166.543 193.543C166.055 193.576 165.844 193.235 165.909 192.747C165.958 192.358 166.169 191.984 166.023 191.562C165.893 191.172 165.796 190.783 166.072 190.263Z" fill="#31C57F"/>
<path d="M128.204 156.002C127.701 155.84 127.603 155.353 127.392 154.963C127.132 154.508 127.457 154.232 127.733 153.956C128.042 153.648 128.334 153.826 128.642 153.973C129.129 154.2 128.853 154.525 128.789 154.833C128.724 155.272 128.561 155.694 128.204 156.002Z" fill="#E48172"/>
<path d="M132.234 192.406C132.266 191.903 131.958 191.383 132.347 190.912C132.477 190.75 132.575 190.474 132.851 190.539C133.111 190.604 133.208 190.831 133.127 191.059C132.948 191.676 132.867 192.276 133.094 192.91C133.241 193.316 132.997 193.608 132.607 193.624C132.055 193.657 132.218 193.202 132.201 192.893C132.218 192.747 132.234 192.585 132.234 192.406Z" fill="#31C57F"/>
<path d="M172.923 154.557C172.825 156.035 172.225 156.863 171.38 157.561C171.185 157.723 170.942 157.675 170.796 157.447C170.682 157.269 170.763 157.106 170.909 157.009C171.721 156.473 172.127 155.548 172.923 154.557Z" fill="#BBBCBC"/>
<path d="M129.652 149.507C129.327 149.654 129.035 149.507 128.727 149.426C128.824 149.037 128.889 148.647 129.003 148.273C129.084 147.981 129.295 147.754 129.62 147.802C129.912 147.851 130.107 148.111 130.155 148.387C130.237 148.858 130.204 149.313 129.652 149.507Z" fill="#747777"/>
<path d="M171.465 149.248C171.497 149.037 171.465 148.793 171.562 148.598C171.773 148.127 172.179 147.932 172.666 148.062C173.024 148.16 173.235 148.436 173.235 148.809C173.251 149.313 173.316 149.881 172.536 149.848C172.196 149.605 171.887 149.329 171.465 149.248Z" fill="#ABB4B4"/>
<path d="M126.68 125.866C126.761 125.785 126.875 125.768 126.972 125.801C127.216 127.408 126.939 129 126.68 130.607C126.68 129.032 126.68 127.457 126.68 125.866Z" fill="#706D6D"/>
<path d="M171.463 149.247C171.771 149.085 172.015 148.63 172.421 148.939C172.746 149.166 172.518 149.54 172.518 149.848L172.551 149.832C172.194 150.059 171.853 150.157 171.544 149.767C171.495 149.67 171.479 149.572 171.495 149.458C171.447 149.393 171.447 149.329 171.463 149.247Z" fill="#1D1414"/>
<path d="M171.543 149.751C171.884 149.767 172.225 149.8 172.55 149.816C172.663 150.059 172.566 150.303 172.485 150.53C172.192 150.271 171.689 150.238 171.543 149.751Z" fill="#ABB4B4"/>
<path d="M125.605 125.833C125.979 125.265 126.32 125.378 126.661 125.866C126.304 125.849 125.963 125.833 125.605 125.833Z" fill="#706D6D"/>
<path d="M126.967 124.859C126.708 124.518 126.626 124.145 126.756 123.739C127.081 124.064 127.113 124.453 126.967 124.859Z" fill="#706D6D"/>
<path d="M150.887 41.4155C152.803 43.4614 154.345 45.7671 155.677 48.1865C160.499 56.8897 163.487 66.1449 164.575 75.9685C164.884 78.7613 164.607 81.5704 164.689 84.3794C164.819 89.3805 164.802 94.3816 164.851 99.3827C164.867 100.909 164.867 100.941 163.357 100.925C154.995 100.795 146.633 100.795 138.287 100.925C136.793 100.941 136.793 100.909 136.793 99.3827C136.842 92.4981 136.825 85.5972 136.955 78.7126C137.069 72.0066 138.725 65.5442 140.982 59.2441C143.044 53.4636 145.61 47.8942 149.458 42.9743C149.864 42.4222 150.221 41.8539 150.887 41.4155Z" fill="white"/>
<path d="M161.522 108.914C154.361 108.914 147.347 108.914 140.219 108.914C140.479 106.949 141.242 105.147 141.696 103.28C141.842 102.712 142.232 102.549 142.752 102.582C143.093 102.598 143.434 102.582 143.758 102.582C148.419 102.695 153.095 102.695 157.755 102.582C159.736 102.533 159.736 102.565 160.304 104.53C160.71 105.975 161.1 107.404 161.522 108.914Z" fill="#FBFBFB"/>
<path d="M173.571 99.6912C171.282 99.6912 169.447 99.6749 167.596 99.6912C166.865 99.6912 166.508 99.4314 166.508 98.652C166.524 95.2422 166.508 91.8161 166.524 88.4062C168.797 92.0596 171.054 95.6481 173.571 99.6912Z" fill="#F4F4F4"/>
<path d="M127.996 99.6911C130.383 95.8591 132.543 92.3843 134.686 88.942C135.725 86.7013 135.222 89.7052 135.222 90.0624C135.287 92.6279 135.303 95.2096 135.319 97.7751C135.335 99.6262 135.319 99.6424 133.371 99.6749C131.747 99.7236 130.123 99.6911 127.996 99.6911Z" fill="#F4F4F4"/>
<path d="M110.375 146.974C110.375 146.877 110.375 146.584 110.408 146.292C110.749 143.954 111.398 143.548 113.606 144.262C115.961 145.026 118.331 145.789 120.686 146.552C121.075 146.682 121.465 146.779 121.806 146.974C122.31 147.266 122.407 147.9 121.855 148.013C121.092 148.176 121.043 148.695 120.848 149.199C119.825 151.797 117.471 153.242 115.019 152.787C112.259 152.3 110.359 150.01 110.375 146.974Z" fill="#010101"/>
<path d="M111.417 129.325C111.823 130.64 112.424 131.874 113.041 133.108C113.333 133.676 113.625 134.244 113.512 134.91C112.391 135.722 111.32 136.566 110.329 137.541C109.582 138.288 109.046 138.141 108.9 137.183C108.478 134.342 108.17 131.484 108.364 128.594C108.364 128.48 108.381 128.367 108.413 128.253C108.608 127.636 108.446 126.743 109.355 126.597C110.199 126.467 110.264 127.327 110.589 127.831C110.897 128.302 111.141 128.821 111.417 129.325Z" fill="#090909"/>
<path d="M188.629 147.104C188.612 149.832 186.777 152.121 184.244 152.592C181.614 153.079 179.211 151.715 178.204 149.085C177.993 148.533 177.896 148.078 177.197 147.867C176.613 147.689 176.71 147.153 177.181 146.812C177.409 146.649 177.701 146.568 177.977 146.487C180.721 145.61 183.465 144.717 186.209 143.857C187.459 143.467 187.671 143.564 188.19 144.733C188.547 145.497 188.645 146.016 188.629 147.104Z" fill="#010101"/>
<path d="M185.413 133.855C186.582 132.004 187.378 129.974 188.141 127.944C188.401 127.506 188.661 127.084 188.904 126.645C189.326 126.223 189.765 126.321 190.203 126.597C190.69 127.62 190.674 128.724 190.674 129.812C190.674 132.101 190.512 134.391 190.219 136.68C190.171 137.086 190.138 137.541 189.732 137.719C189.229 137.947 188.856 137.589 188.547 137.248C187.784 136.453 186.972 135.738 186.046 135.154C185.576 134.845 185.348 134.439 185.413 133.855Z" fill="#060606"/>
<path d="M190.233 126.597C189.794 126.434 189.356 126.434 188.934 126.645C189.323 125.947 189.762 125.963 190.233 126.597Z" fill="#D8D8D8"/>
<path d="M150.614 68.9865C147.155 69.019 144.427 66.3561 144.395 62.8975C144.362 59.3741 147.074 56.6462 150.63 56.63C154.007 56.6137 156.784 59.3903 156.816 62.8164C156.849 66.21 154.072 68.9541 150.614 68.9865Z" fill="url(#paint1_linear)"/>
<path d="M147.415 76.1631C147.447 74.2958 148.876 72.8507 150.711 72.8507C152.643 72.8345 154.137 74.3121 154.137 76.2281C154.137 78.1603 152.659 79.6541 150.743 79.6379C148.827 79.6217 147.382 78.1116 147.415 76.1631Z" fill="url(#paint2_linear)"/>
<path d="M118.022 147.299C118.704 147.332 119.175 147.9 119.094 148.598C119.013 149.296 118.574 149.621 117.925 149.654C117.275 149.702 116.707 149.069 116.74 148.436C116.772 147.786 117.34 147.283 118.022 147.299Z" fill="#EEF0F0"/>
<path d="M109.923 129.21C110.605 130.688 111.27 132.149 111.952 133.611C112.18 134.082 112.212 134.439 111.725 134.796C111.173 135.202 110.67 135.657 110.134 136.095C109.468 134.569 109.338 130.331 109.923 129.21Z" fill="#F3F3F3"/>
<path d="M181.856 148.387C181.823 149.004 181.206 149.556 180.589 149.507C179.956 149.459 179.452 148.842 179.517 148.208C179.599 147.526 180.053 147.218 180.67 147.169C181.271 147.137 181.888 147.802 181.856 148.387Z" fill="#E3E7E7"/>
<path d="M189.161 135.884C188.918 135.868 188.853 135.884 188.82 135.852C188.171 135.283 187.245 134.829 186.953 134.131C186.677 133.465 187.521 132.718 187.797 131.971C188.187 130.916 188.642 129.893 189.356 128.983C189.632 131.289 189.502 133.562 189.161 135.884Z" fill="#F0F0F0"/>
<path d="M155.227 62.8C155.227 65.4142 153.246 67.4601 150.697 67.4925C148.067 67.525 145.891 65.4304 145.891 62.8487C145.874 60.2507 148.067 58.1074 150.664 58.1561C153.246 58.2048 155.227 60.2182 155.227 62.8Z" fill="#FCFCFC"/>
<path d="M152.631 76.2446C152.631 77.2513 151.737 78.0957 150.715 78.0632C149.757 78.0469 148.961 77.2676 148.912 76.3096C148.863 75.3028 149.708 74.426 150.731 74.3936C151.754 74.3936 152.631 75.2379 152.631 76.2446Z" fill="#F5F7F7"/>
<path d="M116.742 72.8673C113.77 72.8673 111.367 70.4641 111.367 67.4927C111.367 64.5213 113.77 62.1182 116.742 62.1182C119.713 62.1182 122.116 64.5213 122.116 67.4927C122.116 70.4641 119.697 72.8673 116.742 72.8673ZM116.742 63.7419C114.68 63.7419 112.991 65.4306 112.991 67.4927C112.991 69.5548 114.68 71.2435 116.742 71.2435C118.804 71.2435 120.493 69.5548 120.493 67.4927C120.493 65.4306 118.804 63.7419 116.742 63.7419Z" fill="url(#paint3_linear)"/>
<path d="M202.476 113.087C199.505 113.087 197.102 110.684 197.102 107.712C197.102 104.741 199.505 102.338 202.476 102.338C205.448 102.338 207.851 104.741 207.851 107.712C207.851 110.684 205.431 113.087 202.476 113.087ZM202.476 103.962C200.414 103.962 198.725 105.65 198.725 107.712C198.725 109.775 200.414 111.463 202.476 111.463C204.538 111.463 206.227 109.775 206.227 107.712C206.227 105.65 204.538 103.962 202.476 103.962Z" fill="url(#paint4_linear)"/>
<path d="M73.8785 167.612C70.907 167.612 68.5039 165.209 68.5039 162.237C68.5039 159.266 70.907 156.863 73.8785 156.863C76.8499 156.863 79.253 159.266 79.253 162.237C79.253 165.209 76.8336 167.612 73.8785 167.612ZM73.8785 158.487C71.8163 158.487 70.1276 160.175 70.1276 162.237C70.1276 164.299 71.8163 165.988 73.8785 165.988C75.9406 165.988 77.6293 164.299 77.6293 162.237C77.6293 160.175 75.9406 158.487 73.8785 158.487Z" fill="url(#paint5_linear)"/>
<path d="M90.6142 106.901C89.9322 106.901 89.2665 106.641 88.6495 106.121C88.3085 105.845 87.7889 105.878 87.5129 106.235C87.2206 106.576 87.2693 107.096 87.6265 107.372C87.7727 107.485 87.9188 107.599 88.0649 107.696C86.8471 108.508 85.8567 109.888 85.2072 111.61C84.5577 109.872 83.5672 108.508 82.3656 107.696C83.5834 106.884 84.5739 105.504 85.2234 103.767C85.402 104.254 85.6131 104.725 85.8567 105.147C86.0677 105.537 86.5711 105.683 86.9608 105.472C87.3505 105.261 87.4966 104.757 87.2855 104.368C86.4737 102.906 86.0353 101.023 86.0353 99.0418C86.0353 98.5872 85.678 98.23 85.2234 98.23C84.7688 98.23 84.4115 98.5872 84.4115 99.0418C84.4115 103.296 82.3007 106.884 79.8001 106.884C79.3455 106.884 78.9883 107.242 78.9883 107.696C78.9883 108.151 79.3455 108.508 79.8001 108.508C82.3007 108.508 84.4115 112.097 84.4115 116.351C84.4115 116.805 84.7688 117.163 85.2234 117.163C85.678 117.163 86.0353 116.805 86.0353 116.351C86.0353 112.097 88.1461 108.508 90.6467 108.508C91.1013 108.508 91.4585 108.151 91.4585 107.696C91.4585 107.242 91.0526 106.901 90.6142 106.901Z" fill="url(#paint6_linear)"/>
<path d="M226.442 151.878C225.76 151.878 225.095 151.618 224.478 151.098C224.137 150.822 223.617 150.855 223.341 151.212C223.049 151.553 223.097 152.073 223.455 152.349C223.601 152.462 223.747 152.576 223.893 152.673C222.675 153.485 221.685 154.865 221.035 156.587C220.386 154.849 219.395 153.485 218.194 152.673C219.412 151.862 220.402 150.481 221.052 148.744C221.23 149.231 221.441 149.702 221.685 150.124C221.896 150.514 222.399 150.66 222.789 150.449C223.179 150.238 223.325 149.734 223.114 149.345C222.302 147.883 221.863 146 221.863 144.019C221.863 143.564 221.506 143.207 221.052 143.207C220.597 143.207 220.24 143.564 220.24 144.019C220.24 148.273 218.129 151.862 215.628 151.862C215.174 151.862 214.816 152.219 214.816 152.673C214.816 153.128 215.174 153.485 215.628 153.485C218.129 153.485 220.24 157.074 220.24 161.328C220.24 161.783 220.597 162.14 221.052 162.14C221.506 162.14 221.863 161.783 221.863 161.328C221.863 157.074 223.974 153.485 226.475 153.485C226.929 153.485 227.287 153.128 227.287 152.673C227.287 152.219 226.897 151.878 226.442 151.878Z" fill="url(#paint7_linear)"/>
<defs>
<linearGradient id="paint0_linear" x1="54.0096" y1="177.598" x2="246.99" y2="177.598" gradientUnits="userSpaceOnUse">
<stop stop-color="#7EDCB2"/>
<stop offset="1" stop-color="#92C2DF"/>
</linearGradient>
<linearGradient id="paint1_linear" x1="144.395" y1="62.8196" x2="156.818" y2="62.8196" gradientUnits="userSpaceOnUse">
<stop stop-color="#7EDCB2"/>
<stop offset="1" stop-color="#92C2DF"/>
</linearGradient>
<linearGradient id="paint2_linear" x1="147.417" y1="76.2383" x2="154.142" y2="76.2383" gradientUnits="userSpaceOnUse">
<stop stop-color="#7EDCB2"/>
<stop offset="1" stop-color="#92C2DF"/>
</linearGradient>
<linearGradient id="paint3_linear" x1="111.361" y1="67.4984" x2="122.108" y2="67.4984" gradientUnits="userSpaceOnUse">
<stop stop-color="#7EDCB2"/>
<stop offset="1" stop-color="#92C2DF"/>
</linearGradient>
<linearGradient id="paint4_linear" x1="197.097" y1="107.719" x2="207.845" y2="107.719" gradientUnits="userSpaceOnUse">
<stop stop-color="#7EDCB2"/>
<stop offset="1" stop-color="#92C2DF"/>
</linearGradient>
<linearGradient id="paint5_linear" x1="68.5007" y1="162.233" x2="79.2499" y2="162.233" gradientUnits="userSpaceOnUse">
<stop stop-color="#7EDCB2"/>
<stop offset="1" stop-color="#92C2DF"/>
</linearGradient>
<linearGradient id="paint6_linear" x1="78.9612" y1="107.719" x2="91.4215" y2="107.719" gradientUnits="userSpaceOnUse">
<stop stop-color="#7EDCB2"/>
<stop offset="1" stop-color="#92C2DF"/>
</linearGradient>
<linearGradient id="paint7_linear" x1="214.802" y1="152.693" x2="227.262" y2="152.693" gradientUnits="userSpaceOnUse">
<stop stop-color="#7EDCB2"/>
<stop offset="1" stop-color="#92C2DF"/>
</linearGradient>
</defs>
</svg>
