<svg width="258" height="258" viewBox="0 0 258 258" fill="none" xmlns="http://www.w3.org/2000/svg">
<circle cx="129" cy="129" r="118.672" stroke="url(#paint0_linear_1045_1920)" stroke-opacity="0.3" stroke-width="10.6562"/>
<path d="M129 8.875C195.343 8.875 249.125 62.6568 249.125 129C249.125 195.343 195.343 249.125 129 249.125C62.6568 249.125 8.875 195.343 8.875 129C8.875 98.466 20.2672 70.5929 39.0331 49.3991" stroke="#2DEA8F" stroke-width="16.4688" stroke-linecap="square"/>
<path d="M129 8.875C195.343 8.875 249.125 62.6568 249.125 129C249.125 195.343 195.343 249.125 129 249.125C62.6568 249.125 8.875 195.343 8.875 129C8.875 98.466 20.2672 70.5929 39.0331 49.3991" stroke="url(#paint1_linear_1045_1920)" stroke-width="16.4688" stroke-linecap="square"/>
<path d="M87.2227 128.202C88.1173 133.761 90.9286 136.54 95.6569 136.54C99.3628 136.54 101.951 134.847 103.42 131.461C104.954 128.074 105.656 122.803 105.529 115.647C104.442 118.267 102.558 120.343 99.8739 121.877C97.2542 123.346 94.1873 124.081 90.6731 124.081C84.2836 124.081 79.2359 122.164 75.5299 118.33C71.824 114.433 69.9711 108.874 69.9711 101.654C69.9711 97.1173 70.8976 93.0919 72.7505 89.5777C74.6035 86.0634 77.319 83.3479 80.8971 81.431C84.5391 79.4503 88.884 78.4599 93.9317 78.4599C100.768 78.4599 106.104 79.8976 109.937 82.7728C113.771 85.6481 116.423 89.5776 117.892 94.5615C119.362 99.4814 120.097 105.424 120.097 112.388C120.097 124.656 118.212 133.953 114.442 140.278C110.736 146.54 104.474 149.671 95.6569 149.671C90.8008 149.671 86.6157 148.712 83.1015 146.796C79.6512 144.815 76.9676 142.195 75.0507 138.937C73.1978 135.678 72.1435 132.1 71.8879 128.202H87.2227ZM104.283 102.421C104.283 99.4814 103.452 97.1173 101.791 95.3282C100.13 93.4752 97.7015 92.5488 94.5068 92.5488C91.6315 92.5488 89.3632 93.3475 87.7019 94.9448C86.1046 96.5422 85.3059 98.8744 85.3059 101.941C85.3059 105.008 86.1365 107.372 87.7978 109.034C89.4591 110.631 91.7273 111.43 94.6026 111.43C97.3501 111.43 99.6503 110.663 101.503 109.13C103.356 107.532 104.283 105.296 104.283 102.421ZM129.431 136.54V122.835L160.388 80.3768H178.023V122.26H186.17V136.54H178.023V149H161.443V136.54H129.431ZM162.785 99.3536L146.108 122.26H162.785V99.3536Z" fill="#2DEA8F"/>
<path d="M87.2227 128.202C88.1173 133.761 90.9286 136.54 95.6569 136.54C99.3628 136.54 101.951 134.847 103.42 131.461C104.954 128.074 105.656 122.803 105.529 115.647C104.442 118.267 102.558 120.343 99.8739 121.877C97.2542 123.346 94.1873 124.081 90.6731 124.081C84.2836 124.081 79.2359 122.164 75.5299 118.33C71.824 114.433 69.9711 108.874 69.9711 101.654C69.9711 97.1173 70.8976 93.0919 72.7505 89.5777C74.6035 86.0634 77.319 83.3479 80.8971 81.431C84.5391 79.4503 88.884 78.4599 93.9317 78.4599C100.768 78.4599 106.104 79.8976 109.937 82.7728C113.771 85.6481 116.423 89.5776 117.892 94.5615C119.362 99.4814 120.097 105.424 120.097 112.388C120.097 124.656 118.212 133.953 114.442 140.278C110.736 146.54 104.474 149.671 95.6569 149.671C90.8008 149.671 86.6157 148.712 83.1015 146.796C79.6512 144.815 76.9676 142.195 75.0507 138.937C73.1978 135.678 72.1435 132.1 71.8879 128.202H87.2227ZM104.283 102.421C104.283 99.4814 103.452 97.1173 101.791 95.3282C100.13 93.4752 97.7015 92.5488 94.5068 92.5488C91.6315 92.5488 89.3632 93.3475 87.7019 94.9448C86.1046 96.5422 85.3059 98.8744 85.3059 101.941C85.3059 105.008 86.1365 107.372 87.7978 109.034C89.4591 110.631 91.7273 111.43 94.6026 111.43C97.3501 111.43 99.6503 110.663 101.503 109.13C103.356 107.532 104.283 105.296 104.283 102.421ZM129.431 136.54V122.835L160.388 80.3768H178.023V122.26H186.17V136.54H178.023V149H161.443V136.54H129.431ZM162.785 99.3536L146.108 122.26H162.785V99.3536Z" fill="url(#paint2_linear_1045_1920)"/>
<path d="M76.9827 183.108C76.2697 183.108 75.629 182.984 75.0607 182.737C74.5027 182.478 74.0635 182.127 73.7432 181.683C73.4229 181.228 73.2575 180.706 73.2472 180.117H74.7507C74.8024 180.623 75.009 181.052 75.3707 181.403C75.7427 181.745 76.28 181.915 76.9827 181.915C77.6544 181.915 78.1814 181.75 78.5637 181.419C78.9564 181.078 79.1527 180.644 79.1527 180.117C79.1527 179.704 79.039 179.368 78.8117 179.109C78.5844 178.851 78.3002 178.655 77.9592 178.521C77.6182 178.386 77.1584 178.242 76.5797 178.087C75.8667 177.901 75.2932 177.715 74.8592 177.529C74.4355 177.343 74.0687 177.053 73.7587 176.661C73.459 176.258 73.3092 175.72 73.3092 175.049C73.3092 174.459 73.459 173.938 73.7587 173.483C74.0584 173.028 74.4769 172.677 75.0142 172.429C75.5619 172.181 76.187 172.057 76.8897 172.057C77.9024 172.057 78.729 172.31 79.3697 172.817C80.0207 173.323 80.3875 173.995 80.4702 174.832H78.9202C78.8685 174.418 78.6515 174.057 78.2692 173.747C77.8869 173.426 77.3805 173.266 76.7502 173.266C76.1612 173.266 75.6807 173.421 75.3087 173.731C74.9367 174.031 74.7507 174.454 74.7507 175.002C74.7507 175.395 74.8592 175.715 75.0762 175.963C75.3035 176.211 75.5774 176.402 75.8977 176.537C76.2284 176.66 76.6882 176.805 77.2772 176.97C77.9902 177.167 78.5637 177.363 78.9977 177.56C79.4317 177.746 79.8037 178.04 80.1137 178.443C80.4237 178.836 80.5787 179.373 80.5787 180.055C80.5787 180.582 80.4392 181.078 80.1602 181.543C79.8812 182.008 79.4679 182.385 78.9202 182.674C78.3725 182.964 77.7267 183.108 76.9827 183.108ZM90.9662 178.428C90.9662 178.696 90.9507 178.98 90.9197 179.28H84.1307C84.1824 180.117 84.4666 180.773 84.9832 181.249C85.5102 181.714 86.1457 181.946 86.8897 181.946C87.4994 181.946 88.0057 181.807 88.4087 181.527C88.8221 181.238 89.1114 180.856 89.2767 180.38H90.7957C90.5684 181.197 90.1137 181.863 89.4317 182.38C88.7497 182.886 87.9024 183.139 86.8897 183.139C86.0837 183.139 85.3604 182.959 84.7197 182.597C84.0894 182.235 83.5934 181.724 83.2317 181.063C82.8701 180.391 82.6892 179.616 82.6892 178.738C82.6892 177.859 82.8649 177.089 83.2162 176.428C83.5676 175.767 84.0584 175.26 84.6887 174.909C85.3294 174.547 86.0631 174.366 86.8897 174.366C87.6957 174.366 88.4087 174.542 89.0287 174.894C89.6487 175.245 90.1241 175.731 90.4547 176.351C90.7957 176.96 90.9662 177.653 90.9662 178.428ZM89.5092 178.133C89.5092 177.596 89.3904 177.136 89.1527 176.753C88.9151 176.361 88.5896 176.066 88.1762 175.87C87.7732 175.663 87.3237 175.56 86.8277 175.56C86.1147 175.56 85.5051 175.787 84.9987 176.242C84.5027 176.697 84.2186 177.327 84.1462 178.133H89.5092ZM92.8629 178.738C92.8629 177.859 93.0386 177.095 93.3899 176.444C93.7413 175.782 94.2269 175.271 94.8469 174.909C95.4773 174.547 96.1954 174.366 97.0014 174.366C98.0451 174.366 98.9028 174.62 99.5744 175.126C100.256 175.632 100.706 176.335 100.923 177.234H99.4039C99.2593 176.717 98.9751 176.309 98.5514 176.009C98.1381 175.71 97.6214 175.56 97.0014 175.56C96.1954 175.56 95.5444 175.839 95.0484 176.397C94.5524 176.945 94.3044 177.725 94.3044 178.738C94.3044 179.761 94.5524 180.551 95.0484 181.109C95.5444 181.667 96.1954 181.946 97.0014 181.946C97.6214 181.946 98.1381 181.801 98.5514 181.512C98.9648 181.223 99.2489 180.809 99.4039 180.272H100.923C100.696 181.14 100.241 181.837 99.5589 182.365C98.8769 182.881 98.0244 183.139 97.0014 183.139C96.1954 183.139 95.4773 182.959 94.8469 182.597C94.2269 182.235 93.7413 181.724 93.3899 181.063C93.0386 180.401 92.8629 179.626 92.8629 178.738ZM110.9 174.506V183H109.489V181.745C109.221 182.179 108.843 182.52 108.358 182.768C107.882 183.005 107.355 183.124 106.777 183.124C106.115 183.124 105.521 182.99 104.994 182.721C104.467 182.442 104.049 182.029 103.739 181.481C103.439 180.933 103.289 180.267 103.289 179.482V174.506H104.684V179.296C104.684 180.133 104.896 180.778 105.32 181.233C105.743 181.677 106.322 181.9 107.056 181.9C107.81 181.9 108.404 181.667 108.838 181.202C109.272 180.737 109.489 180.06 109.489 179.172V174.506H110.9ZM115.254 175.886C115.502 175.4 115.853 175.023 116.308 174.754C116.773 174.485 117.336 174.351 117.997 174.351V175.808H117.625C116.044 175.808 115.254 176.666 115.254 178.381V183H113.843V174.506H115.254V175.886ZM120.916 173.127C120.647 173.127 120.42 173.034 120.234 172.848C120.048 172.662 119.955 172.434 119.955 172.165C119.955 171.897 120.048 171.67 120.234 171.484C120.42 171.298 120.647 171.205 120.916 171.205C121.174 171.205 121.391 171.298 121.567 171.484C121.753 171.67 121.846 171.897 121.846 172.165C121.846 172.434 121.753 172.662 121.567 172.848C121.391 173.034 121.174 173.127 120.916 173.127ZM121.598 174.506V183H120.187V174.506H121.598ZM126.284 175.669V180.675C126.284 181.088 126.372 181.383 126.548 181.559C126.723 181.724 127.028 181.806 127.462 181.806H128.501V183H127.23C126.444 183 125.855 182.819 125.463 182.458C125.07 182.096 124.874 181.502 124.874 180.675V175.669H123.773V174.506H124.874V172.367H126.284V174.506H128.501V175.669H126.284ZM138.088 174.506L132.973 186.999H131.516L133.19 182.907L129.764 174.506H131.33L133.996 181.388L136.631 174.506H138.088ZM148.187 183.108C147.474 183.108 146.833 182.984 146.265 182.737C145.707 182.478 145.268 182.127 144.948 181.683C144.627 181.228 144.462 180.706 144.452 180.117H145.955C146.007 180.623 146.213 181.052 146.575 181.403C146.947 181.745 147.484 181.915 148.187 181.915C148.859 181.915 149.386 181.75 149.768 181.419C150.161 181.078 150.357 180.644 150.357 180.117C150.357 179.704 150.243 179.368 150.016 179.109C149.789 178.851 149.505 178.655 149.164 178.521C148.823 178.386 148.363 178.242 147.784 178.087C147.071 177.901 146.498 177.715 146.064 177.529C145.64 177.343 145.273 177.053 144.963 176.661C144.663 176.258 144.514 175.72 144.514 175.049C144.514 174.459 144.663 173.938 144.963 173.483C145.263 173.028 145.681 172.677 146.219 172.429C146.766 172.181 147.391 172.057 148.094 172.057C149.107 172.057 149.933 172.31 150.574 172.817C151.225 173.323 151.592 173.995 151.675 174.832H150.125C150.073 174.418 149.856 174.057 149.474 173.747C149.091 173.426 148.585 173.266 147.955 173.266C147.366 173.266 146.885 173.421 146.513 173.731C146.141 174.031 145.955 174.454 145.955 175.002C145.955 175.395 146.064 175.715 146.281 175.963C146.508 176.211 146.782 176.402 147.102 176.537C147.433 176.66 147.893 176.805 148.482 176.97C149.195 177.167 149.768 177.363 150.202 177.56C150.636 177.746 151.008 178.04 151.318 178.443C151.628 178.836 151.783 179.373 151.783 180.055C151.783 180.582 151.644 181.078 151.365 181.543C151.086 182.008 150.672 182.385 150.125 182.674C149.577 182.964 148.931 183.108 148.187 183.108ZM153.894 178.738C153.894 177.859 154.069 177.095 154.421 176.444C154.772 175.782 155.258 175.271 155.878 174.909C156.508 174.547 157.226 174.366 158.032 174.366C159.076 174.366 159.933 174.62 160.605 175.126C161.287 175.632 161.737 176.335 161.954 177.234H160.435C160.29 176.717 160.006 176.309 159.582 176.009C159.169 175.71 158.652 175.56 158.032 175.56C157.226 175.56 156.575 175.839 156.079 176.397C155.583 176.945 155.335 177.725 155.335 178.738C155.335 179.761 155.583 180.551 156.079 181.109C156.575 181.667 157.226 181.946 158.032 181.946C158.652 181.946 159.169 181.801 159.582 181.512C159.995 181.223 160.28 180.809 160.435 180.272H161.954C161.726 181.14 161.272 181.837 160.59 182.365C159.908 182.881 159.055 183.139 158.032 183.139C157.226 183.139 156.508 182.959 155.878 182.597C155.258 182.235 154.772 181.724 154.421 181.063C154.069 180.401 153.894 179.626 153.894 178.738ZM168.102 183.139C167.306 183.139 166.583 182.959 165.932 182.597C165.291 182.235 164.785 181.724 164.413 181.063C164.051 180.391 163.87 179.616 163.87 178.738C163.87 177.87 164.056 177.105 164.428 176.444C164.811 175.772 165.327 175.26 165.978 174.909C166.629 174.547 167.358 174.366 168.164 174.366C168.97 174.366 169.698 174.547 170.349 174.909C171 175.26 171.512 175.767 171.884 176.428C172.266 177.089 172.457 177.859 172.457 178.738C172.457 179.616 172.261 180.391 171.868 181.063C171.486 181.724 170.964 182.235 170.303 182.597C169.642 182.959 168.908 183.139 168.102 183.139ZM168.102 181.9C168.608 181.9 169.084 181.781 169.528 181.543C169.972 181.305 170.329 180.949 170.597 180.474C170.876 179.998 171.016 179.42 171.016 178.738C171.016 178.056 170.882 177.477 170.613 177.001C170.344 176.526 169.993 176.175 169.559 175.948C169.125 175.71 168.655 175.591 168.148 175.591C167.632 175.591 167.156 175.71 166.722 175.948C166.299 176.175 165.958 176.526 165.699 177.001C165.441 177.477 165.312 178.056 165.312 178.738C165.312 179.43 165.436 180.014 165.684 180.489C165.942 180.964 166.283 181.321 166.707 181.559C167.131 181.786 167.596 181.9 168.102 181.9ZM176.284 175.886C176.532 175.4 176.884 175.023 177.338 174.754C177.803 174.485 178.367 174.351 179.028 174.351V175.808H178.656C177.075 175.808 176.284 176.666 176.284 178.381V183H174.874V174.506H176.284V175.886ZM188.968 178.428C188.968 178.696 188.952 178.98 188.921 179.28H182.132C182.184 180.117 182.468 180.773 182.985 181.249C183.512 181.714 184.147 181.946 184.891 181.946C185.501 181.946 186.007 181.807 186.41 181.527C186.824 181.238 187.113 180.856 187.278 180.38H188.797C188.57 181.197 188.115 181.863 187.433 182.38C186.751 182.886 185.904 183.139 184.891 183.139C184.085 183.139 183.362 182.959 182.721 182.597C182.091 182.235 181.595 181.724 181.233 181.063C180.872 180.391 180.691 179.616 180.691 178.738C180.691 177.859 180.867 177.089 181.218 176.428C181.569 175.767 182.06 175.26 182.69 174.909C183.331 174.547 184.065 174.366 184.891 174.366C185.697 174.366 186.41 174.542 187.03 174.894C187.65 175.245 188.126 175.731 188.456 176.351C188.797 176.96 188.968 177.653 188.968 178.428ZM187.511 178.133C187.511 177.596 187.392 177.136 187.154 176.753C186.917 176.361 186.591 176.066 186.178 175.87C185.775 175.663 185.325 175.56 184.829 175.56C184.116 175.56 183.507 175.787 183 176.242C182.504 176.697 182.22 177.327 182.148 178.133H187.511Z" fill="#828282"/>
<defs>
<linearGradient id="paint0_linear_1045_1920" x1="5" y1="5" x2="379.279" y2="135.519" gradientUnits="userSpaceOnUse">
<stop stop-color="#4EECAC"/>
<stop offset="0.723958" stop-color="#8DC7ED"/>
<stop offset="1" stop-color="#8285F0"/>
</linearGradient>
<linearGradient id="paint1_linear_1045_1920" x1="8.875" y1="8.875" x2="371.458" y2="135.316" gradientUnits="userSpaceOnUse">
<stop stop-color="#4EECAC"/>
<stop offset="0.723958" stop-color="#8DC7ED"/>
<stop offset="1" stop-color="#8285F0"/>
</linearGradient>
<linearGradient id="paint2_linear_1045_1920" x1="65.9687" y1="43" x2="258.504" y2="100.816" gradientUnits="userSpaceOnUse">
<stop stop-color="#4EECAC"/>
<stop offset="0.723958" stop-color="#8DC7ED"/>
<stop offset="1" stop-color="#8285F0"/>
</linearGradient>
</defs>
</svg>
