<svg width="182" height="39" viewBox="0 0 182 39" fill="none" xmlns="http://www.w3.org/2000/svg">
<path fill-rule="evenodd" clip-rule="evenodd" d="M10.1554 16.4414L22.7378 29.2275L35.1858 16.578L45.3922 26.9495L33.5337 39.0001L30.4831 35.9826L39.3721 26.9495L35.1858 22.6954L22.7378 35.345L10.1554 22.5589L6.01998 26.7613L15.0443 35.9317L11.9936 38.9491L0 26.7613L10.1554 16.4414Z" fill="white"/>
<path fill-rule="evenodd" clip-rule="evenodd" d="M10.1554 16.4414L22.7378 29.2275L35.1858 16.578L45.3922 26.9495L33.5337 39.0001L30.4831 35.9826L39.3721 26.9495L35.1858 22.6954L22.7378 35.345L10.1554 22.5589L6.01998 26.7613L15.0443 35.9317L11.9936 38.9491L0 26.7613L10.1554 16.4414Z" fill="url(#paint0_linear_2153_2940)"/>
<path fill-rule="evenodd" clip-rule="evenodd" d="M35.2367 22.5586L22.6543 9.77252L10.2064 22.4221L0 12.0504L11.8584 0L14.9091 3.01743L6.01997 12.0504L10.2064 16.3047L22.6543 3.65502L35.2367 16.4412L39.3722 12.2387L30.3478 3.0683L33.3985 0.0508673L45.3921 12.2387L35.2367 22.5586Z" fill="white"/>
<path fill-rule="evenodd" clip-rule="evenodd" d="M35.2367 22.5586L22.6543 9.77252L10.2064 22.4221L0 12.0504L11.8584 0L14.9091 3.01743L6.01997 12.0504L10.2064 16.3047L22.6543 3.65502L35.2367 16.4412L39.3722 12.2387L30.3478 3.0683L33.3985 0.0508673L45.3921 12.2387L35.2367 22.5586Z" fill="url(#paint1_linear_2153_2940)"/>
<path fill-rule="evenodd" clip-rule="evenodd" d="M20.7734 38.6993V30.6436H24.8822V38.6993H20.7734Z" fill="white"/>
<path fill-rule="evenodd" clip-rule="evenodd" d="M20.7734 38.6993V30.6436H24.8822V38.6993H20.7734Z" fill="url(#paint2_linear_2153_2940)"/>
<path fill-rule="evenodd" clip-rule="evenodd" d="M20.7734 8.35652V0.300781H24.8822V8.35652H20.7734Z" fill="white"/>
<path fill-rule="evenodd" clip-rule="evenodd" d="M20.7734 8.35652V0.300781H24.8822V8.35652H20.7734Z" fill="url(#paint3_linear_2153_2940)"/>
<path d="M59.2388 9.51074H55.1445V30.0895H59.2388V9.51074Z" fill="white"/>
<path d="M59.2388 9.51074H55.1445V30.0895H59.2388V9.51074Z" fill="url(#paint4_linear_2153_2940)"/>
<path d="M80.0081 14.9414C78.147 14.9414 76.3719 15.7418 75.4844 17.4853C74.5682 15.7418 72.8503 14.9414 70.8461 14.9414C69.0424 14.9414 67.6681 15.6274 66.9523 16.8564L66.5229 15.2273H62.8008V30.0898H66.8092V21.7724C66.8092 19.5717 67.9544 18.5142 69.6436 18.5142C71.247 18.5142 72.335 19.5146 72.335 21.9439V30.0898H76.2001V21.8582C76.2574 19.5431 77.4599 18.5142 79.0346 18.5142C80.6666 18.5142 81.726 19.5146 81.726 21.7439V30.1183H85.7629V20.9436C85.7629 16.8278 82.9857 14.9414 80.0081 14.9414Z" fill="white"/>
<path d="M80.0081 14.9414C78.147 14.9414 76.3719 15.7418 75.4844 17.4853C74.5682 15.7418 72.8503 14.9414 70.8461 14.9414C69.0424 14.9414 67.6681 15.6274 66.9523 16.8564L66.5229 15.2273H62.8008V30.0898H66.8092V21.7724C66.8092 19.5717 67.9544 18.5142 69.6436 18.5142C71.247 18.5142 72.335 19.5146 72.335 21.9439V30.0898H76.2001V21.8582C76.2574 19.5431 77.4599 18.5142 79.0346 18.5142C80.6666 18.5142 81.726 19.5146 81.726 21.7439V30.1183H85.7629V20.9436C85.7629 16.8278 82.9857 14.9414 80.0081 14.9414Z" fill="url(#paint5_linear_2153_2940)"/>
<path d="M106.149 14.9414C104.287 14.9414 102.513 15.7418 101.625 17.4853C100.709 15.7418 98.9905 14.9414 96.9867 14.9414C95.183 14.9414 93.8087 15.6274 93.0929 16.8564L92.6634 15.2273H88.9414V30.0898H92.9498V21.7724C92.9498 19.5717 94.0949 18.5142 95.7842 18.5142C97.3876 18.5142 98.4756 19.5146 98.4756 21.9439V30.0898H102.341V21.8582C102.398 19.5431 103.601 18.5142 105.176 18.5142C106.807 18.5142 107.867 19.5146 107.867 21.7439V30.1183H111.904V20.9436C111.904 16.8278 109.127 14.9414 106.149 14.9414Z" fill="white"/>
<path d="M106.149 14.9414C104.287 14.9414 102.513 15.7418 101.625 17.4853C100.709 15.7418 98.9905 14.9414 96.9867 14.9414C95.183 14.9414 93.8087 15.6274 93.0929 16.8564L92.6634 15.2273H88.9414V30.0898H92.9498V21.7724C92.9498 19.5717 94.0949 18.5142 95.7842 18.5142C97.3876 18.5142 98.4756 19.5146 98.4756 21.9439V30.0898H102.341V21.8582C102.398 19.5431 103.601 18.5142 105.176 18.5142C106.807 18.5142 107.867 19.5146 107.867 21.7439V30.1183H111.904V20.9436C111.904 16.8278 109.127 14.9414 106.149 14.9414Z" fill="url(#paint6_linear_2153_2940)"/>
<path d="M124.848 15.2266V23.3723C124.848 25.5731 123.817 26.8878 121.841 26.9164C119.952 26.9736 118.749 25.8589 118.749 23.5438V15.2266H114.941V24.0583C114.941 27.8596 117.145 30.3748 120.954 30.3748C122.729 30.3748 124.017 29.5745 124.79 28.4598L124.991 30.089H128.655V15.2266H124.848Z" fill="white"/>
<path d="M124.848 15.2266V23.3723C124.848 25.5731 123.817 26.8878 121.841 26.9164C119.952 26.9736 118.749 25.8589 118.749 23.5438V15.2266H114.941V24.0583C114.941 27.8596 117.145 30.3748 120.954 30.3748C122.729 30.3748 124.017 29.5745 124.79 28.4598L124.991 30.089H128.655V15.2266H124.848Z" fill="url(#paint7_linear_2153_2940)"/>
<path d="M140.419 14.9414C138.186 14.9414 136.697 15.7703 135.924 16.9993L135.695 15.2273H131.973V30.0898H135.981V22.2297C135.981 19.8289 137.126 18.3713 139.245 18.3713C141.192 18.3713 142.366 19.6288 142.366 22.0868V30.0898H146.403V21.258C146.403 17.4566 144.227 14.9414 140.419 14.9414Z" fill="white"/>
<path d="M140.419 14.9414C138.186 14.9414 136.697 15.7703 135.924 16.9993L135.695 15.2273H131.973V30.0898H135.981V22.2297C135.981 19.8289 137.126 18.3713 139.245 18.3713C141.192 18.3713 142.366 19.6288 142.366 22.0868V30.0898H146.403V21.258C146.403 17.4566 144.227 14.9414 140.419 14.9414Z" fill="url(#paint8_linear_2153_2940)"/>
<path d="M163.931 22.4299C163.931 17.8853 160.981 14.9414 156.544 14.9414C152.106 14.9414 149.129 18.0282 149.129 22.6585C149.129 27.3173 152.106 30.4041 156.573 30.4041C160.323 30.4041 163.158 28.3176 163.816 25.2308H159.779C159.322 26.517 158.148 27.1743 156.687 27.1743C154.769 27.1743 153.222 25.9454 153.166 23.7446H163.931V22.4299ZM156.544 18.0569C158.29 18.0569 159.751 19.0572 159.922 21.1151H153.194C153.366 19.0572 154.826 18.0569 156.544 18.0569Z" fill="white"/>
<path d="M163.931 22.4299C163.931 17.8853 160.981 14.9414 156.544 14.9414C152.106 14.9414 149.129 18.0282 149.129 22.6585C149.129 27.3173 152.106 30.4041 156.573 30.4041C160.323 30.4041 163.158 28.3176 163.816 25.2308H159.779C159.322 26.517 158.148 27.1743 156.687 27.1743C154.769 27.1743 153.222 25.9454 153.166 23.7446H163.931V22.4299ZM156.544 18.0569C158.29 18.0569 159.751 19.0572 159.922 21.1151H153.194C153.366 19.0572 154.826 18.0569 156.544 18.0569Z" fill="url(#paint9_linear_2153_2940)"/>
<path d="M165.496 15.2267V18.7136H167.787V30.0891H171.824V18.7136H175.231V15.2267H171.824V13.7118C171.824 12.6543 172.109 11.8541 173.742 11.8541H175.231V8.5957H172.854C169.103 8.5957 167.787 10.425 167.787 13.3117V15.2267H165.496Z" fill="white"/>
<path d="M165.496 15.2267V18.7136H167.787V30.0891H171.824V18.7136H175.231V15.2267H171.824V13.7118C171.824 12.6543 172.109 11.8541 173.742 11.8541H175.231V8.5957H172.854C169.103 8.5957 167.787 10.425 167.787 13.3117V15.2267H165.496Z" fill="url(#paint10_linear_2153_2940)"/>
<path d="M177.879 12.9401H181.944L182.002 8.5957H177.936L177.879 12.9401ZM177.936 30.0891H181.944V15.2267H177.936V30.0891Z" fill="white"/>
<path d="M177.879 12.9401H181.944L182.002 8.5957H177.936L177.879 12.9401ZM177.936 30.0891H181.944V15.2267H177.936V30.0891Z" fill="url(#paint11_linear_2153_2940)"/>
<defs>
<linearGradient id="paint0_linear_2153_2940" x1="0" y1="16.4414" x2="51.4858" y2="52.5687" gradientUnits="userSpaceOnUse">
<stop stop-color="#4EECAC"/>
<stop offset="0.723958" stop-color="#8DC7ED"/>
<stop offset="1" stop-color="#8285F0"/>
</linearGradient>
<linearGradient id="paint1_linear_2153_2940" x1="0" y1="0" x2="51.4857" y2="36.1273" gradientUnits="userSpaceOnUse">
<stop stop-color="#4EECAC"/>
<stop offset="0.723958" stop-color="#8DC7ED"/>
<stop offset="1" stop-color="#8285F0"/>
</linearGradient>
<linearGradient id="paint2_linear_2153_2940" x1="20.7734" y1="30.6436" x2="27.5152" y2="31.8427" gradientUnits="userSpaceOnUse">
<stop stop-color="#4EECAC"/>
<stop offset="0.723958" stop-color="#8DC7ED"/>
<stop offset="1" stop-color="#8285F0"/>
</linearGradient>
<linearGradient id="paint3_linear_2153_2940" x1="20.7734" y1="0.300781" x2="27.5152" y2="1.49991" gradientUnits="userSpaceOnUse">
<stop stop-color="#4EECAC"/>
<stop offset="0.723958" stop-color="#8DC7ED"/>
<stop offset="1" stop-color="#8285F0"/>
</linearGradient>
<linearGradient id="paint4_linear_2153_2940" x1="55.1445" y1="9.51074" x2="62.0418" y2="9.98928" gradientUnits="userSpaceOnUse">
<stop stop-color="#4EECAC"/>
<stop offset="0.723958" stop-color="#8DC7ED"/>
<stop offset="1" stop-color="#8285F0"/>
</linearGradient>
<linearGradient id="paint5_linear_2153_2940" x1="62.8008" y1="14.9414" x2="93.2055" y2="30.9831" gradientUnits="userSpaceOnUse">
<stop stop-color="#4EECAC"/>
<stop offset="0.723958" stop-color="#8DC7ED"/>
<stop offset="1" stop-color="#8285F0"/>
</linearGradient>
<linearGradient id="paint6_linear_2153_2940" x1="88.9414" y1="14.9414" x2="119.346" y2="30.9834" gradientUnits="userSpaceOnUse">
<stop stop-color="#4EECAC"/>
<stop offset="0.723958" stop-color="#8DC7ED"/>
<stop offset="1" stop-color="#8285F0"/>
</linearGradient>
<linearGradient id="paint7_linear_2153_2940" x1="114.941" y1="15.2266" x2="136.051" y2="21.891" gradientUnits="userSpaceOnUse">
<stop stop-color="#4EECAC"/>
<stop offset="0.723958" stop-color="#8DC7ED"/>
<stop offset="1" stop-color="#8285F0"/>
</linearGradient>
<linearGradient id="paint8_linear_2153_2940" x1="131.973" y1="14.9414" x2="153.972" y2="22.2496" gradientUnits="userSpaceOnUse">
<stop stop-color="#4EECAC"/>
<stop offset="0.723958" stop-color="#8DC7ED"/>
<stop offset="1" stop-color="#8285F0"/>
</linearGradient>
<linearGradient id="paint9_linear_2153_2940" x1="149.129" y1="14.9414" x2="171.672" y2="22.467" gradientUnits="userSpaceOnUse">
<stop stop-color="#4EECAC"/>
<stop offset="0.723958" stop-color="#8DC7ED"/>
<stop offset="1" stop-color="#8285F0"/>
</linearGradient>
<linearGradient id="paint10_linear_2153_2940" x1="165.496" y1="8.5957" x2="181.573" y2="11.1348" gradientUnits="userSpaceOnUse">
<stop stop-color="#4EECAC"/>
<stop offset="0.723958" stop-color="#8DC7ED"/>
<stop offset="1" stop-color="#8285F0"/>
</linearGradient>
<linearGradient id="paint11_linear_2153_2940" x1="177.879" y1="8.5957" x2="184.826" y2="9.06043" gradientUnits="userSpaceOnUse">
<stop stop-color="#4EECAC"/>
<stop offset="0.723958" stop-color="#8DC7ED"/>
<stop offset="1" stop-color="#8285F0"/>
</linearGradient>
</defs>
</svg>
